<svg width="21" height="20" viewBox="0 0 21 20" fill="none" xmlns="http://www.w3.org/2000/svg">
<path d="M10.75 0C12.2601 0.000872767 13.7505 0.343757 15.1092 1.00292C16.4678 1.66209 17.6596 2.62041 18.595 3.80598C19.5303 4.99155 20.1851 6.37358 20.51 7.84835C20.8349 9.32311 20.8216 10.8523 20.4711 12.3212C20.1206 13.7901 19.4419 15.1605 18.486 16.3296C17.5302 17.4988 16.3219 18.4362 14.952 19.0716C13.582 19.7071 12.086 20.024 10.576 19.9986C9.06611 19.9732 7.58155 19.6061 6.23375 18.925L6.0825 18.8438L1.52625 19.9813C1.43856 20.0033 1.34714 20.0061 1.25828 19.9893C1.16942 19.9726 1.08525 19.9368 1.01157 19.8844C0.937894 19.832 0.876464 19.7642 0.83152 19.6858C0.786576 19.6073 0.759189 19.5201 0.75125 19.43V19.3275L0.76875 19.2237L1.90625 14.6687L1.8275 14.5187C1.25548 13.3927 0.903362 12.1679 0.79 10.91L0.75875 10.4325L0.75 10C0.75 7.34784 1.80357 4.8043 3.67893 2.92893C5.5543 1.05357 8.09784 0 10.75 0ZM11.375 11.25H7.625L7.5125 11.26C7.3684 11.2861 7.23803 11.362 7.14416 11.4744C7.05028 11.5868 6.99886 11.7286 6.99886 11.875C6.99886 12.0214 7.05028 12.1632 7.14416 12.2756C7.23803 12.388 7.3684 12.4639 7.5125 12.49L7.625 12.5H11.375L11.4875 12.49C11.6316 12.4639 11.762 12.388 11.8558 12.2756C11.9497 12.1632 12.0011 12.0214 12.0011 11.875C12.0011 11.7286 11.9497 11.5868 11.8558 11.4744C11.762 11.362 11.6316 11.2861 11.4875 11.26L11.375 11.25ZM13.875 7.5H7.625L7.5125 7.51C7.3684 7.53609 7.23803 7.61196 7.14416 7.72436C7.05028 7.83676 6.99886 7.97855 6.99886 8.125C6.99886 8.27145 7.05028 8.41324 7.14416 8.52564C7.23803 8.63804 7.3684 8.71391 7.5125 8.74L7.625 8.75H13.875L13.9875 8.74C14.1316 8.71391 14.262 8.63804 14.3558 8.52564C14.4497 8.41324 14.5011 8.27145 14.5011 8.125C14.5011 7.97855 14.4497 7.83676 14.3558 7.72436C14.262 7.61196 14.1316 7.53609 13.9875 7.51L13.875 7.5Z" fill="#E16B0E"/>
</svg>
