<svg width="23" height="24" viewBox="0 0 23 24" fill="none" xmlns="http://www.w3.org/2000/svg">
<path d="M22.75 17.525V21.945C22.7501 22.2615 22.6302 22.5662 22.4145 22.7977C22.1987 23.0293 21.9032 23.1703 21.5875 23.1925C21.0413 23.23 20.595 23.25 20.25 23.25C9.20375 23.25 0.25 14.2963 0.25 3.25C0.25 2.905 0.26875 2.45875 0.3075 1.9125C0.329653 1.59681 0.470726 1.30126 0.702254 1.08551C0.933782 0.869759 1.23853 0.749857 1.555 0.75H5.975C6.13005 0.749843 6.27962 0.807324 6.39466 0.911276C6.5097 1.01523 6.582 1.15823 6.5975 1.3125C6.62625 1.6 6.6525 1.82875 6.6775 2.0025C6.92592 3.73615 7.435 5.42229 8.1875 7.00375C8.30625 7.25375 8.22875 7.5525 8.00375 7.7125L5.30625 9.64C6.95557 13.4831 10.0182 16.5457 13.8612 18.195L15.7863 15.5025C15.8649 15.3925 15.9797 15.3136 16.1106 15.2796C16.2415 15.2455 16.3802 15.2585 16.5025 15.3162C18.0837 16.0674 19.7695 16.5752 21.5025 16.8225C21.6763 16.8475 21.905 16.8738 22.19 16.9025C22.344 16.9183 22.4867 16.9907 22.5904 17.1057C22.6941 17.2207 22.7502 17.3701 22.75 17.525Z" fill="#E16B0E"/>
</svg>
