<svg width="25" height="24" viewBox="0 0 25 24" fill="none" xmlns="http://www.w3.org/2000/svg">
<path opacity="0.4" d="M24.002 11.9995C24.002 14.3729 23.2982 16.693 21.9796 18.6664C20.661 20.6397 18.7869 22.1778 16.5942 23.0861C14.4014 23.9943 11.9886 24.232 9.66087 23.7689C7.3331 23.3059 5.19491 22.163 3.51668 20.4848C1.83845 18.8066 0.695558 16.6684 0.232535 14.3406C-0.230487 12.0128 0.00715253 9.60002 0.915404 7.40731C1.82366 5.2146 3.36173 3.34045 5.33512 2.02188C7.30851 0.7033 9.62858 -0.000488281 12.002 -0.000488281C15.1846 -0.000488281 18.2368 1.26379 20.4872 3.51423C22.7377 5.76467 24.002 8.81691 24.002 11.9995Z" fill="white"/>
</svg>
