<svg width="34" height="36" viewBox="0 0 34 36" fill="none" xmlns="http://www.w3.org/2000/svg">
<path d="M22 10H22.0175M17.625 32.75H6.25C4.85761 32.75 3.52226 32.1969 2.53769 31.2123C1.55312 30.2277 1 28.8924 1 27.5V6.5C1 5.10761 1.55312 3.77226 2.53769 2.78769C3.52226 1.80312 4.85761 1.25 6.25 1.25H27.25C28.6424 1.25 29.9777 1.80312 30.9623 2.78769C31.9469 3.77226 32.5 5.10761 32.5 6.5V17.875" stroke="#4D7A42" stroke-width="2" stroke-linecap="round" stroke-linejoin="round"/>
<path d="M1 24.0002L9.75 15.2502C11.374 13.6874 13.376 13.6874 15 15.2502L22 22.2502" stroke="#4D7A42" stroke-width="2" stroke-linecap="round" stroke-linejoin="round"/>
<path d="M20.25 20.4998L22 18.7498C23.1725 17.6228 24.5375 17.3078 25.8185 17.8048M23.75 29.2498H34.25M29 23.9998V34.4998" stroke="#4D7A42" stroke-width="2" stroke-linecap="round" stroke-linejoin="round"/>
</svg>
