<svg width="21" height="25" viewBox="0 0 21 25" fill="none" xmlns="http://www.w3.org/2000/svg">
<path d="M9.27034 14.3973H6.1416C6.08013 14.3973 6.02118 14.4208 5.97772 14.4627C5.93426 14.5046 5.90984 14.5613 5.90984 14.6205V15.9598C5.90984 16.019 5.93426 16.0758 5.97772 16.1177C6.02118 16.1595 6.08013 16.183 6.1416 16.183H9.27034V19.1964C9.27034 19.2556 9.29475 19.3124 9.33821 19.3543C9.38168 19.3961 9.44063 19.4196 9.50209 19.4196H10.8926C10.9541 19.4196 11.0131 19.3961 11.0565 19.3543C11.1 19.3124 11.1244 19.2556 11.1244 19.1964V16.183H14.2531C14.3146 16.183 14.3736 16.1595 14.417 16.1177C14.4605 16.0758 14.4849 16.019 14.4849 15.9598V14.6205C14.4849 14.5613 14.4605 14.5046 14.417 14.4627C14.3736 14.4208 14.3146 14.3973 14.2531 14.3973H11.1244V11.3839C11.1244 11.3247 11.1 11.268 11.0565 11.2261C11.0131 11.1842 10.9541 11.1607 10.8926 11.1607H9.50209C9.44063 11.1607 9.38168 11.1842 9.33821 11.2261C9.29475 11.268 9.27034 11.3247 9.27034 11.3839V14.3973ZM20.1224 6.26953C20.2962 6.43694 20.3947 6.66295 20.3947 6.90011V24.1071C20.3947 24.601 19.9805 25 19.4677 25H0.927033C0.414268 25 0 24.601 0 24.1071V0.892857C0 0.398996 0.414268 0 0.927033 0H13.2305C13.4767 0 13.7143 0.0948661 13.8881 0.262277L20.1224 6.26953ZM18.2568 7.31027L12.8047 2.05915V7.31027H18.2568Z" fill="#4D7A42"/>
</svg>
