<svg width="21" height="20" viewBox="0 0 21 20" fill="none" xmlns="http://www.w3.org/2000/svg">
<path d="M14 18.9062H7C1.96875 18.9062 1.96875 16.2375 1.96875 13.875V13C1.96875 11.0487 1.96875 8.84375 6.125 8.84375C7.16625 8.84375 7.55125 9.0975 8.09375 9.5C8.12 9.52625 8.155 9.54375 8.18125 9.57875L9.07375 10.5238C9.82625 11.32 11.1912 11.32 11.9437 10.5238L12.8363 9.57875C12.8625 9.5525 12.8888 9.52625 12.9237 9.5C13.4663 9.08875 13.8513 8.84375 14.8925 8.84375C19.0487 8.84375 19.0487 11.0487 19.0487 13V13.875C19.0312 17.2175 17.3425 18.9062 14 18.9062ZM6.125 10.1562C3.28125 10.1562 3.28125 11.0487 3.28125 13V13.875C3.28125 16.2725 3.28125 17.5938 7 17.5938H14C16.6075 17.5938 17.7188 16.4825 17.7188 13.875V13C17.7188 11.0487 17.7188 10.1562 14.875 10.1562C14.245 10.1562 14.1137 10.235 13.7375 10.515L12.8888 11.4162C12.2587 12.0812 11.41 12.4488 10.5 12.4488C9.59 12.4488 8.74125 12.0812 8.11125 11.4162L7.2625 10.515C6.88625 10.235 6.755 10.1562 6.125 10.1562Z" fill="#86BD00"/>
<path d="M16.625 10.1562C16.2662 10.1562 15.9688 9.85875 15.9688 9.5V4.25C15.9688 2.29875 15.9688 1.40625 13.125 1.40625H7.875C5.03125 1.40625 5.03125 2.29875 5.03125 4.25V9.5C5.03125 9.85875 4.73375 10.1562 4.375 10.1562C4.01625 10.1562 3.71875 9.85875 3.71875 9.5V4.25C3.71875 2.29875 3.71875 0.09375 7.875 0.09375H13.125C17.2812 0.09375 17.2812 2.29875 17.2812 4.25V9.5C17.2812 9.85875 16.9838 10.1562 16.625 10.1562Z" fill="#86BD00"/>
<path d="M12.1452 7.73242H9.23145C8.8727 7.73242 8.5752 7.43492 8.5752 7.07617C8.5752 6.71742 8.8727 6.41992 9.23145 6.41992H12.1452C12.5039 6.41992 12.8014 6.71742 12.8014 7.07617C12.8014 7.43492 12.5127 7.73242 12.1452 7.73242Z" fill="#86BD00"/>
<path d="M12.8799 5.10742H8.50488C8.14613 5.10742 7.84863 4.80992 7.84863 4.45117C7.84863 4.09242 8.14613 3.79492 8.50488 3.79492H12.8799C13.2386 3.79492 13.5361 4.09242 13.5361 4.45117C13.5361 4.80992 13.2474 5.10742 12.8799 5.10742Z" fill="#86BD00"/>
</svg>
