<svg width="8" height="8" viewBox="0 0 8 8" fill="none" xmlns="http://www.w3.org/2000/svg">
<path d="M1.09098 0.000102295C0.99794 0.000102295 0.904795 0.0355445 0.833888 0.106634L0.106634 0.833888C-0.0355445 0.976066 -0.0355445 1.20626 0.106634 1.34808L2.75855 4L0.106634 6.65192C-0.0355445 6.7941 -0.0355445 7.0243 0.106634 7.16611L0.833888 7.89337C0.976066 8.03554 1.20626 8.03554 1.34808 7.89337L4 5.24145L6.65192 7.89337C6.79374 8.03554 7.0243 8.03554 7.16611 7.89337L7.89337 7.16611C8.03554 7.02393 8.03554 6.79374 7.89337 6.65192L5.24145 4L7.89337 1.34808C8.03554 1.20626 8.03554 0.975702 7.89337 0.833888L7.16611 0.106634C7.02393 -0.0355445 6.79374 -0.0355445 6.65192 0.106634L4 2.75855L1.34808 0.106634C1.27699 0.0355445 1.18403 0.000102295 1.09098 0.000102295Z" fill="#C7C7C7"/>
</svg>
