<svg width="16" height="16" viewBox="0 0 16 16" fill="none" xmlns="http://www.w3.org/2000/svg">
<path d="M5.37486 4.28334C5.11815 4.28334 4.90527 4.07046 4.90527 3.81376V1.93541C4.90527 1.6787 5.11815 1.46582 5.37486 1.46582C5.63157 1.46582 5.84445 1.6787 5.84445 1.93541V3.81376C5.84445 4.07046 5.63157 4.28334 5.37486 4.28334Z" fill="#4D7A42"/>
<path d="M10.3836 4.28334C10.1269 4.28334 9.91406 4.07046 9.91406 3.81376V1.93541C9.91406 1.6787 10.1269 1.46582 10.3836 1.46582C10.6404 1.46582 10.8532 1.6787 10.8532 1.93541V3.81376C10.8532 4.07046 10.6404 4.28334 10.3836 4.28334Z" fill="#4D7A42"/>
<path d="M5.68862 9.76194C5.60722 9.76194 5.52583 9.74317 5.45069 9.71186C5.3693 9.68056 5.30669 9.63671 5.24407 9.58036C5.13137 9.4614 5.0625 9.30488 5.0625 9.13583C5.0625 9.05443 5.08128 8.97303 5.11259 8.8979C5.1439 8.82276 5.18772 8.7539 5.24407 8.69129C5.30669 8.63494 5.3693 8.5911 5.45069 8.55979C5.67609 8.46587 5.95785 8.51598 6.13316 8.69129C6.24586 8.81025 6.31473 8.97304 6.31473 9.13583C6.31473 9.17339 6.30847 9.21723 6.30221 9.26106C6.29595 9.29862 6.28343 9.33619 6.26464 9.37375C6.25212 9.41132 6.23334 9.44888 6.20829 9.48645C6.18951 9.51776 6.1582 9.54906 6.13316 9.58036C6.0142 9.69306 5.85141 9.76194 5.68862 9.76194Z" fill="#4D7A42"/>
<path d="M7.88002 9.7618C7.79863 9.7618 7.71723 9.74302 7.6421 9.71171C7.5607 9.68041 7.49809 9.63657 7.43548 9.58022C7.32278 9.46125 7.25391 9.30473 7.25391 9.13568C7.25391 9.05428 7.27269 8.97289 7.304 8.89775C7.3353 8.82262 7.37913 8.75375 7.43548 8.69114C7.49809 8.63479 7.5607 8.59095 7.6421 8.55964C7.8675 8.45947 8.14925 8.51583 8.32456 8.69114C8.43727 8.8101 8.50614 8.97289 8.50614 9.13568C8.50614 9.17325 8.49988 9.21708 8.49362 9.26091C8.48735 9.29848 8.47483 9.33604 8.45605 9.37361C8.44353 9.41117 8.42474 9.44874 8.3997 9.4863C8.38092 9.51761 8.34961 9.54891 8.32456 9.58022C8.2056 9.69292 8.04281 9.7618 7.88002 9.7618Z" fill="#4D7A42"/>
<path d="M10.0714 9.7618C9.99003 9.7618 9.90864 9.74302 9.8335 9.71171C9.75211 9.68041 9.6895 9.63657 9.62689 9.58022C9.60184 9.54891 9.5768 9.51761 9.55175 9.4863C9.52671 9.44874 9.50793 9.41117 9.4954 9.37361C9.47662 9.33604 9.4641 9.29848 9.45784 9.26091C9.45157 9.21708 9.44531 9.17325 9.44531 9.13568C9.44531 8.97289 9.51419 8.8101 9.62689 8.69114C9.6895 8.63479 9.75211 8.59095 9.8335 8.55964C10.0652 8.45947 10.3407 8.51583 10.516 8.69114C10.6287 8.8101 10.6975 8.97289 10.6975 9.13568C10.6975 9.17325 10.6913 9.21708 10.685 9.26091C10.6788 9.29848 10.6662 9.33604 10.6475 9.37361C10.6349 9.41117 10.6162 9.44874 10.5911 9.4863C10.5723 9.51761 10.541 9.54891 10.516 9.58022C10.397 9.69292 10.2342 9.7618 10.0714 9.7618Z" fill="#4D7A42"/>
<path d="M5.68862 11.9534C5.60722 11.9534 5.52583 11.9346 5.45069 11.9033C5.37556 11.872 5.30669 11.8282 5.24407 11.7718C5.13137 11.6528 5.0625 11.4901 5.0625 11.3273C5.0625 11.2459 5.08128 11.1645 5.11259 11.0893C5.1439 11.0079 5.18772 10.9391 5.24407 10.8827C5.47574 10.6511 5.90149 10.6511 6.13316 10.8827C6.24586 11.0017 6.31473 11.1645 6.31473 11.3273C6.31473 11.4901 6.24586 11.6528 6.13316 11.7718C6.0142 11.8845 5.85141 11.9534 5.68862 11.9534Z" fill="#4D7A42"/>
<path d="M7.88002 11.9534C7.71723 11.9534 7.55444 11.8845 7.43548 11.7718C7.32278 11.6528 7.25391 11.4901 7.25391 11.3273C7.25391 11.2459 7.27269 11.1645 7.304 11.0893C7.3353 11.0079 7.37913 10.9391 7.43548 10.8827C7.66714 10.6511 8.0929 10.6511 8.32456 10.8827C8.38091 10.9391 8.42474 11.0079 8.45605 11.0893C8.48735 11.1645 8.50614 11.2459 8.50614 11.3273C8.50614 11.4901 8.43727 11.6528 8.32456 11.7718C8.2056 11.8845 8.04281 11.9534 7.88002 11.9534Z" fill="#4D7A42"/>
<path d="M10.0714 11.9535C9.90864 11.9535 9.74585 11.8846 9.62689 11.7719C9.57054 11.7155 9.52671 11.6467 9.4954 11.5653C9.4641 11.4901 9.44531 11.4088 9.44531 11.3274C9.44531 11.246 9.4641 11.1646 9.4954 11.0894C9.52671 11.008 9.57054 10.9392 9.62689 10.8828C9.77089 10.7388 9.99003 10.6699 10.1904 10.7138C10.2342 10.72 10.2718 10.7325 10.3094 10.7513C10.3469 10.7638 10.3845 10.7826 10.4221 10.8077C10.4534 10.8265 10.4847 10.8578 10.516 10.8828C10.6287 11.0018 10.6975 11.1646 10.6975 11.3274C10.6975 11.4901 10.6287 11.6529 10.516 11.7719C10.397 11.8846 10.2342 11.9535 10.0714 11.9535Z" fill="#4D7A42"/>
<path d="M13.2014 6.84396H2.55748C2.30077 6.84396 2.08789 6.63108 2.08789 6.37437C2.08789 6.11766 2.30077 5.90479 2.55748 5.90479H13.2014C13.4582 5.90479 13.671 6.11766 13.671 6.37437C13.671 6.63108 13.4582 6.84396 13.2014 6.84396Z" fill="#4D7A42"/>
<path d="M10.3845 14.9271H5.37556C3.09023 14.9271 1.77539 13.6123 1.77539 11.3269V6.00495C1.77539 3.71963 3.09023 2.40479 5.37556 2.40479H10.3845C12.6698 2.40479 13.9847 3.71963 13.9847 6.00495V11.3269C13.9847 13.6123 12.6698 14.9271 10.3845 14.9271ZM5.37556 3.34396C3.58487 3.34396 2.71456 4.21426 2.71456 6.00495V11.3269C2.71456 13.1176 3.58487 13.9879 5.37556 13.9879H10.3845C12.1752 13.9879 13.0455 13.1176 13.0455 11.3269V6.00495C13.0455 4.21426 12.1752 3.34396 10.3845 3.34396H5.37556Z" fill="#4D7A42"/>
</svg>
