<svg width="246" height="272" viewBox="0 0 246 272" fill="none" xmlns="http://www.w3.org/2000/svg">
<path d="M189.014 95.221L185.691 119.573L224.091 124.813L227.414 100.461L189.014 95.221Z" fill="#EBEBEB"/>
<path d="M188.999 95.2153C190.343 96.909 191.734 98.5444 193.073 100.215C194.411 101.885 195.837 103.503 197.228 105.133C198.619 106.762 200.138 108.52 201.61 110.196C201.65 110.253 201.693 110.307 201.739 110.359C203.038 111.837 204.338 113.317 205.638 114.8L205.836 115.009L206.069 114.858C207.721 113.779 209.37 112.699 211.016 111.616L211.184 111.506C213.053 110.277 214.909 109.049 216.772 107.787C218.518 106.623 220.316 105.389 222.085 104.172C223.855 102.956 225.618 101.722 227.376 100.448C225.554 101.495 223.75 102.607 221.94 103.689C220.13 104.772 218.326 105.901 216.527 107.03C214.525 108.275 212.521 109.542 210.515 110.83C209.014 111.785 207.514 112.745 206.016 113.711C204.852 112.384 203.647 111.046 202.46 109.73C200.877 107.984 199.288 106.203 197.688 104.457C196.256 102.905 194.817 101.353 193.369 99.8015C191.909 98.265 190.471 96.7111 188.999 95.2153Z" fill="white"/>
<path d="M210.405 111.377C210.405 111.377 210.405 111.377 210.446 111.424C210.626 111.622 210.801 111.826 210.981 112.006C211.836 112.949 212.727 113.863 213.612 114.759C214.712 115.859 215.841 116.924 216.976 117.983C218.11 119.042 219.269 120.061 220.468 121.068C221.666 122.075 222.848 123.07 224.105 123.978C223.075 122.814 221.992 121.685 220.898 120.591C219.804 119.496 218.669 118.425 217.54 117.366C216.411 116.307 215.241 115.277 214.048 114.27C213.105 113.467 212.145 112.669 211.138 111.942C210.911 111.762 210.684 111.593 210.446 111.418L210.405 111.377Z" fill="white"/>
<path d="M185.891 118.798C187.346 118.216 188.772 117.605 190.18 116.953C191.588 116.301 192.974 115.603 194.365 114.91C195.756 114.218 197.117 113.467 198.468 112.699C199.568 112.082 200.656 111.441 201.727 110.76L202.408 110.324L202.46 110.289H202.396L201.587 110.615C200.423 111.075 199.3 111.587 198.171 112.111C196.762 112.763 195.377 113.455 193.992 114.159C192.607 114.864 191.239 115.597 189.889 116.365C188.539 117.133 187.177 117.937 185.891 118.798Z" fill="white"/>
<path d="M60.2128 23.1503L19.8389 33.3965L26.337 59.0018L66.7109 48.7556L60.2128 23.1503Z" fill="#EBEBEB"/>
<path d="M19.835 33.3951C21.8661 34.5591 23.909 35.6125 25.9343 36.7299C27.9597 37.8474 30.0083 38.895 32.0628 39.9542C34.1172 41.0134 36.3288 42.1542 38.4648 43.2425L38.6568 43.3473L44.3313 46.2049L44.6107 46.3329L44.7911 46.0885C46.0017 44.3425 47.2064 42.5965 48.4053 40.8505C48.4513 40.7907 48.4941 40.7286 48.5334 40.6642C49.903 38.6971 51.261 36.7144 52.6074 34.7162C53.8936 32.8189 55.174 30.8925 56.4486 28.9719C57.7232 27.0513 58.9803 25.1074 60.2199 23.1519C58.8231 24.9328 57.4729 26.7661 56.1052 28.5703C54.7375 30.3745 53.3931 32.2311 52.0312 34.0818C50.5355 36.1246 49.0455 38.2024 47.5731 40.2859C46.4634 41.8379 45.3557 43.3899 44.2499 44.9419C42.5388 44.0922 40.8161 43.2367 39.0992 42.4102C36.8061 41.2967 34.5208 40.1928 32.2432 39.0987C30.1868 38.1209 28.1285 37.1509 26.0682 36.1887C23.9672 35.2633 21.9127 34.2913 19.835 33.3951Z" fill="white"/>
<path d="M47.6836 40.8799L47.7418 40.909L48.5159 41.2873C49.7439 41.8693 50.9894 42.4513 52.2465 42.9693C53.7771 43.6269 55.3311 44.2322 56.9025 44.8317C58.4739 45.4311 60.0278 45.9957 61.6167 46.5078C63.2055 47.02 64.7944 47.538 66.4182 47.957C64.9224 47.1946 63.3918 46.5195 61.8611 45.8676C60.3305 45.2158 58.7649 44.6105 57.2051 44.011C55.6454 43.4116 54.074 42.847 52.4851 42.3291C51.228 41.9042 49.9476 41.5026 48.6555 41.1651L47.7593 40.9264L47.6836 40.8799Z" fill="white"/>
<path d="M26.2246 58.1592C27.4526 56.9952 28.6166 55.8312 29.7515 54.5915C30.8864 53.3519 31.998 52.1238 33.098 50.8667C34.198 49.6096 35.2631 48.3059 36.3165 47.0139C37.1604 45.9546 37.9926 44.8779 38.7842 43.7663L39.2847 43.0621C39.2847 43.0621 39.2847 43.0214 39.3254 43.0039L39.273 43.0505C39.0402 43.2716 38.8191 43.4811 38.5979 43.7023C37.6318 44.6277 36.7064 45.5938 35.7927 46.5657C34.6287 47.7879 33.5462 49.0334 32.452 50.2905C31.3578 51.5477 30.2753 52.8339 29.2394 54.1259C28.2034 55.418 27.1733 56.774 26.2246 58.1592Z" fill="white"/>
<path d="M101.297 220.688H2.06028L0 179.966H103.363L101.297 220.688Z" fill="#EBEBEB"/>
<path d="M5.85449 184.494H49.0272L48.2532 198.631H6.76241L5.85449 184.494ZM48.5035 184.995H6.38993L7.21637 198.107H47.7585L48.5035 184.995Z" fill="#DBDBDB"/>
<path d="M6.7334 202.111H47.2639L46.6295 214.869H7.53074L6.7334 202.111ZM46.7343 202.612H7.26884L8.00216 214.368H46.1523L46.7343 202.612Z" fill="#DBDBDB"/>
<path d="M23.0762 189.662H30.9274L30.4967 193.073H23.5127L23.0762 189.662ZM30.357 190.163H23.6407L23.955 192.572H30.0427L30.357 190.163Z" fill="#DBDBDB"/>
<path d="M23.0762 206.785H30.9274L30.4967 210.195H23.5127L23.0762 206.785ZM30.357 207.285H23.6407L23.955 209.695H30.0427L30.357 207.285Z" fill="#DBDBDB"/>
<path d="M54.6553 184.494H97.828L97.054 198.631H55.5632L54.6553 184.494ZM97.2984 184.995H55.1907L56.0346 198.13H96.5767L97.2984 184.995Z" fill="#DBDBDB"/>
<path d="M55.5225 202.111H96.0529L95.4127 214.869H56.3314L55.5225 202.111ZM95.5233 202.612H56.0637L56.8029 214.368H94.953L95.5233 202.612Z" fill="#DBDBDB"/>
<path d="M71.877 189.662H79.7223L79.2858 193.073H72.3018L71.877 189.662ZM79.1578 190.163H72.4415L72.7558 192.572H78.8435L79.1578 190.163Z" fill="#DBDBDB"/>
<path d="M71.877 206.785H79.7223L79.2858 210.195H72.3018L71.877 206.785ZM79.1578 207.285H72.4415L72.7558 209.695H78.8435L79.1578 207.285Z" fill="#DBDBDB"/>
<path d="M92.3984 220.688L93.0212 225.123L94.2725 234.034H96.7227V220.688H92.3984Z" fill="#EBEBEB"/>
<path d="M92.3984 220.688L93.0212 225.123H96.7227V220.688H92.3984Z" fill="#DBDBDB"/>
<path d="M10.959 220.688L10.3363 225.123L9.08499 234.034H6.63477V220.688H10.959Z" fill="#EBEBEB"/>
<path d="M10.959 220.688L10.3363 225.123H6.63477V220.688H10.959Z" fill="#DBDBDB"/>
<path d="M74.123 179.943V149.923H66.5629V179.943H74.123Z" fill="#C7C7C7"/>
<path d="M74.123 151.623V148.323H66.5629V151.623H74.123Z" fill="#DBDBDB"/>
<path d="M74.123 157.064V155.842H66.5629V157.064H74.123Z" fill="#DBDBDB"/>
<path d="M74.123 176.008V172.708H66.5629V176.008H74.123Z" fill="#DBDBDB"/>
<path d="M66.5635 179.949V144.93H61.2789V179.949H66.5635Z" fill="#DBDBDB"/>
<path d="M65.5332 161.685V148.218H62.3613V161.685H65.5332Z" fill="#EBEBEB"/>
<path d="M27.3535 179.921L52.2578 155.302L48.5427 151.544L23.6383 176.163L27.3535 179.921Z" fill="#C7C7C7"/>
<path d="M32.438 173.376L42.0156 163.908L39.7857 161.652L30.2081 171.12L32.438 173.376Z" fill="#DBDBDB"/>
<path d="M61.2842 179.96V153.357H52.3097V179.96H61.2842Z" fill="#A6A6A6"/>
<path d="M61.2783 177.132V174.652H52.3039V177.132H61.2783Z" fill="#C7C7C7"/>
<path d="M61.2842 173.023V172.062H52.3097V173.023H61.2842Z" fill="#C7C7C7"/>
<path d="M89.623 177.509L79.7637 154.539L74.0679 156.984L83.9272 179.954L89.623 177.509Z" fill="#A6A6A6"/>
<path d="M88.5818 175.077L87.6636 172.938L81.9678 175.382L82.886 177.522L88.5818 175.077Z" fill="#C7C7C7"/>
<path d="M82.7185 161.422L81.8003 159.283L76.1045 161.728L77.0227 163.867L82.7185 161.422Z" fill="#C7C7C7"/>
<path d="M83.7054 163.717L83.3496 162.888L77.6538 165.333L78.0096 166.162L83.7054 163.717Z" fill="#C7C7C7"/>
<path d="M198.189 92.8988L190.547 93.0618L186.671 93.1258C185.373 93.1549 184.069 93.1258 182.772 93.1607H182.515V92.8988L182.486 86.3862V86.0952H182.777L190.483 86.1301C193.05 86.1301 195.622 86.2 198.189 86.2291H198.352V86.3862C198.352 87.492 198.305 88.592 198.276 89.6745L198.189 92.8988ZM198.189 92.8988L198.113 89.628C198.084 88.5396 198.049 87.4687 198.037 86.4037L198.195 86.5608C195.628 86.5899 193.055 86.6539 190.489 86.6598L182.783 86.6947L183.074 86.4037V92.9163L182.812 92.6544C184.081 92.6544 185.35 92.6544 186.624 92.6893L190.454 92.7533L198.189 92.8988Z" fill="#EBEBEB"/>
<path d="M189.593 101.111L181.951 101.274L178.075 101.338C176.783 101.338 175.479 101.338 174.181 101.373H173.925V101.111L173.896 94.5985V94.2842H174.187L181.893 94.3191C184.459 94.3191 187.032 94.3889 189.598 94.418H189.761V94.5752C189.761 95.681 189.715 96.781 189.686 97.8635L189.593 101.111ZM189.593 101.111L189.511 97.8227C189.482 96.7344 189.447 95.6635 189.435 94.5985L189.593 94.7556C187.026 94.7847 184.453 94.8487 181.887 94.8545L174.181 94.8895L174.472 94.5985L174.437 101.111L174.181 100.849C175.45 100.849 176.719 100.849 177.987 100.884L181.817 100.948L189.593 101.111Z" fill="#EBEBEB"/>
<path d="M206.784 101.111L199.149 101.274L195.273 101.338C193.975 101.338 192.671 101.338 191.373 101.373H191.129V101.111L191.094 94.5985V94.2842H191.385L199.09 94.3191C201.663 94.3191 204.229 94.3889 206.796 94.418H206.959V94.5752C206.959 95.681 206.907 96.781 206.883 97.8635L206.784 101.111ZM206.784 101.111L206.703 97.8227C206.703 96.7344 206.639 95.6635 206.627 94.5985L206.784 94.7556C204.218 94.7847 201.651 94.8487 199.079 94.8545L191.373 94.8895L191.664 94.5985L191.635 101.111L191.373 100.849C192.642 100.849 193.911 100.849 195.185 100.884L199.015 100.948L206.784 101.111Z" fill="#EBEBEB"/>
<path d="M236.147 33.9247L228.505 34.0876L224.629 34.1517C223.331 34.1517 222.033 34.1517 220.735 34.1866H220.473V33.9247L220.444 27.4121V27.1211H220.741L228.447 27.156C231.013 27.156 233.58 27.2259 236.153 27.255H236.31V27.4121C236.31 28.5179 236.257 29.6179 236.234 30.7004L236.147 33.9247ZM236.147 33.9247L236.059 30.6364C236.059 29.548 235.995 28.4772 235.984 27.4121L236.147 27.5692C233.574 27.5983 231.008 27.6624 228.441 27.6682L220.735 27.7031L221.021 27.4121L220.991 33.9247L220.735 33.6628C222.004 33.6628 223.267 33.6628 224.542 33.6977L228.377 33.7559L236.147 33.9247Z" fill="#EBEBEB"/>
<path d="M244.742 42.1366L237.107 42.2995L233.23 42.3636C231.938 42.3636 230.635 42.3636 229.337 42.3985H229.075V42.1366L229.046 35.624V35.333H229.337L237.043 35.3679C239.609 35.3679 242.176 35.4378 244.748 35.4669H244.905V35.624C244.905 36.7298 244.853 37.8298 244.83 38.9123L244.742 42.1366ZM244.742 42.1366L244.673 38.8483C244.644 37.7599 244.603 36.6891 244.591 35.624L244.754 35.7811C242.182 35.8102 239.615 35.8743 237.048 35.8801L229.343 35.915L229.634 35.624L229.599 42.1366L229.343 41.8747C230.611 41.8747 231.874 41.8747 233.149 41.9096L236.979 41.9736L244.742 42.1366Z" fill="#EBEBEB"/>
<path d="M17.9026 33.9305L10.2667 34.0935L6.3906 34.1575C5.09274 34.1866 3.78906 34.1575 2.4912 34.1924H2.23511V33.9305L2.2002 27.418V27.127H2.4912L10.1969 27.1677C12.7693 27.1677 15.3359 27.2317 17.9026 27.2608H18.0655V27.418C18.0655 28.5238 18.0131 29.6237 17.9899 30.7121L17.9026 33.9305ZM17.9026 33.9305L17.8211 30.6422C17.8211 29.5597 17.7571 28.483 17.7454 27.418L17.9026 27.5809C15.3359 27.5809 12.7693 27.6682 10.1969 27.674L2.4912 27.709L2.7822 27.418L2.7531 33.9305L2.4912 33.6745C3.75996 33.6745 5.02871 33.6745 6.3033 33.6745L10.127 33.7559L17.9026 33.9305Z" fill="#EBEBEB"/>
<path d="M229.331 185.373L236.967 185.21L240.843 185.146C242.141 185.117 243.445 185.146 244.743 185.111H244.999V185.373L245.034 191.885V192.176H244.743L237.037 192.136C234.465 192.136 231.898 192.072 229.331 192.042H229.168V191.885C229.168 190.78 229.221 189.68 229.25 188.591L229.331 185.373ZM229.331 185.373L229.413 188.661C229.413 189.744 229.477 190.82 229.489 191.885L229.331 191.722C231.898 191.693 234.465 191.635 237.037 191.629L244.743 191.594L244.452 191.885L244.481 185.373L244.743 185.629C243.474 185.629 242.205 185.629 240.931 185.6L237.101 185.536L229.331 185.373Z" fill="#EBEBEB"/>
<path d="M2.49089 185.373L10.1267 185.21L14.0028 185.146C15.2949 185.117 16.5986 185.146 17.8964 185.111H18.1583V185.373V191.885V192.176H17.8673L10.1616 192.136C7.59503 192.136 5.02841 192.072 2.45597 192.042H2.29883V191.885C2.29883 190.78 2.35121 189.68 2.37449 188.591L2.49089 185.373ZM2.49089 185.373L2.57237 188.661C2.57237 189.744 2.64221 190.82 2.65385 191.885L2.49089 191.722C5.06333 191.693 7.62995 191.635 10.1966 191.629L17.9022 191.594L17.6112 191.885L17.6462 185.373L17.9022 185.629C16.6335 185.629 15.3705 185.629 14.096 185.6L10.2664 185.536L2.49089 185.373Z" fill="#EBEBEB"/>
<path d="M11.0868 177.161L18.7285 176.998L22.6046 176.934C23.9025 176.905 25.2003 176.934 26.4982 176.899H26.7601V177.161V183.673V183.964H26.4633L18.7925 183.912C16.2259 183.912 13.6593 183.848 11.0868 183.819H10.9297V183.662C10.9297 182.556 10.9821 181.456 11.0053 180.368L11.0868 177.161ZM11.0868 177.161L11.1741 180.449C11.1741 181.532 11.2381 182.608 11.2498 183.673L11.0868 183.51C13.6593 183.481 16.2259 183.423 18.7925 183.417L26.4982 183.382L26.213 183.673V177.161L26.4691 177.417C25.2003 177.417 23.9374 177.417 22.6628 177.417L18.8565 177.324L11.0868 177.161Z" fill="#EBEBEB"/>
<path d="M224.268 44.3717V0" stroke="#C7C7C7" stroke-miterlimit="10"/>
<path d="M202.926 64.9452L204.643 68.7165H243.899L245.61 64.9452L228.895 53.375H219.641L202.926 64.9452Z" fill="#EBEBEB"/>
<path d="M218.477 42.23L219.641 53.3753H228.895L230.059 42.23H218.477Z" fill="#DBDBDB"/>
<path d="M202.926 64.9453L204.643 68.7225H243.899L245.61 64.9453H202.926Z" fill="#DBDBDB"/>
<path d="M178.441 32.2021V0" stroke="#C7C7C7" stroke-miterlimit="10"/>
<path d="M157.105 52.7699L158.822 56.5471H198.072L199.789 52.7699L183.074 41.2056H173.814L157.105 52.7699Z" fill="#EBEBEB"/>
<path d="M172.656 30.0601L173.814 41.2054H183.074L184.232 30.0601H172.656Z" fill="#DBDBDB"/>
<path d="M157.105 52.7759L158.822 56.5472H198.078L199.789 52.7759H157.105Z" fill="#DBDBDB"/>
<path d="M123.617 271.305C184.203 271.305 233.318 266.073 233.318 259.619C233.318 253.164 184.203 247.932 123.617 247.932C63.0309 247.932 13.916 253.164 13.916 259.619C13.916 266.073 63.0309 271.305 123.617 271.305Z" fill="#EBEBEB"/>
<path d="M1.37891 234.034L31.9397 233.894L62.5005 233.842L123.616 233.743L184.732 233.842L215.293 233.894L245.854 234.034L215.293 234.179L184.732 234.226L123.616 234.325L62.5005 234.226L31.9397 234.173L1.37891 234.034Z" fill="#263238"/>
<path d="M218.221 186.24C222.225 178.01 229.238 173.779 237.136 176.119C245.033 178.458 246.261 189.47 240.366 192.252C234.47 195.034 228.569 186.909 225.455 185.239C222.341 183.568 218.221 186.24 218.221 186.24Z" fill="#4D7A42"/>
<path d="M214.344 208.134C214.344 207.145 214.403 206.15 214.437 205.16L214.647 199.212C214.781 195.592 215.171 192.03 216.672 188.69C218.001 185.662 220.217 183.109 223.028 181.368C224.07 180.737 225.194 180.251 226.368 179.925C227.433 178.847 228.788 178.103 230.268 177.783C232.098 177.414 233.979 177.366 235.826 177.643C235.89 177.643 235.89 177.76 235.826 177.748C234.072 177.526 232.292 177.655 230.588 178.126C229.855 178.326 229.145 178.601 228.469 178.947C228.043 179.175 227.634 179.436 227.247 179.727C228.84 179.393 230.486 179.409 232.072 179.774C232.646 179.909 233.207 180.094 233.748 180.326C234.18 180.23 234.622 180.191 235.064 180.21C235.641 180.23 236.215 180.312 236.775 180.454C237.915 180.777 239.006 181.255 240.016 181.875C240.025 181.883 240.03 181.894 240.032 181.905C240.033 181.917 240.031 181.929 240.024 181.939C240.018 181.949 240.009 181.957 239.998 181.961C239.987 181.965 239.975 181.965 239.964 181.962C238.966 181.427 237.899 181.035 236.792 180.798C236.256 180.674 235.711 180.595 235.162 180.559C234.86 180.559 234.58 180.559 234.255 180.559C236.507 181.598 238.318 183.403 239.365 185.652C239.365 185.71 239.3 185.762 239.271 185.704C238.652 184.397 237.745 183.247 236.618 182.34C235.491 181.433 234.174 180.792 232.765 180.466C232.59 180.42 232.41 180.396 232.235 180.361C232.276 180.626 232.303 180.892 232.316 181.159C232.369 181.56 232.439 181.962 232.52 182.358C232.685 183.173 232.899 183.978 233.16 184.767C233.428 185.564 233.749 186.341 234.121 187.095C234.474 187.898 234.922 188.656 235.453 189.353C235.46 189.358 235.465 189.365 235.469 189.372C235.472 189.379 235.474 189.388 235.474 189.396C235.474 189.404 235.472 189.412 235.468 189.419C235.464 189.427 235.459 189.433 235.452 189.438C235.445 189.442 235.438 189.445 235.43 189.447C235.422 189.448 235.413 189.447 235.405 189.445C235.398 189.442 235.391 189.438 235.385 189.432C235.379 189.426 235.375 189.419 235.372 189.411C234.895 188.667 234.342 187.986 233.911 187.212C233.497 186.473 233.139 185.705 232.84 184.913C232.536 184.111 232.301 183.286 232.136 182.445C232.049 182.003 231.979 181.554 231.927 181.106C231.873 180.836 231.858 180.56 231.88 180.286C230.951 180.146 230.008 180.129 229.075 180.233C229.424 182.195 229.802 184.243 230.902 185.949C230.937 186.007 230.838 186.059 230.809 186.001C230.292 185.097 229.839 184.157 229.453 183.19C229.092 182.256 228.863 181.277 228.772 180.28C227.136 180.501 225.557 181.028 224.116 181.834C221.422 183.4 219.268 185.748 217.941 188.568C216.551 191.614 215.774 194.905 215.654 198.252C215.392 202.46 215.34 206.691 214.915 210.887C214.915 211.167 214.455 211.254 214.403 210.945C214.29 210.013 214.271 209.071 214.344 208.134Z" fill="#263238"/>
<path d="M223.598 180.705C223.866 180.388 224.173 180.106 224.512 179.867C224.838 179.591 225.178 179.333 225.531 179.093C226.224 178.616 226.994 178.259 227.806 178.04C227.817 178.043 227.825 178.05 227.832 178.059C227.838 178.068 227.841 178.078 227.841 178.089C227.841 178.1 227.838 178.111 227.832 178.119C227.825 178.128 227.817 178.135 227.806 178.138C226.989 178.347 226.223 178.723 225.56 179.244C225.228 179.489 224.902 179.751 224.594 180.024C224.316 180.317 224.008 180.578 223.674 180.804C223.662 180.805 223.65 180.802 223.639 180.797C223.627 180.792 223.618 180.784 223.61 180.774C223.603 180.765 223.598 180.753 223.596 180.741C223.594 180.729 223.595 180.717 223.598 180.705Z" fill="#263238"/>
<path d="M236.385 183.69C237.049 184.462 237.663 185.274 238.224 186.123C238.769 186.977 239.227 187.884 239.592 188.83C239.589 188.834 239.585 188.839 239.581 188.842C239.576 188.844 239.571 188.846 239.565 188.846C239.56 188.846 239.555 188.844 239.55 188.842C239.545 188.839 239.542 188.834 239.539 188.83C238.624 187.035 237.543 185.33 236.309 183.737C236.268 183.714 236.344 183.638 236.385 183.69Z" fill="#263238"/>
<path d="M227.795 182.876C227.881 183.39 228.034 183.891 228.249 184.366C228.469 184.825 228.723 185.267 229.011 185.687C229.016 185.693 229.018 185.701 229.017 185.708C229.015 185.716 229.011 185.723 229.005 185.728C228.999 185.732 228.991 185.734 228.984 185.733C228.976 185.732 228.969 185.728 228.964 185.722C228.275 184.925 227.834 183.944 227.696 182.899C227.655 182.835 227.754 182.812 227.795 182.876Z" fill="#263238"/>
<path d="M214.903 186.42C214.903 186.42 209.229 179.291 198.281 181.823C187.875 184.22 183.074 203.304 193.59 205.586C204.107 207.867 202.251 190.209 206.08 187.212C208.897 185.018 212.936 185.489 214.903 186.42Z" fill="#4D7A42"/>
<path d="M189.831 192.24C190.542 191.609 191.295 191.026 192.083 190.494C192.826 189.987 193.635 189.584 194.487 189.295C195.688 187.45 197.312 185.918 199.224 184.825C199.115 184.82 199.007 184.82 198.898 184.825C198.316 184.796 197.734 184.796 197.152 184.825C195.984 184.902 194.839 185.186 193.771 185.663C193.759 185.665 193.747 185.663 193.737 185.658C193.727 185.652 193.719 185.644 193.714 185.633C193.709 185.622 193.708 185.61 193.711 185.599C193.714 185.588 193.721 185.578 193.73 185.57C194.811 185.104 195.942 184.762 197.1 184.552C197.665 184.454 198.237 184.405 198.811 184.406C199.119 184.406 199.428 184.406 199.73 184.459H199.905C200.91 183.951 201.971 183.56 203.065 183.295L202.757 183.213C202.221 183.095 201.679 183.005 201.133 182.946C200.045 182.823 198.946 182.841 197.862 182.998C197.848 182.998 197.835 182.992 197.825 182.983C197.815 182.973 197.81 182.959 197.81 182.946C197.81 182.932 197.815 182.918 197.825 182.909C197.835 182.899 197.848 182.893 197.862 182.893C198.961 182.761 200.068 182.717 201.174 182.759C202.101 182.787 203.023 182.908 203.927 183.12C204.585 182.995 205.253 182.919 205.923 182.893C209.741 182.73 213.902 184.156 216.253 187.293C218.605 190.43 219.064 194.62 219.478 198.409C220.117 203.688 220.258 209.016 219.897 214.321C219.897 214.635 219.431 214.577 219.425 214.28C219.28 209.782 219.123 205.283 218.692 200.801C218.494 198.724 218.267 196.64 217.924 194.586C217.673 192.814 217.165 191.089 216.416 189.464C215.604 187.803 214.318 186.42 212.721 185.489C211.115 184.572 209.326 184.023 207.483 183.883C205.831 183.746 204.168 183.901 202.571 184.342C202.627 184.661 202.637 184.987 202.6 185.308C202.565 185.716 202.483 186.119 202.355 186.507C202.237 186.874 202.085 187.228 201.901 187.567C201.698 187.945 201.441 188.277 201.214 188.638C201.18 188.696 201.086 188.638 201.133 188.579C201.58 187.935 201.871 187.196 201.983 186.42C202.049 186.051 202.091 185.677 202.111 185.303C202.111 185.023 202.111 184.721 202.111 184.459C200.373 184.992 198.75 185.847 197.327 186.979C197.065 187.194 196.809 187.421 196.553 187.654C196.915 187.986 197.229 188.368 197.484 188.789C197.859 189.341 198.184 189.925 198.456 190.535C198.964 191.754 199.304 193.036 199.468 194.347C199.468 194.411 199.375 194.428 199.364 194.347C199.163 193.08 198.742 191.859 198.118 190.739C197.831 190.183 197.508 189.646 197.152 189.132C196.966 188.87 196.774 188.608 196.57 188.358C196.46 188.224 196.343 188.085 196.244 187.939C194.955 189.198 193.903 190.679 193.136 192.31C193.655 192.854 194.087 193.474 194.417 194.149C194.81 194.855 195.152 195.588 195.441 196.343C195.973 197.801 196.411 199.292 196.751 200.807C196.751 200.871 196.657 200.894 196.646 200.807C196.312 199.284 195.79 197.808 195.092 196.413C194.766 195.726 194.423 195.051 194.056 194.382C193.679 193.763 193.337 193.124 193.032 192.467C192.301 194.066 191.877 195.787 191.78 197.542C191.78 197.556 191.775 197.569 191.765 197.579C191.755 197.589 191.742 197.594 191.728 197.594C191.714 197.594 191.701 197.589 191.691 197.579C191.681 197.569 191.676 197.556 191.676 197.542C191.879 194.793 192.72 192.129 194.132 189.761C193.462 190.046 192.793 190.343 192.147 190.669C191.324 191.104 190.559 191.642 189.871 192.269C189.848 192.368 189.778 192.287 189.831 192.24Z" fill="#263238"/>
<path d="M190.919 189.965C191.349 189.548 191.84 189.199 192.374 188.929C192.914 188.685 193.475 188.49 194.05 188.347C194.114 188.347 194.137 188.434 194.05 188.446C193.485 188.595 192.943 188.82 192.438 189.115C191.919 189.381 191.421 189.687 190.948 190.029C190.931 190.04 190.89 189.994 190.919 189.965Z" fill="#263238"/>
<path d="M209.514 176.928C209.514 176.928 208.466 164.124 198.945 159.974C190.995 156.482 186.443 165.439 192.065 170.91C196.611 175.304 203.897 173.308 209.514 176.928Z" fill="#4D7A42"/>
<path d="M193.823 162.424C195.273 163.01 196.687 163.678 198.06 164.426C199.198 165.085 200.295 165.814 201.343 166.609C201.186 166.289 201.052 165.945 200.889 165.631C200.644 165.135 200.374 164.651 200.08 164.182C199.493 163.215 198.789 162.323 197.985 161.528C197.938 161.482 198.014 161.412 198.06 161.458C198.863 162.253 199.601 163.111 200.266 164.025C200.595 164.491 200.898 164.975 201.174 165.474C201.453 165.936 201.669 166.433 201.814 166.952L201.919 167.028C203.581 168.352 205.104 169.842 206.464 171.474C206.435 171.352 206.412 171.224 206.377 171.108C206.202 170.485 206.01 169.868 205.795 169.251C205.387 167.937 204.81 166.681 204.078 165.515C204.037 165.457 204.13 165.404 204.165 165.462C204.915 166.629 205.582 167.846 206.162 169.106C206.424 169.72 206.644 170.352 206.819 170.997C206.955 171.417 207.059 171.847 207.128 172.283C207.541 172.807 207.948 173.343 208.333 173.89C212.407 179.71 214.473 186.746 214.967 193.788C215.11 195.888 215.145 197.994 215.072 200.097C215.05 202.218 214.856 204.334 214.49 206.424C214.49 206.557 214.257 206.517 214.263 206.389C214.31 204.538 214.502 202.699 214.537 200.842C214.57 198.988 214.509 197.133 214.356 195.284C214.058 191.588 213.361 187.935 212.278 184.389C211.173 180.756 209.542 177.305 207.436 174.146C207.04 174.064 206.639 173.954 206.243 173.855C205.847 173.756 205.294 173.61 204.823 173.477C203.915 173.24 203.031 172.914 202.187 172.505C202.123 172.505 202.187 172.382 202.239 172.417C203.08 172.873 203.99 173.186 204.934 173.343C205.679 173.494 206.453 173.587 207.198 173.762C206.508 172.755 205.768 171.783 204.98 170.852C203.166 171.016 201.337 170.879 199.568 170.444C198.623 170.222 197.696 169.934 196.791 169.583C195.843 169.216 194.935 168.745 193.998 168.349C193.928 168.32 193.998 168.215 194.039 168.256C195.745 169.185 197.607 169.794 199.533 170.054C201.231 170.324 202.947 170.466 204.666 170.479C203.991 169.699 203.292 168.943 202.547 168.233C200.045 165.852 197.077 163.664 193.783 162.523C193.73 162.5 193.765 162.378 193.823 162.424Z" fill="#263238"/>
<path d="M201.57 162.465C201.997 163.006 202.386 163.576 202.734 164.171C203.087 164.799 203.368 165.464 203.572 166.155C203.572 166.155 203.543 166.196 203.531 166.155C203.217 165.527 202.949 164.875 202.629 164.252C202.308 163.628 201.918 163.042 201.465 162.506C201.453 162.483 201.529 162.413 201.57 162.465Z" fill="#263238"/>
<path d="M192.717 166.725C193.337 167.07 193.993 167.343 194.673 167.54C195.324 167.756 195.986 167.935 196.658 168.076C196.692 168.076 196.658 168.134 196.658 168.134C195.957 168.056 195.266 167.904 194.597 167.68C193.939 167.431 193.295 167.143 192.671 166.819C192.66 166.812 192.652 166.801 192.649 166.788C192.645 166.776 192.647 166.763 192.652 166.751C192.658 166.74 192.668 166.731 192.68 166.726C192.692 166.721 192.705 166.721 192.717 166.725Z" fill="#263238"/>
<path d="M216.911 174.6C216.975 175.153 218.355 169.944 226.404 165.334C233.714 161.138 242.438 150.231 235.273 143.335C229.488 137.765 214.24 149.894 216.911 174.6Z" fill="#4D7A42"/>
<path d="M211.37 204.427C211.488 199.01 211.916 193.604 212.651 188.236C213.286 183.304 214.425 178.45 216.05 173.75C216.632 172.056 217.336 170.392 218.075 168.751C218.034 168.112 218.046 167.472 218.11 166.836C218.151 166.015 218.221 165.2 218.296 164.38C218.372 163.559 218.453 162.744 218.552 161.929C218.651 161.115 218.826 160.306 218.855 159.491C218.855 159.477 218.86 159.464 218.87 159.454C218.88 159.444 218.893 159.439 218.907 159.439C218.921 159.439 218.935 159.444 218.944 159.454C218.954 159.464 218.96 159.477 218.96 159.491C218.798 160.346 218.701 161.211 218.669 162.081C218.611 162.872 218.564 163.658 218.541 164.45C218.517 165.241 218.541 166.038 218.541 166.83C218.541 167.115 218.541 167.412 218.57 167.72C219.326 166.126 220.135 164.548 221.014 163.012C220.473 159.677 221.177 156.185 221.858 152.926C221.858 152.856 221.974 152.891 221.957 152.926C221.624 154.631 221.446 156.363 221.427 158.1C221.427 159.468 221.462 160.841 221.468 162.209C221.66 161.883 221.852 161.551 222.05 161.225C223.098 159.526 224.209 157.855 225.397 156.232C225.302 155.441 225.328 154.64 225.472 153.857C225.605 152.977 225.799 152.108 226.054 151.256C226.316 150.4 226.607 149.568 226.951 148.741C227.294 147.915 227.76 147.094 228.115 146.245C228.115 146.175 228.248 146.245 228.208 146.285C227.782 147.089 227.445 147.935 227.201 148.811C226.935 149.635 226.716 150.472 226.543 151.32C226.374 152.163 226.235 153.013 226.113 153.869C226.037 154.451 225.984 155.033 225.886 155.615C227.609 153.298 229.493 151.107 231.525 149.056C231.572 149.003 231.642 149.056 231.595 149.131C228.526 152.579 225.787 156.307 223.412 160.265C223.325 160.41 223.243 160.562 223.156 160.713C223.598 160.434 224.105 160.213 224.524 159.98C225.3 159.549 226.076 159.12 226.852 158.694L229.133 157.442C229.523 157.227 229.907 157 230.297 156.796C230.771 156.584 231.227 156.333 231.659 156.045C231.723 155.999 231.787 156.092 231.723 156.127C230.943 156.552 230.262 157.186 229.511 157.663C228.761 158.141 227.998 158.606 227.212 159.043C225.781 159.84 224.227 160.41 222.818 161.237C221.841 162.948 220.944 164.729 220.112 166.475C220.97 165.928 221.841 165.406 222.725 164.909C223.307 164.589 223.889 164.275 224.471 163.972C225.045 163.705 225.588 163.375 226.089 162.989C226.142 162.948 226.211 163.018 226.165 163.064C225.226 163.908 224.186 164.631 223.069 165.218C222.039 165.8 220.991 166.382 219.914 166.964C219.053 168.849 218.277 170.77 217.586 172.726C214.199 182.317 212.93 192.514 212.348 202.617C212.168 205.638 212.08 208.647 212.04 211.667C211.999 214.688 212.162 217.697 212.156 220.711C212.156 220.799 212.011 220.822 211.999 220.711C211.632 218.04 211.574 215.316 211.452 212.627C211.33 209.939 211.312 207.192 211.37 204.427Z" fill="#263238"/>
<path d="M225.996 160.987C227.467 160.339 228.896 159.601 230.274 158.775C231.677 157.99 233.037 157.129 234.348 156.197C234.348 156.197 234.395 156.197 234.377 156.238C233.141 157.234 231.838 158.144 230.478 158.961C229.051 159.759 227.576 160.467 226.06 161.08C225.985 161.109 225.938 161.016 225.996 160.987Z" fill="#263238"/>
<path d="M223.662 150.156C223.785 149.69 223.93 149.231 224.087 148.771C224.081 148.763 224.078 148.754 224.078 148.745C224.078 148.735 224.081 148.726 224.087 148.718C224.186 148.457 224.297 148.2 224.402 147.944C224.411 147.913 224.423 147.882 224.436 147.851C224.436 147.799 224.477 147.752 224.5 147.706C224.524 147.659 224.53 147.706 224.5 147.706C224.471 147.706 224.454 147.886 224.425 147.973C224.396 148.061 224.425 148.067 224.378 148.119C223.85 149.91 223.451 151.736 223.185 153.584C223.185 153.642 223.086 153.648 223.092 153.584C223.174 152.426 223.365 151.278 223.662 150.156Z" fill="#263238"/>
<path d="M202.868 206.371L203.438 213.181L205.201 233.946H224.035L225.793 213.181L226.369 206.371H202.868Z" fill="#455A64"/>
<path d="M202.868 206.371L203.438 213.181H225.793L226.369 206.371H202.868Z" fill="#263238"/>
<path d="M201.022 210.172H228.219V203.642H201.022V210.172Z" fill="#455A64"/>
<path d="M170.975 37.5679H76.0097C74.7358 37.5793 73.4768 37.8416 72.3043 38.3398C71.1319 38.838 70.0692 39.5624 69.1769 40.4715C68.2845 41.3806 67.58 42.4566 67.1037 43.6381C66.6274 44.8195 66.3886 46.0833 66.4008 47.3571V242.845C66.3791 245.416 67.3789 247.891 69.1806 249.725C70.9823 251.56 73.4385 252.604 76.0097 252.629H170.975C173.546 252.604 176.003 251.56 177.806 249.726C179.608 247.891 180.609 245.417 180.589 242.845V47.3571C180.601 46.083 180.361 44.8191 179.884 43.6376C179.407 42.4561 178.702 41.3801 177.809 40.4711C176.917 39.5621 175.854 38.8378 174.681 38.3397C173.508 37.8415 172.249 37.5793 170.975 37.5679ZM174.577 236.798C174.577 241.943 170.724 246.11 165.975 246.11H81.0032C76.2425 246.11 72.3896 241.943 72.3896 236.798V54.766C72.3896 44.29 76.2425 43.772 81.0032 43.772H98.0267C99.0161 43.772 99.8251 44.8952 99.8251 46.2862V46.8682C99.8251 50.1274 101.612 50.1391 103.8 50.1391H143.155C145.367 50.1391 147.142 50.1391 147.142 46.8682V46.2862C147.142 44.8952 147.939 43.772 148.946 43.772H165.964C170.713 43.772 174.566 45.163 174.566 54.766L174.577 236.798Z" fill="#263238"/>
<path d="M174.583 54.766V236.798C174.583 241.943 170.73 246.11 165.981 246.11H81.0091C76.2483 246.11 72.3955 241.943 72.3955 236.798V54.766C72.3955 44.29 76.2483 43.772 81.0091 43.772H98.0326C99.022 43.772 99.831 44.8952 99.831 46.2862V46.8682C99.831 50.1274 101.618 50.1391 103.806 50.1391H143.173C145.384 50.1391 147.159 50.1391 147.159 46.8682V46.2862C147.159 44.8952 147.957 43.772 148.963 43.772H165.981C170.759 43.772 174.583 45.163 174.583 54.766Z" fill="white"/>
<path d="M174.583 54.766V71.2831H72.4014V54.766C72.4014 44.29 76.2542 43.772 81.015 43.772H98.0385C99.0279 43.772 99.8368 44.8952 99.8368 46.292V46.874C99.8368 50.1391 101.624 50.1507 103.812 50.1507H143.173C145.384 50.1507 147.159 50.1507 147.159 46.874V46.292C147.159 44.8952 147.957 43.772 148.963 43.772H165.981C170.759 43.772 174.583 45.1688 174.583 54.766Z" fill="#4D7A42"/>
<path d="M128.855 45.9256H118.123C117.949 45.9241 117.783 45.8543 117.66 45.7313C117.537 45.6083 117.467 45.4419 117.465 45.268C117.465 45.093 117.534 44.9251 117.658 44.8009C117.781 44.6766 117.948 44.606 118.123 44.6045H128.855C129.031 44.6045 129.2 44.6744 129.324 44.7988C129.449 44.9232 129.519 45.092 129.519 45.268C129.517 45.4429 129.446 45.6102 129.322 45.7334C129.198 45.8565 129.03 45.9256 128.855 45.9256Z" fill="white"/>
<path d="M95.0991 47.7239L94.9362 47.8869L94.8431 47.98C94.6349 47.7715 94.3877 47.606 94.1156 47.4932C93.8435 47.3803 93.5517 47.3222 93.2571 47.3222C92.9625 47.3222 92.6708 47.3803 92.3986 47.4932C92.1265 47.606 91.8793 47.7715 91.6712 47.98L91.5839 47.8927L91.4209 47.7239L91.6304 47.5377C91.7776 47.4176 91.9377 47.3141 92.1077 47.2292C92.3106 47.1309 92.526 47.0604 92.7479 47.0197C92.8526 47.0197 92.9574 47.0197 93.068 46.9731H93.3531H93.5685C93.7674 46.9962 93.9628 47.0431 94.1505 47.1128C94.2871 47.1643 94.4195 47.2266 94.5462 47.2991C94.6803 47.3742 94.807 47.4619 94.9245 47.561L95.0991 47.7181V47.7239Z" fill="white"/>
<path d="M92.1891 48.4748L91.9272 48.2187C92.1004 48.0436 92.3066 47.9046 92.5339 47.8097C92.7612 47.7149 93.005 47.666 93.2513 47.666C93.4976 47.666 93.7414 47.7149 93.9687 47.8097C94.196 47.9046 94.4022 48.0436 94.5753 48.2187L94.3134 48.4806C94.1744 48.3403 94.0089 48.229 93.8266 48.153C93.6443 48.0771 93.4488 48.038 93.2513 48.038C93.0538 48.038 92.8583 48.0771 92.676 48.153C92.4937 48.229 92.3282 48.3403 92.1891 48.4806V48.4748Z" fill="white"/>
<path d="M94.0575 48.7307L93.8014 48.9926C93.73 48.921 93.6452 48.8641 93.5519 48.8254C93.4585 48.7866 93.3584 48.7666 93.2572 48.7666C93.1561 48.7666 93.056 48.7866 92.9626 48.8254C92.8693 48.8641 92.7844 48.921 92.7131 48.9926L92.4512 48.7365C92.6669 48.5294 92.9541 48.4132 93.2532 48.4121C93.5523 48.411 93.8403 48.5251 94.0575 48.7307Z" fill="white"/>
<path d="M93.4928 49.2255C93.494 49.273 93.4809 49.3197 93.4554 49.3597C93.4299 49.3997 93.3931 49.4312 93.3496 49.4501C93.3061 49.4691 93.258 49.4746 93.2113 49.4661C93.1646 49.4576 93.1216 49.4353 93.0876 49.4022C93.0537 49.369 93.0303 49.3265 93.0207 49.2801C93.011 49.2337 93.0153 49.1854 93.0332 49.1415C93.0511 49.0975 93.0817 49.0599 93.121 49.0334C93.1604 49.0069 93.2067 48.9928 93.2542 48.9927C93.2852 48.992 93.3161 48.9974 93.3451 49.0088C93.374 49.0201 93.4003 49.0371 93.4226 49.0588C93.4448 49.0805 93.4625 49.1065 93.4745 49.1351C93.4866 49.1637 93.4928 49.1945 93.4928 49.2255Z" fill="white"/>
<path d="M79.0647 48.1952C79.067 48.0607 79.109 47.93 79.1855 47.8195C79.2619 47.7089 79.3694 47.6235 79.4944 47.5739C79.6193 47.5243 79.7561 47.5128 79.8876 47.5409C80.0191 47.5689 80.1393 47.6352 80.2331 47.7315C80.327 47.8278 80.3902 47.9496 80.4149 48.0818C80.4396 48.2139 80.4246 48.3504 80.3718 48.474C80.3191 48.5977 80.2309 48.7029 80.1184 48.7766C80.006 48.8502 79.8742 48.8889 79.7398 48.8877C79.6497 48.8878 79.5604 48.8697 79.4773 48.8347C79.3943 48.7997 79.3191 48.7484 79.2561 48.6839C79.1932 48.6193 79.1439 48.5428 79.111 48.4589C79.0781 48.3749 79.0623 48.2853 79.0647 48.1952Z" fill="white"/>
<path d="M81.2009 48.1953C81.2043 48.0625 81.2468 47.9338 81.3231 47.8251C81.3993 47.7164 81.5059 47.6325 81.6295 47.5841C81.7532 47.5357 81.8883 47.5248 82.0181 47.5528C82.1479 47.5808 82.2666 47.6464 82.3592 47.7415C82.4519 47.8365 82.5145 47.9568 82.5392 48.0873C82.5638 48.2178 82.5495 48.3526 82.4979 48.4749C82.4463 48.5973 82.3598 48.7017 82.2492 48.7752C82.1386 48.8486 82.0088 48.8878 81.876 48.8878C81.7859 48.8879 81.6966 48.8698 81.6136 48.8348C81.5305 48.7998 81.4553 48.7485 81.3924 48.684C81.3294 48.6194 81.2801 48.5429 81.2472 48.459C81.2143 48.375 81.1986 48.2854 81.2009 48.1953Z" fill="white"/>
<path d="M83.3313 48.1952C83.3336 48.0607 83.3756 47.93 83.4521 47.8195C83.5285 47.7089 83.636 47.6235 83.761 47.5739C83.8859 47.5243 84.0227 47.5128 84.1542 47.5409C84.2857 47.5689 84.4059 47.6352 84.4997 47.7315C84.5936 47.8278 84.6568 47.9496 84.6815 48.0818C84.7062 48.2139 84.6912 48.3504 84.6384 48.474C84.5857 48.5977 84.4975 48.7029 84.385 48.7766C84.2726 48.8502 84.1408 48.8889 84.0064 48.8877C83.9163 48.8878 83.827 48.8697 83.7439 48.8347C83.6609 48.7997 83.5857 48.7484 83.5227 48.6839C83.4598 48.6193 83.4105 48.5428 83.3776 48.4589C83.3447 48.3749 83.3289 48.2853 83.3313 48.1952Z" fill="white"/>
<path d="M85.4615 48.1952C85.4638 48.061 85.5057 47.9305 85.5819 47.8201C85.6581 47.7097 85.7652 47.6242 85.8898 47.5744C86.0145 47.5247 86.151 47.5128 86.2823 47.5404C86.4136 47.568 86.5339 47.6337 86.6279 47.7294C86.722 47.8251 86.7857 47.9464 86.8111 48.0782C86.8364 48.21 86.8222 48.3463 86.7704 48.47C86.7185 48.5938 86.6312 48.6994 86.5195 48.7738C86.4078 48.8481 86.2766 48.8877 86.1425 48.8878C86.0521 48.8878 85.9625 48.8698 85.8792 48.8348C85.7958 48.7999 85.7202 48.7487 85.6568 48.6842C85.5934 48.6198 85.5435 48.5433 85.51 48.4593C85.4765 48.3754 85.46 48.2856 85.4615 48.1952Z" fill="white"/>
<path d="M87.5974 48.1952C87.5997 48.0607 87.6417 47.93 87.7182 47.8195C87.7947 47.7089 87.9021 47.6235 88.0271 47.5739C88.152 47.5243 88.2889 47.5128 88.4203 47.5409C88.5518 47.5689 88.672 47.6352 88.7658 47.7315C88.8597 47.8278 88.9229 47.9496 88.9476 48.0818C88.9723 48.2139 88.9573 48.3504 88.9045 48.474C88.8518 48.5977 88.7636 48.7029 88.6511 48.7766C88.5387 48.8502 88.4069 48.8889 88.2725 48.8877C88.1824 48.8878 88.0931 48.8697 88.0101 48.8347C87.927 48.7997 87.8518 48.7484 87.7889 48.6839C87.7259 48.6193 87.6766 48.5428 87.6437 48.4589C87.6108 48.3749 87.5951 48.2853 87.5974 48.1952Z" fill="white"/>
<path d="M166.918 49.6733H161.407V47.1416H166.918V49.6733ZM161.68 49.3939H166.627V47.4035H161.68V49.3939Z" fill="white"/>
<path d="M165.416 47.5552H161.86V49.243H165.416V47.5552Z" fill="white"/>
<path d="M167.407 47.7178H166.918V49.0855H167.407V47.7178Z" fill="white"/>
<path d="M82.086 64.9627L79.0654 62.1342L82.086 59.3057L82.5516 59.8062L80.0665 62.1342L82.5516 64.468L82.086 64.9627Z" fill="white"/>
<path d="M165.318 65.1839H163.281V64.4797C163.28 64.4499 163.272 64.4207 163.257 64.3952C163.241 64.3696 163.219 64.3486 163.193 64.3342C163.115 64.2962 163.039 64.2535 162.966 64.2062C162.94 64.1908 162.91 64.1828 162.879 64.1828C162.848 64.1828 162.818 64.1908 162.792 64.2062L162.181 64.5612L161.162 62.8152L161.779 62.466C161.804 62.4479 161.823 62.4242 161.836 62.3968C161.85 62.3694 161.856 62.3392 161.855 62.3088C161.855 62.2681 161.855 62.2273 161.855 62.1808C161.855 62.1342 161.855 62.0993 161.855 62.0528C161.856 62.0232 161.85 61.9938 161.836 61.9673C161.823 61.9408 161.803 61.9182 161.779 61.9014L161.162 61.5464L162.181 59.8004L162.792 60.1554C162.818 60.1713 162.848 60.1798 162.879 60.1798C162.91 60.1798 162.94 60.1713 162.966 60.1554C163.037 60.0802 163.113 60.0101 163.193 59.9459C163.219 59.9325 163.241 59.9125 163.256 59.8879C163.271 59.8634 163.28 59.8352 163.281 59.8062V59.0962H165.318V59.8062C165.318 59.8352 165.327 59.8634 165.342 59.8879C165.358 59.9125 165.379 59.9325 165.405 59.9459C165.483 59.9858 165.559 60.0305 165.632 60.0798C165.658 60.0957 165.688 60.1041 165.719 60.1041C165.75 60.1041 165.78 60.0957 165.806 60.0798L166.418 59.7248L167.436 61.4708L166.819 61.8258C166.793 61.8406 166.772 61.8629 166.758 61.8899C166.745 61.9168 166.74 61.9472 166.743 61.9771V62.2739C166.74 62.3038 166.745 62.3342 166.758 62.3611C166.772 62.3881 166.793 62.4104 166.819 62.4252L167.436 62.7803L166.418 64.5263L165.801 64.1712C165.775 64.1558 165.746 64.1477 165.716 64.1477C165.686 64.1477 165.657 64.1558 165.632 64.1712C165.559 64.2186 165.483 64.2613 165.405 64.2993C165.378 64.3132 165.356 64.3341 165.341 64.3598C165.325 64.3854 165.317 64.4148 165.318 64.4448V65.1839ZM163.717 64.7474H164.881V64.4797C164.879 64.3686 164.908 64.2592 164.966 64.1643C165.024 64.0695 165.107 63.9931 165.207 63.9443C165.272 63.9151 165.335 63.88 165.393 63.8395C165.487 63.7793 165.596 63.7473 165.708 63.7473C165.819 63.7473 165.928 63.7793 166.022 63.8395L166.255 63.9792L166.837 62.9723L166.598 62.8326C166.497 62.7756 166.415 62.6898 166.364 62.5861C166.312 62.4824 166.292 62.3656 166.307 62.2506V62.0411C166.293 61.9255 166.313 61.8083 166.366 61.7045C166.419 61.6008 166.502 61.5153 166.604 61.4591L166.837 61.3253L166.255 60.3184L166.022 60.4523C165.929 60.5112 165.821 60.5425 165.71 60.5425C165.6 60.5425 165.492 60.5112 165.399 60.4523L165.207 60.3417C165.108 60.2932 165.025 60.2178 164.967 60.124C164.91 60.0303 164.88 59.9221 164.881 59.812V59.5385H163.717V59.812C163.718 59.9227 163.687 60.0314 163.628 60.1252C163.57 60.219 163.485 60.2941 163.385 60.3417L163.199 60.4523C163.106 60.5112 162.998 60.5425 162.888 60.5425C162.777 60.5425 162.67 60.5112 162.576 60.4523L162.338 60.3184L161.756 61.3253L161.989 61.4591C162.091 61.5153 162.173 61.6008 162.226 61.7045C162.279 61.8083 162.3 61.9255 162.285 62.0411V62.2739C162.3 62.3895 162.279 62.5067 162.226 62.6105C162.173 62.7142 162.091 62.7997 161.989 62.8559L161.756 62.9898L162.338 63.9966L162.576 63.857C162.67 63.7968 162.779 63.7648 162.891 63.7648C163.002 63.7648 163.111 63.7968 163.205 63.857C163.264 63.8975 163.326 63.9326 163.391 63.9617C163.491 64.0106 163.575 64.0869 163.632 64.1818C163.69 64.2767 163.72 64.3861 163.717 64.4972V64.7474ZM164.299 63.6824C163.996 63.6835 163.7 63.5947 163.447 63.4272C163.195 63.2597 162.998 63.0211 162.881 62.7415C162.764 62.4619 162.733 62.154 162.791 61.8567C162.85 61.5594 162.995 61.2861 163.209 61.0714C163.423 60.8568 163.695 60.7104 163.993 60.6509C164.29 60.5913 164.598 60.6213 164.878 60.737C165.158 60.8527 165.397 61.0489 165.566 61.3007C165.734 61.5525 165.824 61.8487 165.824 62.1517C165.821 62.5541 165.659 62.939 165.373 63.2224C165.088 63.5059 164.701 63.6649 164.299 63.6649V63.6824ZM164.299 61.0633C164.082 61.0622 163.87 61.1255 163.689 61.2453C163.508 61.3651 163.367 61.5359 163.284 61.7361C163.2 61.9363 163.178 62.1567 163.22 62.3695C163.262 62.5823 163.366 62.7778 163.52 62.9312C163.673 63.0846 163.868 63.1889 164.081 63.2309C164.294 63.2729 164.515 63.2508 164.715 63.1673C164.915 63.0837 165.086 62.9426 165.205 62.7618C165.325 62.5809 165.389 62.3686 165.387 62.1517C165.39 62.0073 165.363 61.8639 165.31 61.7298C165.256 61.5958 165.176 61.4737 165.075 61.3708C164.974 61.2679 164.853 61.1862 164.72 61.1304C164.586 61.0746 164.443 61.0459 164.299 61.0459V61.0633Z" fill="white"/>
<path d="M114.701 60.429C114.7 60.3852 114.708 60.3417 114.725 60.3011C114.741 60.2605 114.766 60.2236 114.797 60.1926C114.828 60.1617 114.864 60.1373 114.905 60.1209C114.946 60.1045 114.989 60.0964 115.033 60.0972C115.121 60.0972 115.206 60.132 115.27 60.194C115.333 60.2561 115.369 60.3404 115.371 60.429V63.9617C115.369 64.0502 115.333 64.1346 115.27 64.1966C115.206 64.2587 115.121 64.2935 115.033 64.2934C114.989 64.2942 114.946 64.2862 114.905 64.2698C114.864 64.2534 114.828 64.229 114.797 64.198C114.766 64.1671 114.741 64.1302 114.725 64.0896C114.708 64.049 114.7 64.0055 114.701 63.9617V60.429Z" fill="white"/>
<path d="M117.151 63.9618C117.158 64.0086 117.154 64.0563 117.14 64.1015C117.126 64.1468 117.103 64.1886 117.072 64.2241C117.041 64.2597 117.003 64.2882 116.959 64.3077C116.916 64.3272 116.87 64.3373 116.822 64.3373C116.775 64.3373 116.728 64.3272 116.685 64.3077C116.642 64.2882 116.604 64.2597 116.573 64.2241C116.542 64.1886 116.519 64.1468 116.505 64.1015C116.491 64.0563 116.487 64.0086 116.494 63.9618V60.4698C116.492 60.4168 116.504 60.3643 116.527 60.3167C116.551 60.2691 116.585 60.2278 116.627 60.1962C116.697 60.1456 116.784 60.1245 116.869 60.1376C116.954 60.1507 117.03 60.1968 117.081 60.2661L119.02 62.9433V60.4756C119.02 60.4335 119.028 60.3919 119.044 60.3531C119.06 60.3142 119.084 60.279 119.113 60.2492C119.143 60.2195 119.178 60.1959 119.217 60.1798C119.256 60.1638 119.298 60.1555 119.34 60.1555C119.426 60.1554 119.508 60.1888 119.57 60.2485C119.632 60.3082 119.668 60.3896 119.671 60.4756V63.9676C119.67 64.0551 119.634 64.1386 119.573 64.2005C119.511 64.2624 119.427 64.2978 119.34 64.2993C119.292 64.2987 119.246 64.2873 119.203 64.2662C119.161 64.245 119.124 64.2146 119.095 64.1771V64.1422L117.18 61.4824L117.151 63.9618Z" fill="white"/>
<path d="M121.109 63.9616V60.4289C121.109 60.3409 121.144 60.2565 121.206 60.1943C121.268 60.1321 121.353 60.0972 121.441 60.0972H122.29C122.498 60.1054 122.7 60.1692 122.875 60.282C123.05 60.3948 123.191 60.5524 123.285 60.7384C123.378 60.9244 123.42 61.132 123.406 61.3396C123.391 61.5472 123.322 61.7472 123.204 61.9188C123.44 62.0673 123.621 62.2882 123.72 62.5484C123.82 62.8086 123.832 63.094 123.755 63.3617C123.678 63.6295 123.517 63.865 123.294 64.033C123.072 64.201 122.802 64.2924 122.523 64.2934H121.464C121.419 64.2957 121.373 64.2889 121.331 64.2734C121.288 64.2579 121.249 64.2339 121.216 64.2029C121.183 64.172 121.156 64.1346 121.138 64.0932C121.119 64.0517 121.11 64.007 121.109 63.9616ZM121.778 61.7209H122.29C122.417 61.7194 122.539 61.6678 122.628 61.5774C122.718 61.487 122.768 61.365 122.768 61.2379C122.768 61.1113 122.717 60.9899 122.628 60.9004C122.538 60.8109 122.417 60.7606 122.29 60.7606H121.778V61.7209ZM121.778 63.6299H122.523C122.688 63.6299 122.847 63.5643 122.963 63.4475C123.08 63.3307 123.146 63.1723 123.146 63.0072C123.146 62.842 123.08 62.6836 122.963 62.5668C122.847 62.45 122.688 62.3844 122.523 62.3844H121.778V63.6299Z" fill="white"/>
<path d="M127.977 60.6207C128.366 61.0296 128.582 61.5724 128.582 62.1368C128.582 62.7012 128.366 63.2439 127.977 63.6529C127.795 63.8529 127.574 64.0131 127.328 64.1233C127.082 64.2335 126.815 64.2913 126.545 64.2931C126.27 64.2916 125.998 64.2341 125.746 64.124C125.494 64.0139 125.266 63.8536 125.078 63.6529C124.697 63.24 124.485 62.6987 124.485 62.1368C124.485 61.5748 124.697 61.0335 125.078 60.6207C125.266 60.4188 125.492 60.2578 125.745 60.1477C125.997 60.0375 126.27 59.9806 126.545 59.9805C126.815 59.9808 127.082 60.038 127.329 60.1483C127.576 60.2586 127.796 60.4195 127.977 60.6207ZM127.901 62.1339C127.901 61.7461 127.755 61.3724 127.494 61.0863C127.372 60.9526 127.225 60.8458 127.06 60.7727C126.895 60.6996 126.717 60.6619 126.536 60.6619C126.356 60.6619 126.177 60.6996 126.013 60.7727C125.848 60.8458 125.7 60.9526 125.579 61.0863C125.312 61.3696 125.166 61.7451 125.171 62.1339C125.165 62.5212 125.311 62.8955 125.579 63.1757C125.699 63.3109 125.846 63.4192 126.011 63.4934C126.176 63.5675 126.355 63.6059 126.536 63.6059C126.717 63.6059 126.896 63.5675 127.061 63.4934C127.226 63.4192 127.373 63.3109 127.494 63.1757C127.756 62.8925 127.902 62.5202 127.901 62.1339Z" fill="white"/>
<path d="M132.47 60.6675L131.306 62.2156L132.47 63.7695C132.519 63.8396 132.539 63.926 132.526 64.0106C132.513 64.0952 132.468 64.1715 132.4 64.2235C132.345 64.2668 132.278 64.2913 132.208 64.2933C132.154 64.2929 132.102 64.28 132.054 64.2558C132.007 64.2316 131.966 64.1966 131.934 64.1537L130.927 62.7685L129.915 64.1537C129.885 64.196 129.846 64.2308 129.801 64.2551C129.755 64.2793 129.704 64.2925 129.653 64.2933C129.582 64.2941 129.514 64.2692 129.461 64.2235C129.425 64.1991 129.395 64.1679 129.372 64.1317C129.349 64.0954 129.334 64.0549 129.327 64.0126C129.32 63.9702 129.321 63.9269 129.331 63.8851C129.341 63.8434 129.36 63.8041 129.385 63.7695L130.52 62.2156L129.385 60.6675C129.36 60.633 129.341 60.5937 129.331 60.5519C129.321 60.5102 129.32 60.4668 129.327 60.4245C129.334 60.3821 129.349 60.3416 129.372 60.3054C129.395 60.2691 129.425 60.2379 129.461 60.2135C129.494 60.1851 129.533 60.1642 129.575 60.1523C129.617 60.1403 129.661 60.1375 129.704 60.1441C129.747 60.1508 129.788 60.1667 129.824 60.1907C129.861 60.2147 129.892 60.2463 129.915 60.2834L130.927 61.6627L131.934 60.2834C131.959 60.2467 131.991 60.2157 132.029 60.1921C132.066 60.1685 132.108 60.153 132.152 60.1464C132.195 60.1398 132.24 60.1424 132.283 60.154C132.326 60.1655 132.365 60.1858 132.4 60.2135C132.469 60.2647 132.515 60.3411 132.528 60.4261C132.541 60.5112 132.52 60.5979 132.47 60.6675Z" fill="white"/>
<path d="M145.105 81.1597H82.4756V85.0824H145.105V81.1597Z" fill="white"/>
<path d="M145.151 85.1233H82.4351V81.1191H145.151V85.1233Z" fill="#EBEBEB"/>
<path d="M145.145 81.1191H141.135V85.1291H145.145V81.1191Z" fill="#4D7A42"/>
<path d="M144.389 84.221L144.022 84.4945L143.353 83.6099L143.108 83.284C143.159 83.2634 143.206 83.236 143.248 83.2025C143.329 83.1395 143.393 83.0575 143.434 82.9639L143.696 83.3072L144.389 84.221Z" fill="white"/>
<path d="M143.673 82.1319C143.558 81.9825 143.402 81.8692 143.225 81.8052C143.048 81.7413 142.856 81.7293 142.672 81.7708C142.488 81.8123 142.319 81.9055 142.187 82.0394C142.054 82.1733 141.962 82.3423 141.922 82.5266C141.882 82.7109 141.896 82.9027 141.961 83.0796C142.027 83.2564 142.142 83.4108 142.292 83.5247C142.442 83.6385 142.622 83.707 142.81 83.7222C142.998 83.7373 143.186 83.6985 143.353 83.6101C143.4 83.5825 143.444 83.5513 143.487 83.517C143.566 83.4578 143.637 83.3872 143.696 83.3075C143.818 83.1345 143.881 82.9272 143.877 82.7159C143.872 82.5045 143.801 82.2999 143.673 82.1319ZM143.248 83.2027C143.205 83.2363 143.158 83.2637 143.108 83.2842C142.988 83.3344 142.854 83.3427 142.729 83.3079C142.603 83.273 142.493 83.1971 142.416 83.0922C142.368 83.031 142.332 82.9609 142.312 82.8859C142.292 82.8109 142.286 82.7326 142.297 82.6556C142.307 82.5786 142.333 82.5044 142.372 82.4374C142.411 82.3705 142.464 82.3121 142.526 82.2657C142.627 82.1741 142.757 82.1209 142.894 82.1154C143.03 82.1099 143.164 82.1524 143.272 82.2356C143.38 82.3188 143.456 82.4373 143.485 82.5704C143.515 82.7036 143.497 82.8429 143.434 82.9641C143.396 83.0662 143.332 83.1565 143.248 83.226V83.2027Z" fill="white"/>
<path d="M83.5059 81.9277H83.2964V84.3081H83.5059V81.9277Z" fill="#C7C7C7"/>
<path d="M169.927 79.1516C169.688 79.2958 169.429 79.4037 169.159 79.4718C168.508 79.6293 167.822 79.5359 167.238 79.2101C166.653 78.8843 166.213 78.35 166.004 77.714C165.796 77.0779 165.836 76.3867 166.115 75.7783C166.393 75.1699 166.892 74.6891 167.509 74.4316C168.127 74.1742 168.819 74.1592 169.448 74.3895C170.076 74.6199 170.595 75.0786 170.9 75.6743C171.205 76.27 171.274 76.9588 171.094 77.6033C170.913 78.2479 170.497 78.8007 169.927 79.1516Z" fill="#4D7A42"/>
<path d="M169.333 76.5853C169.316 76.7887 169.223 76.9783 169.073 77.1164C168.922 77.2546 168.726 77.3313 168.521 77.3313C168.317 77.3313 168.12 77.2546 167.97 77.1164C167.82 76.9783 167.727 76.7887 167.709 76.5853C167.7 76.4729 167.714 76.3597 167.75 76.253C167.787 76.1462 167.845 76.0482 167.921 75.9652C167.998 75.8821 168.09 75.8158 168.194 75.7704C168.297 75.7251 168.409 75.7017 168.521 75.7017C168.634 75.7017 168.746 75.7251 168.849 75.7704C168.952 75.8158 169.045 75.8821 169.121 75.9652C169.198 76.0482 169.256 76.1462 169.292 76.253C169.329 76.3597 169.343 76.4729 169.333 76.5853Z" fill="white"/>
<path d="M169.927 78.8201V79.1518C169.688 79.296 169.429 79.4038 169.159 79.4719C168.814 79.5563 168.457 79.5709 168.107 79.515C167.757 79.459 167.422 79.3335 167.122 79.146V78.8142C167.122 78.4422 167.269 78.0855 167.532 77.8224C167.795 77.5594 168.152 77.4116 168.524 77.4116C168.896 77.4116 169.253 77.5594 169.516 77.8224C169.779 78.0855 169.927 78.4422 169.927 78.8142V78.8201Z" fill="white"/>
<path d="M174.589 91.4087H72.4072V99.5101H174.589V91.4087Z" fill="#EBEBEB"/>
<path d="M81.1779 94.2432H78.7451V96.6759H81.1779V94.2432Z" fill="white"/>
<path d="M91.5201 96.6759H89.0815L90.0768 95.4596L89.0815 94.2432H91.5201L92.5095 95.4596L91.5201 96.6759Z" fill="white"/>
<path d="M85.2633 94.2432L85.6591 95.0405L86.5437 95.1686L85.9035 95.7913L86.0548 96.6759L85.2633 96.2569L84.4718 96.6759L84.6231 95.7913L83.9829 95.1686L84.8676 95.0405L85.2633 94.2432Z" fill="#4D7A42"/>
<path d="M113.642 94.9648H94.2554V95.9542H113.642V94.9648Z" fill="#263238"/>
<path d="M164.159 94.9648H146.56V95.9542H164.159V94.9648Z" fill="#263238"/>
<path d="M139.162 94.9648H119.561V95.9542H139.162V94.9648Z" fill="#455A64"/>
<path d="M81.1779 102.344H78.7451V104.777H81.1779V102.344Z" fill="white"/>
<path d="M81.3292 104.923H78.5996V102.199H81.3292V104.923ZM78.8906 104.632H81.0382V102.49H78.8906V104.632Z" fill="#EBEBEB"/>
<path d="M91.5201 104.777H89.0815L90.0768 103.561L89.0815 102.339H91.5201L92.5095 103.561L91.5201 104.777Z" fill="white"/>
<path d="M91.6074 104.923H88.7964L89.908 103.561L88.7964 102.199H91.6074L92.7132 103.561L91.6074 104.923ZM89.4075 104.632H91.4678L92.3408 103.561L91.4678 102.49H89.4075L90.2805 103.561L89.4075 104.632Z" fill="#EBEBEB"/>
<path d="M85.2633 102.339L85.6591 103.142L86.5437 103.27L85.9035 103.893L86.0548 104.777L85.2633 104.358L84.4718 104.777L84.6231 103.893L83.9829 103.27L84.8676 103.142L85.2633 102.339Z" fill="#4D7A42"/>
<path d="M113.642 103.066H94.2554V104.055H113.642V103.066Z" fill="#263238"/>
<path d="M164.159 103.066H146.56V104.055H164.159V103.066Z" fill="#263238"/>
<path d="M139.162 103.066H119.561V104.055H139.162V103.066Z" fill="#455A64"/>
<path d="M174.589 107.611H72.4072V115.713H174.589V107.611Z" fill="#EBEBEB"/>
<path d="M81.1779 110.44H78.7451V112.873H81.1779V110.44Z" fill="white"/>
<path d="M91.5201 112.879H89.0815L90.0768 111.656L89.0815 110.44H91.5201L92.5095 111.656L91.5201 112.879Z" fill="white"/>
<path d="M85.2633 110.44L85.6591 111.243L86.5437 111.371L85.9035 111.994L86.0548 112.879L85.2633 112.459L84.4718 112.879L84.6231 111.994L83.9829 111.371L84.8676 111.243L85.2633 110.44Z" fill="white"/>
<path d="M113.642 111.162H94.2554V112.151H113.642V111.162Z" fill="#DBDBDB"/>
<path d="M164.159 111.162H146.56V112.151H164.159V111.162Z" fill="#DBDBDB"/>
<path d="M139.162 111.162H119.561V112.151H139.162V111.162Z" fill="#C7C7C7"/>
<path d="M81.1779 118.542H78.7451V120.974H81.1779V118.542Z" fill="white"/>
<path d="M81.3292 121.126H78.5996V118.396H81.3292V121.126ZM78.8906 120.835H81.0382V118.687H78.8906V120.835Z" fill="#EBEBEB"/>
<path d="M91.5201 120.98H89.0815L90.0768 119.758L89.0815 118.542H91.5201L92.5095 119.758L91.5201 120.98Z" fill="white"/>
<path d="M91.6074 121.126H88.7964L89.908 119.758L88.7964 118.396H91.6074L92.7132 119.758L91.6074 121.126ZM89.4075 120.835H91.4678L92.3408 119.758L91.4678 118.687H89.4075L90.2805 119.758L89.4075 120.835Z" fill="#EBEBEB"/>
<path d="M85.2633 118.542L85.6591 119.345L86.5437 119.473L85.9035 120.095L86.0548 120.98L85.2633 120.561L84.4718 120.98L84.6231 120.095L83.9829 119.473L84.8676 119.345L85.2633 118.542Z" fill="#4D7A42"/>
<path d="M113.642 119.263H94.2554V120.253H113.642V119.263Z" fill="#DBDBDB"/>
<path d="M164.159 119.263H146.56V120.253H164.159V119.263Z" fill="#DBDBDB"/>
<path d="M139.162 119.263H119.561V120.253H139.162V119.263Z" fill="#C7C7C7"/>
<path d="M174.589 123.809H72.4072V131.91H174.589V123.809Z" fill="#EBEBEB"/>
<path d="M81.1779 126.643H78.7451V129.076H81.1779V126.643Z" fill="white"/>
<path d="M91.5201 129.076H89.0815L90.0768 127.859L89.0815 126.643H91.5201L92.5095 127.859L91.5201 129.076Z" fill="white"/>
<path d="M85.2633 126.643L85.6591 127.446L86.5437 127.574L85.9035 128.197L86.0548 129.076L85.2633 128.663L84.4718 129.076L84.6231 128.197L83.9829 127.574L84.8676 127.446L85.2633 126.643Z" fill="#4D7A42"/>
<path d="M113.642 127.365H94.2554V128.354H113.642V127.365Z" fill="#DBDBDB"/>
<path d="M164.159 127.365H146.56V128.354H164.159V127.365Z" fill="#DBDBDB"/>
<path d="M139.162 127.365H119.561V128.354H139.162V127.365Z" fill="#C7C7C7"/>
<path d="M81.1779 134.745H78.7451V137.177H81.1779V134.745Z" fill="white"/>
<path d="M81.3292 137.352H78.5996V134.628H81.3292V137.352ZM78.8906 137.061H81.0382V134.919H78.8906V137.061Z" fill="#EBEBEB"/>
<path d="M91.5201 137.177H89.0815L90.0768 135.961L89.0815 134.745H91.5201L92.5095 135.961L91.5201 137.177Z" fill="white"/>
<path d="M91.6074 137.352H88.7964L89.908 135.99L88.7964 134.628H91.6074L92.7132 135.99L91.6074 137.352ZM89.4075 137.061H91.4678L92.3408 135.99L91.4678 134.919H89.4075L90.2805 135.99L89.4075 137.061Z" fill="#EBEBEB"/>
<path d="M85.2633 134.745L85.6591 135.548L86.5437 135.676L85.9035 136.299L86.0548 137.177L85.2633 136.764L84.4718 137.177L84.6231 136.299L83.9829 135.676L84.8676 135.548L85.2633 134.745Z" fill="white"/>
<path d="M86.2472 137.445L85.2637 136.927L84.2801 137.445L84.4663 136.351L83.6748 135.606L84.7748 135.443L85.2637 134.448L85.7584 135.443L86.8583 135.606L86.061 136.38L86.2472 137.445ZM85.2637 136.601L85.8457 136.915L85.7293 136.246L86.2123 135.775L85.5488 135.682L85.2462 135.1L84.9494 135.682L84.2801 135.775L84.7632 136.246L84.6526 136.915L85.2637 136.601Z" fill="#EBEBEB"/>
<path d="M113.642 135.466H94.2554V136.456H113.642V135.466Z" fill="#DBDBDB"/>
<path d="M164.159 135.466H146.56V136.456H164.159V135.466Z" fill="#DBDBDB"/>
<path d="M139.162 135.466H119.561V136.456H139.162V135.466Z" fill="#C7C7C7"/>
<path d="M174.589 140.012H72.4072V148.113H174.589V140.012Z" fill="#EBEBEB"/>
<path d="M81.1779 142.846H78.7451V145.278H81.1779V142.846Z" fill="white"/>
<path d="M91.5201 145.278H89.0815L90.0768 144.062L89.0815 142.846H91.5201L92.5095 144.062L91.5201 145.278Z" fill="white"/>
<path d="M85.2633 142.846L85.6591 143.649L86.5437 143.777L85.9035 144.4L86.0548 145.278L85.2633 144.865L84.4718 145.278L84.6231 144.4L83.9829 143.777L84.8676 143.649L85.2633 142.846Z" fill="#4D7A42"/>
<path d="M113.642 143.567H94.2554V144.557H113.642V143.567Z" fill="#DBDBDB"/>
<path d="M164.159 143.567H146.56V144.557H164.159V143.567Z" fill="#DBDBDB"/>
<path d="M139.162 143.567H119.561V144.557H139.162V143.567Z" fill="#C7C7C7"/>
<path d="M81.1779 150.947H78.7451V153.38H81.1779V150.947Z" fill="white"/>
<path d="M81.3292 153.526H78.5996V150.802H81.3292V153.526ZM78.8906 153.235H81.0382V151.093H78.8906V153.235Z" fill="#EBEBEB"/>
<path d="M91.5201 153.38H89.0815L90.0768 152.164L89.0815 150.947H91.5201L92.5095 152.164L91.5201 153.38Z" fill="white"/>
<path d="M91.6074 153.526H88.7964L89.908 152.164L88.7964 150.802H91.6074L92.7132 152.164L91.6074 153.526ZM89.4075 153.235H91.4678L92.3408 152.164L91.4678 151.093H89.4075L90.2805 152.164L89.4075 153.235Z" fill="#EBEBEB"/>
<path d="M85.2633 150.947L85.6591 151.75L86.5437 151.878L85.9035 152.501L86.0548 153.38L85.2633 152.967L84.4718 153.38L84.6231 152.501L83.9829 151.878L84.8676 151.75L85.2633 150.947Z" fill="white"/>
<path d="M86.2472 153.648L85.2637 153.13L84.2801 153.648L84.4663 152.554L83.6748 151.774L84.7748 151.617L85.2637 150.622L85.7584 151.617L86.8583 151.774L86.061 152.554L86.2472 153.648ZM85.2637 152.804L85.8457 153.113L85.7293 152.449L86.2123 151.978L85.5488 151.885L85.2462 151.303L84.9494 151.885L84.2801 151.978L84.7632 152.449L84.6526 153.113L85.2637 152.804Z" fill="#EBEBEB"/>
<path d="M113.642 151.669H94.2554V152.658H113.642V151.669Z" fill="#DBDBDB"/>
<path d="M164.159 151.669H146.56V152.658H164.159V151.669Z" fill="#DBDBDB"/>
<path d="M139.162 151.669H119.561V152.658H139.162V151.669Z" fill="#C7C7C7"/>
<path d="M174.589 156.214H72.4072V164.316H174.589V156.214Z" fill="#EBEBEB"/>
<path d="M81.1779 159.049H78.7451V161.482H81.1779V159.049Z" fill="white"/>
<path d="M91.5201 161.482H89.0815L90.0768 160.265L89.0815 159.049H91.5201L92.5095 160.265L91.5201 161.482Z" fill="white"/>
<path d="M85.2633 159.049L85.6591 159.852L86.5437 159.98L85.9035 160.603L86.0548 161.482L85.2633 161.068L84.4718 161.482L84.6231 160.603L83.9829 159.98L84.8676 159.852L85.2633 159.049Z" fill="white"/>
<path d="M113.642 159.771H94.2554V160.76H113.642V159.771Z" fill="#DBDBDB"/>
<path d="M164.159 159.771H146.56V160.76H164.159V159.771Z" fill="#DBDBDB"/>
<path d="M139.162 159.771H119.561V160.76H139.162V159.771Z" fill="#C7C7C7"/>
<path d="M81.1779 167.15H78.7451V169.583H81.1779V167.15Z" fill="white"/>
<path d="M81.3292 169.728H78.5996V167.034H81.3292V169.728ZM78.8906 169.437H81.0382V167.296H78.8906V169.437Z" fill="#EBEBEB"/>
<path d="M91.5201 169.583H89.0815L90.0768 168.367L89.0815 167.15H91.5201L92.5095 168.367L91.5201 169.583Z" fill="white"/>
<path d="M91.6073 169.728H88.7963L89.9079 168.366L88.7788 167.034H91.6073L92.7131 168.396L91.6073 169.728ZM89.4074 169.437H91.4676L92.3406 168.366L91.4676 167.296H89.4074L90.2804 168.366L89.4074 169.437Z" fill="#EBEBEB"/>
<path d="M85.2633 167.15L85.6591 167.954L86.5437 168.082L85.9035 168.704L86.0548 169.583L85.2633 169.17L84.4718 169.583L84.6231 168.704L83.9829 168.082L84.8676 167.954L85.2633 167.15Z" fill="white"/>
<path d="M86.2472 169.851L85.2637 169.362L84.2801 169.88L84.4663 168.786L83.6748 168.006L84.7748 167.849L85.2637 166.848L85.7584 167.849L86.8583 168.006L86.061 168.78L86.2472 169.851ZM85.2637 169.001L85.8457 169.315L85.7293 168.652L86.2123 168.18L85.5488 168.081L85.2462 167.499L84.9494 168.081L84.2801 168.18L84.7632 168.652L84.6526 169.315L85.2637 169.001Z" fill="#EBEBEB"/>
<path d="M113.642 167.872H94.2554V168.861H113.642V167.872Z" fill="#DBDBDB"/>
<path d="M164.159 167.872H146.56V168.861H164.159V167.872Z" fill="#DBDBDB"/>
<path d="M139.162 167.872H119.561V168.861H139.162V167.872Z" fill="#C7C7C7"/>
<path d="M174.589 172.417H72.4072V180.519H174.589V172.417Z" fill="#EBEBEB"/>
<path d="M81.1779 175.251H78.7451V177.684H81.1779V175.251Z" fill="white"/>
<path d="M91.5201 177.684H89.0815L90.0768 176.468L89.0815 175.251H91.5201L92.5095 176.468L91.5201 177.684Z" fill="white"/>
<path d="M85.2633 175.251L85.6591 176.055L86.5437 176.183L85.9035 176.805L86.0548 177.684L85.2633 177.271L84.4718 177.684L84.6231 176.805L83.9829 176.183L84.8676 176.055L85.2633 175.251Z" fill="white"/>
<path d="M86.2472 177.952L85.2637 177.434L84.2801 177.952L84.4663 176.852L83.6748 176.078L84.7748 175.921L85.2637 174.92L85.7584 175.921L86.8583 176.078L86.061 176.852L86.2472 177.952ZM85.2637 177.102L85.8457 177.417L85.7293 176.753L86.2123 176.282L85.5488 176.183L85.2462 175.601L84.9494 176.183L84.2801 176.282L84.7632 176.753L84.6526 177.417L85.2637 177.102Z" fill="#EBEBEB"/>
<path d="M113.642 175.973H94.2554V176.963H113.642V175.973Z" fill="#DBDBDB"/>
<path d="M164.159 175.973H146.56V176.963H164.159V175.973Z" fill="#DBDBDB"/>
<path d="M139.162 175.973H119.561V176.963H139.162V175.973Z" fill="#C7C7C7"/>
<path d="M81.1779 183.353H78.7451V185.786H81.1779V183.353Z" fill="white"/>
<path d="M81.3292 185.931H78.5996V183.208H81.3292V185.931ZM78.8906 185.64H81.0382V183.499H78.8906V185.64Z" fill="#EBEBEB"/>
<path d="M91.5201 185.786H89.0815L90.0768 184.569L89.0815 183.353H91.5201L92.5095 184.569L91.5201 185.786Z" fill="white"/>
<path d="M91.6074 185.931H88.7964L89.908 184.569L88.7964 183.208H91.6074L92.7132 184.569L91.6074 185.931ZM89.4075 185.64H91.4678L92.3408 184.569L91.4678 183.499H89.4075L90.2805 184.569L89.4075 185.64Z" fill="#EBEBEB"/>
<path d="M85.2633 183.353L85.6591 184.15L86.5437 184.278L85.9035 184.907L86.0548 185.786L85.2633 185.367L84.4718 185.786L84.6231 184.907L83.9829 184.278L84.8676 184.15L85.2633 183.353Z" fill="white"/>
<path d="M86.2472 186.054L85.2637 185.536L84.2801 186.054L84.4663 184.954L83.6748 184.18L84.7748 184.023L85.2637 183.021L85.7584 184.023L86.8583 184.18L86.061 184.954L86.2472 186.054ZM85.2637 185.204L85.8457 185.518L85.7293 184.855L86.2123 184.383L85.5488 184.284L85.2462 183.702L84.9494 184.284L84.2801 184.383L84.7632 184.855L84.6526 185.518L85.2637 185.204Z" fill="#EBEBEB"/>
<path d="M113.642 184.075H94.2554V185.064H113.642V184.075Z" fill="#DBDBDB"/>
<path d="M164.159 184.075H146.56V185.064H164.159V184.075Z" fill="#DBDBDB"/>
<path d="M139.162 184.075H119.561V185.064H139.162V184.075Z" fill="#C7C7C7"/>
<path d="M174.589 188.62H72.4072V196.722H174.589V188.62Z" fill="#EBEBEB"/>
<path d="M81.1779 191.455H78.7451V193.887H81.1779V191.455Z" fill="white"/>
<path d="M91.5201 193.887H89.0815L90.0768 192.671L89.0815 191.455H91.5201L92.5095 192.671L91.5201 193.887Z" fill="white"/>
<path d="M85.2633 191.455L85.6591 192.252L86.5437 192.386L85.9035 193.009L86.0548 193.887L85.2633 193.468L84.4718 193.887L84.6231 193.009L83.9829 192.386L84.8676 192.252L85.2633 191.455Z" fill="white"/>
<path d="M86.2472 194.155L85.2637 193.637L84.2801 194.155L84.4663 193.055L83.6748 192.281L84.7748 192.124L85.2637 191.123L85.7584 192.124L86.8583 192.281L86.061 193.055L86.2472 194.155ZM85.2637 193.305L85.8457 193.619L85.7293 192.956L86.2123 192.484L85.5488 192.385L85.2462 191.803L84.9494 192.385L84.2801 192.484L84.7632 192.956L84.6526 193.619L85.2637 193.305Z" fill="#EBEBEB"/>
<path d="M113.642 192.176H94.2554V193.166H113.642V192.176Z" fill="#DBDBDB"/>
<path d="M164.159 192.176H146.56V193.166H164.159V192.176Z" fill="#DBDBDB"/>
<path d="M139.162 192.176H119.561V193.166H139.162V192.176Z" fill="#C7C7C7"/>
<path d="M81.1779 199.556H78.7451V201.989H81.1779V199.556Z" fill="white"/>
<path d="M81.3292 202.134H78.5996V199.411H81.3292V202.134ZM78.8906 201.843H81.0382V199.702H78.8906V201.843Z" fill="#EBEBEB"/>
<path d="M91.5201 201.989H89.0815L90.0768 200.773L89.0815 199.556H91.5201L92.5095 200.773L91.5201 201.989Z" fill="white"/>
<path d="M91.6074 202.134H88.7964L89.908 200.773L88.7964 199.411H91.6074L92.7132 200.773L91.6074 202.134ZM89.4075 201.843H91.4678L92.3408 200.773L91.4678 199.702H89.4075L90.2805 200.773L89.4075 201.843Z" fill="#EBEBEB"/>
<path d="M85.2633 199.556L85.6591 200.353L86.5437 200.482L85.9035 201.11L86.0548 201.989L85.2633 201.57L84.4718 201.989L84.6231 201.11L83.9829 200.482L84.8676 200.353L85.2633 199.556Z" fill="white"/>
<path d="M86.2472 202.251L85.2637 201.738L84.2801 202.251L84.4663 201.156L83.6748 200.382L84.7748 200.219L85.2637 199.224L85.7875 200.208L86.8874 200.371L86.0901 201.145L86.2472 202.251ZM85.2637 201.407L85.8457 201.721L85.7293 201.057L86.2123 200.586L85.5488 200.487L85.2462 199.905L84.9494 200.487L84.2801 200.586L84.7632 201.057L84.6526 201.721L85.2637 201.407Z" fill="#EBEBEB"/>
<path d="M113.642 200.278H94.2554V201.267H113.642V200.278Z" fill="#DBDBDB"/>
<path d="M164.159 200.278H146.56V201.267H164.159V200.278Z" fill="#DBDBDB"/>
<path d="M139.162 200.278H119.561V201.267H139.162V200.278Z" fill="#C7C7C7"/>
<path d="M174.589 204.823H72.4072V212.925H174.589V204.823Z" fill="#EBEBEB"/>
<path d="M81.1779 207.657H78.7451V210.09H81.1779V207.657Z" fill="white"/>
<path d="M91.5201 210.09H89.0815L90.0768 208.874L89.0815 207.657H91.5201L92.5095 208.874L91.5201 210.09Z" fill="white"/>
<path d="M85.2633 207.657L85.6591 208.455L86.5437 208.583L85.9035 209.205L86.0548 210.09L85.2633 209.671L84.4718 210.09L84.6231 209.205L83.9829 208.583L84.8676 208.455L85.2633 207.657Z" fill="#4D7A42"/>
<path d="M113.642 208.379H94.2554V209.368H113.642V208.379Z" fill="#DBDBDB"/>
<path d="M164.159 208.379H146.56V209.368H164.159V208.379Z" fill="#DBDBDB"/>
<path d="M139.162 208.379H119.561V209.368H139.162V208.379Z" fill="#C7C7C7"/>
<path d="M81.1779 215.759H78.7451V218.192H81.1779V215.759Z" fill="white"/>
<path d="M81.3292 218.337H78.5996V215.607H81.3292V218.337ZM78.8906 218.046H81.0382V215.922H78.8906V218.046Z" fill="#EBEBEB"/>
<path d="M91.5201 218.192H89.0815L90.0768 216.975L89.0815 215.753H91.5201L92.5095 216.975L91.5201 218.192Z" fill="white"/>
<path d="M91.6074 218.337H88.7964L89.908 216.975L88.7964 215.607H91.6074L92.7132 216.975L91.6074 218.337ZM89.4075 218.046H91.4678L92.3408 216.975L91.4678 215.898H89.4075L90.2805 216.975L89.4075 218.046Z" fill="#EBEBEB"/>
<path d="M85.2633 215.753L85.6591 216.556L86.5437 216.684L85.9035 217.307L86.0548 218.192L85.2633 217.772L84.4718 218.192L84.6231 217.307L83.9829 216.684L84.8676 216.556L85.2633 215.753Z" fill="white"/>
<path d="M86.2472 218.454L85.2637 217.936L84.2801 218.454L84.4663 217.359L83.6748 216.585L84.7748 216.422L85.2637 215.427L85.7584 216.422L86.8583 216.585L86.061 217.359L86.2472 218.454ZM85.2637 217.61L85.8457 217.924L85.7293 217.261L86.2123 216.789L85.5488 216.69L85.2462 216.108L84.9494 216.69L84.2801 216.789L84.7632 217.261L84.6526 217.924L85.2637 217.61Z" fill="#EBEBEB"/>
<path d="M113.642 216.48H94.2554V217.47H113.642V216.48Z" fill="#DBDBDB"/>
<path d="M164.159 216.48H146.56V217.47H164.159V216.48Z" fill="#DBDBDB"/>
<path d="M139.162 216.48H119.561V217.47H139.162V216.48Z" fill="#C7C7C7"/>
<path d="M174.589 221.026H72.4072V229.127H174.589V221.026Z" fill="#EBEBEB"/>
<path d="M81.1779 223.854H78.7451V226.287H81.1779V223.854Z" fill="white"/>
<path d="M91.5201 226.293H89.0815L90.0768 225.077L89.0815 223.854H91.5201L92.5095 225.077L91.5201 226.293Z" fill="white"/>
<path d="M85.2633 223.854L85.6591 224.658L86.5437 224.786L85.9035 225.408L86.0548 226.293L85.2633 225.874L84.4718 226.293L84.6231 225.408L83.9829 224.786L84.8676 224.658L85.2633 223.854Z" fill="#4D7A42"/>
<path d="M113.642 224.576H94.2554V225.566H113.642V224.576Z" fill="#DBDBDB"/>
<path d="M164.159 224.576H146.56V225.566H164.159V224.576Z" fill="#DBDBDB"/>
<path d="M139.162 224.576H119.561V225.566H139.162V224.576Z" fill="#C7C7C7"/>
<path d="M81.1779 231.956H78.7451V234.389H81.1779V231.956Z" fill="white"/>
<path d="M81.3292 234.546H78.5996V231.811H81.3292V234.546ZM78.8906 234.255H81.0382V232.102H78.8906V234.255Z" fill="#EBEBEB"/>
<path d="M91.5201 234.395H89.0815L90.0768 233.172L89.0815 231.956H91.5201L92.5095 233.172L91.5201 234.395Z" fill="white"/>
<path d="M91.6074 234.546H88.7964L89.908 233.178L88.7964 231.816H91.6074L92.7132 233.178L91.6074 234.546ZM89.4075 234.255H91.4678L92.3408 233.178L91.4678 232.107H89.4075L90.2805 233.178L89.4075 234.255Z" fill="#EBEBEB"/>
<path d="M85.2633 231.956L85.6591 232.759L86.5437 232.887L85.9035 233.51L86.0548 234.395L85.2633 233.976L84.4718 234.395L84.6231 233.51L83.9829 232.887L84.8676 232.759L85.2633 231.956Z" fill="white"/>
<path d="M86.2472 234.656L85.2637 234.138L84.2801 234.656L84.4663 233.562L83.6748 232.8L84.7748 232.637L85.2637 231.642L85.7584 232.637L86.8583 232.8L86.061 233.574L86.2472 234.656ZM85.2637 233.812L85.8457 234.127L85.7293 233.457L86.2123 232.992L85.5488 232.893L85.2462 232.311L84.9494 232.893L84.2801 232.992L84.7632 233.457L84.6526 234.127L85.2637 233.812Z" fill="#EBEBEB"/>
<path d="M113.642 232.678H94.2554V233.667H113.642V232.678Z" fill="#DBDBDB"/>
<path d="M164.159 232.678H146.56V233.667H164.159V232.678Z" fill="#DBDBDB"/>
<path d="M139.162 232.678H119.561V233.667H139.162V232.678Z" fill="#C7C7C7"/>
<path d="M174.571 237.223C174.53 238.914 174.028 240.561 173.121 241.989C172.213 243.416 170.934 244.569 169.421 245.325H77.5753C76.0577 244.572 74.7739 243.421 73.8622 241.993C72.9505 240.566 72.4454 238.916 72.4014 237.223H174.571Z" fill="#EBEBEB"/>
<path d="M81.1779 240.057H78.7451V242.49H81.1779V240.057Z" fill="white"/>
<path d="M91.5201 242.49H89.0815L90.0768 241.274L89.0815 240.057H91.5201L92.5095 241.274L91.5201 242.49Z" fill="white"/>
<path d="M85.2633 240.057L85.6591 240.86L86.5437 240.988L85.9035 241.611L86.0548 242.49L85.2633 242.077L84.4718 242.49L84.6231 241.611L83.9829 240.988L84.8676 240.86L85.2633 240.057Z" fill="#4D7A42"/>
<path d="M113.642 240.779H94.2554V241.768H113.642V240.779Z" fill="#DBDBDB"/>
<path d="M164.159 240.779H146.56V241.768H164.159V240.779Z" fill="#DBDBDB"/>
<path d="M139.162 240.779H119.561V241.768H139.162V240.779Z" fill="#C7C7C7"/>
<path opacity="0.7" d="M174.583 54.766V236.798C174.583 241.943 170.73 246.11 165.981 246.11H81.0091C76.2483 246.11 72.3955 241.943 72.3955 236.798V54.766C72.3955 44.29 76.2483 43.772 81.0091 43.772H98.0326C99.022 43.772 99.831 44.8952 99.831 46.2862V46.8682C99.831 50.1274 101.618 50.1391 103.806 50.1391H143.173C145.384 50.1391 147.159 50.1391 147.159 46.8682V46.2862C147.159 44.8952 147.957 43.772 148.963 43.772H165.981C170.759 43.772 174.583 45.163 174.583 54.766Z" fill="white"/>
<path d="M160.073 189.511H87.1602V127.825L123.611 104.679L160.073 127.825V189.511Z" fill="#4D7A42"/>
<path opacity="0.2" d="M160.073 189.511H87.1602V127.825L123.611 104.679L160.073 127.825V189.511Z" fill="black"/>
<path d="M155.958 120.532H91.269V187.107H155.958V120.532Z" fill="#EBEBEB"/>
<path d="M97.5777 131.468H150.278V129.338H97.5777V131.468Z" fill="#DBDBDB"/>
<path d="M97.5777 136.846H150.278V134.716H97.5777V136.846Z" fill="#DBDBDB"/>
<path d="M97.5777 142.229H150.278V140.099H97.5777V142.229Z" fill="#DBDBDB"/>
<path d="M97.5777 147.613H150.278V145.483H97.5777V147.613Z" fill="#DBDBDB"/>
<path d="M97.5777 152.997H150.278V150.866H97.5777V152.997Z" fill="#DBDBDB"/>
<path d="M97.5777 158.38H150.278V156.25H97.5777V158.38Z" fill="#DBDBDB"/>
<path d="M97.5777 163.757H150.278V161.627H97.5777V163.757Z" fill="#DBDBDB"/>
<path d="M97.5777 169.141H150.278V167.011H97.5777V169.141Z" fill="#DBDBDB"/>
<path d="M97.5777 174.524H150.278V172.394H97.5777V174.524Z" fill="#DBDBDB"/>
<path d="M97.5777 179.908H150.278V177.778H97.5777V179.908Z" fill="#DBDBDB"/>
<path d="M160.073 143.265V189.511H87.1602V143.265C90.2913 145.04 93.3701 146.903 96.4722 148.718C99.5742 150.534 102.647 152.42 105.714 154.306C109.113 156.385 112.524 158.494 115.946 160.632L116.056 160.568C116.022 160.568 115.998 160.62 115.969 160.644L123.617 165.428C126.154 163.833 128.709 162.221 131.258 160.644C131.229 160.644 131.206 160.591 131.171 160.568C131.204 160.592 131.242 160.61 131.282 160.62C134.684 158.494 138.097 156.385 141.519 154.294C144.588 152.42 147.665 150.561 150.749 148.718C153.881 146.903 156.942 145.04 160.073 143.265Z" fill="#4D7A42"/>
<g opacity="0.2">
<path d="M160.073 143.265C157.128 145.337 154.131 147.339 151.163 149.353C148.194 151.367 145.174 153.34 142.159 155.313C139.016 157.373 135.868 159.414 132.713 161.435L132.428 161.627L124.03 166.987L123.611 167.238L123.203 166.987L114.817 161.621L114.52 161.435C111.358 159.41 108.205 157.365 105.062 155.301C102.059 153.341 99.0621 151.359 96.0706 149.353C93.1024 147.316 90.1051 145.337 87.1602 143.265C90.2913 145.04 93.3701 146.903 96.4722 148.718C99.5742 150.534 102.647 152.42 105.714 154.306C109.113 156.385 112.524 158.494 115.946 160.632L123.617 165.428C126.154 163.833 128.709 162.221 131.258 160.644C134.661 158.517 138.074 156.409 141.496 154.317C144.565 152.443 147.642 150.585 150.726 148.742C153.881 146.903 156.942 145.04 160.073 143.265Z" fill="black"/>
<path d="M116.051 160.568C116.016 160.568 115.993 160.62 115.963 160.644L114.799 161.621C112.972 163.164 111.098 164.642 109.195 166.074C106.867 167.82 104.498 169.566 102.112 171.236C99.7256 172.906 97.3045 174.53 94.8368 176.107C92.3691 177.684 89.8898 179.227 87.3174 180.641C89.529 178.703 91.8279 176.893 94.1501 175.13C96.4722 173.366 98.8584 171.637 101.233 169.973C103.608 168.308 106.052 166.667 108.514 165.09C110.475 163.833 112.471 162.593 114.503 161.435C114.974 161.162 115.445 160.894 115.928 160.632L116.051 160.568Z" fill="black"/>
<path d="M159.898 180.641C157.326 179.227 154.829 177.684 152.379 176.107C149.929 174.53 147.502 172.889 145.092 171.236C142.683 169.583 140.332 167.849 138.009 166.074C136.118 164.642 134.244 163.164 132.428 161.627C132.032 161.301 131.648 160.975 131.264 160.644C131.235 160.644 131.212 160.591 131.177 160.568C131.21 160.592 131.247 160.61 131.287 160.62L132.713 161.435C134.744 162.599 136.729 163.833 138.702 165.09C141.164 166.667 143.573 168.308 145.971 169.973C148.369 171.637 150.732 173.36 153.054 175.13C155.376 176.899 157.687 178.703 159.898 180.641Z" fill="black"/>
</g>
<path d="M155.896 149.541C156.454 144.907 153.149 140.699 148.515 140.141C143.882 139.584 139.673 142.888 139.116 147.522C138.558 152.156 141.863 156.364 146.497 156.921C151.13 157.479 155.339 154.174 155.896 149.541Z" fill="#455A64"/>
<path d="M52.6881 67.2209C52.9229 69.5945 53.8159 71.8553 55.2667 73.7486C56.7174 75.6419 58.6681 77.0923 60.899 77.9363C63.1298 78.7804 65.5521 78.9845 67.8927 78.5257C70.2334 78.067 72.3993 76.9635 74.1465 75.3398L80.5485 76.2826L77.3358 70.7304C78.0717 68.9232 78.3858 66.972 78.2542 65.0251C78.1226 63.0783 77.5487 61.1872 76.5763 59.4954C75.6039 57.8037 74.2586 56.3561 72.6426 55.2625C71.0265 54.1689 69.1824 53.4582 67.2505 53.1845C65.3185 52.9108 63.3495 53.0812 61.4934 53.6829C59.6372 54.2845 57.9426 55.3015 56.5386 56.6566C55.1345 58.0116 54.0579 59.6689 53.3907 61.5026C52.7235 63.3362 52.4832 65.2979 52.6881 67.2384V67.2209Z" fill="white"/>
<path d="M56.5298 56.6227C57.9274 55.2424 59.6238 54.2021 61.4879 53.5825C63.3519 52.9628 65.3335 52.7804 67.2793 53.0492C69.2454 53.3115 71.1251 54.0212 72.774 55.1236C74.4229 56.226 75.797 57.6919 76.7908 59.4085C77.7845 61.1251 78.3714 63.0466 78.5063 65.0255C78.6413 67.0044 78.3206 68.9879 77.5691 70.8235V70.6081L80.7643 76.1662L81.0029 76.5795L80.5373 76.5096L74.1353 75.5202L74.2866 75.4736C72.5037 77.0906 70.3045 78.1771 67.937 78.6106C67.3511 78.7196 66.7576 78.7819 66.1619 78.7969C65.5681 78.826 64.9731 78.8143 64.381 78.762C61.995 78.5433 59.7155 77.6714 57.7927 76.2419C57.3185 75.8829 56.8675 75.4941 56.4425 75.0779C56.0252 74.6581 55.6363 74.2109 55.2785 73.7393C53.3565 71.2295 52.4222 68.1017 52.6529 64.949C52.8835 61.7962 54.263 58.8377 56.5298 56.6343V56.6227ZM55.3134 73.6985C56.0241 74.6422 56.876 75.4706 57.8393 76.1546C58.7835 76.8608 59.8268 77.4237 60.9355 77.8249C62.038 78.2333 63.1915 78.4879 64.3635 78.5815C64.9448 78.622 65.5282 78.622 66.1095 78.5815C66.6959 78.5555 67.2796 78.4855 67.8555 78.372C70.1578 77.9062 72.2855 76.8101 74.0014 75.2059L74.0596 75.1419H74.1527L80.5547 76.0382L80.3219 76.3816L77.0918 70.8409L77.0336 70.7362L77.0802 70.6198C77.791 68.8451 78.0991 66.9349 77.9823 65.0268C77.8562 63.1169 77.2991 61.2604 76.3527 59.5967C75.3912 57.9379 74.0805 56.5081 72.5115 55.4063C70.926 54.3157 69.1127 53.6011 67.2095 53.3169C65.3006 53.0267 63.3507 53.1719 61.5059 53.7418C59.5447 54.3529 57.7611 55.4309 56.3083 56.8832C54.8555 58.3354 53.7769 60.1186 53.165 62.0795C52.5532 64.0405 52.4264 66.1206 52.7955 68.1414C53.1646 70.1621 54.0187 72.0631 55.2843 73.6811L55.3134 73.6985Z" fill="#263238"/>
<path d="M66.884 71.8712C66.8825 72.3441 66.6935 72.797 66.3586 73.1309C66.0237 73.4647 65.5701 73.6521 65.0972 73.6521C64.6929 73.6546 64.2997 73.5194 63.9823 73.2687C63.665 73.018 63.4424 72.6668 63.3512 72.2728C63.3207 72.1411 63.3051 72.0064 63.3047 71.8712C63.3047 71.3973 63.4929 70.9429 63.828 70.6078C64.1631 70.2727 64.6176 70.0845 65.0914 70.0845C65.5653 70.0845 66.0198 70.2727 66.3549 70.6078C66.6899 70.9429 66.8782 71.3973 66.8782 71.8712H66.884Z" fill="#4D7A42"/>
<path opacity="0.1" d="M66.884 71.8712C66.8835 72.0064 66.8679 72.1411 66.8374 72.2728H63.3454C63.3149 72.1411 63.2993 72.0064 63.2988 71.8712C63.2988 71.3973 63.4871 70.9429 63.8222 70.6078C64.1572 70.2727 64.6117 70.0845 65.0856 70.0845C65.5594 70.0845 66.0139 70.2727 66.349 70.6078C66.6841 70.9429 66.8723 71.3973 66.8723 71.8712H66.884Z" fill="black"/>
<path d="M58.8057 71.5452C58.9014 71.1855 59.0505 70.8422 59.248 70.5267C59.83 69.578 60.6797 69.1648 60.9125 66.7262C61.1453 64.2876 61.8786 60.3242 65.0971 60.3242C68.3155 60.3242 69.0547 64.2702 69.2817 66.7262C69.5086 69.1823 70.3351 69.578 70.9462 70.5267C71.1412 70.8435 71.2902 71.1864 71.3885 71.5452H58.8057Z" fill="#4D7A42"/>
<path d="M65.0969 58.1011C64.7884 58.1011 64.4868 58.1926 64.2303 58.3639C63.9738 58.5353 63.7739 58.7789 63.6558 59.0639C63.5378 59.3489 63.5069 59.6626 63.5671 59.9651C63.6273 60.2677 63.7758 60.5456 63.9939 60.7637C64.2121 60.9819 64.49 61.1304 64.7926 61.1906C65.0951 61.2508 65.4087 61.2199 65.6938 61.1019C65.9788 60.9838 66.2224 60.7839 66.3938 60.5274C66.5652 60.2709 66.6566 59.9693 66.6566 59.6608C66.6566 59.2472 66.4923 58.8504 66.1998 58.5579C65.9073 58.2654 65.5105 58.1011 65.0969 58.1011ZM65.0969 60.3651C64.9573 60.3662 64.8206 60.3259 64.704 60.2492C64.5875 60.1725 64.4963 60.063 64.4421 59.9344C64.3879 59.8058 64.3731 59.664 64.3997 59.527C64.4262 59.3901 64.4928 59.264 64.591 59.165C64.6893 59.0659 64.8147 58.9982 64.9515 58.9706C65.0883 58.943 65.2302 58.9566 65.3592 59.0097C65.4882 59.0628 65.5985 59.1531 65.6762 59.269C65.7538 59.3849 65.7953 59.5213 65.7953 59.6608C65.7953 59.8466 65.7219 60.0248 65.5911 60.1567C65.4603 60.2886 65.2826 60.3635 65.0969 60.3651Z" fill="#4D7A42"/>
<path d="M71.0334 61.878C71.0334 62.2602 70.9201 62.6338 70.7078 62.9515C70.4955 63.2693 70.1937 63.517 69.8406 63.6632C69.4876 63.8094 69.099 63.8477 68.7242 63.7732C68.3494 63.6986 68.0051 63.5146 67.7349 63.2443C67.4647 62.9741 67.2806 62.6298 67.2061 62.255C67.1315 61.8802 67.1698 61.4917 67.316 61.1386C67.4623 60.7855 67.7099 60.4838 68.0277 60.2714C68.3454 60.0591 68.719 59.9458 69.1012 59.9458C69.6136 59.9458 70.1051 60.1494 70.4675 60.5117C70.8299 60.8741 71.0334 61.3656 71.0334 61.878Z" fill="#455A64"/>
</svg>
