<svg width="354" height="236" viewBox="0 0 354 236" fill="none" xmlns="http://www.w3.org/2000/svg">
<path d="M173.035 77.167C172.654 77.1677 172.276 77.1038 171.916 76.9782L166.143 74.977C165.576 74.7785 165.07 74.4349 164.677 73.9802C164.284 73.5256 164.016 72.9758 163.901 72.3857L162.745 66.3771C162.632 65.7863 162.676 65.176 162.873 64.6076C163.07 64.0392 163.413 63.5328 163.868 63.1392L168.489 59.1366C168.945 58.743 169.496 58.4757 170.087 58.3614C170.679 58.2471 171.29 58.2898 171.859 58.4853L177.637 60.4913C178.206 60.6882 178.713 61.0313 179.107 61.4861C179.501 61.9409 179.769 62.4915 179.883 63.0825L181.035 69.0864C181.148 69.6775 181.104 70.2878 180.907 70.8566C180.711 71.4254 180.369 71.933 179.916 72.329L175.291 76.3316C174.664 76.8729 173.863 77.1695 173.035 77.167ZM167.559 71.4747L172.959 73.3627L177.283 69.6245L176.202 64.0124L170.802 62.1244L166.483 65.8674L167.559 71.4747Z" fill="#F5F5F5"/>
<path d="M240.455 59.7268C240.074 59.7274 239.696 59.6636 239.336 59.538L236.41 58.5232C235.842 58.3256 235.336 57.9822 234.942 57.5274C234.549 57.0726 234.282 56.5224 234.168 55.9319L233.583 52.8922C233.47 52.3018 233.514 51.6921 233.71 51.1239C233.906 50.5557 234.248 50.049 234.701 49.6543L237.061 47.6247C237.517 47.2314 238.067 46.9647 238.658 46.8512C239.248 46.7377 239.858 46.7815 240.427 46.9781L243.348 47.9929C243.917 48.1898 244.424 48.5328 244.819 48.9877C245.213 49.4425 245.481 49.9931 245.595 50.5841L246.18 53.6238C246.294 54.2146 246.25 54.8249 246.053 55.3933C245.855 55.9617 245.512 56.4681 245.057 56.8617L242.697 58.8913C242.073 59.4276 241.278 59.7238 240.455 59.7268ZM237.836 55.0068L240.384 55.8894L242.419 54.1241L241.909 51.4809L239.365 50.5983L237.326 52.3919L237.836 55.0068Z" fill="#F5F5F5"/>
<path d="M321.281 104.203C320.908 104.201 320.54 104.115 320.204 103.951C319.868 103.788 319.573 103.552 319.341 103.259L317.694 101.202C317.422 100.861 317.244 100.455 317.177 100.025C317.111 99.5941 317.159 99.1536 317.316 98.7472L318.26 96.2928C318.418 95.8869 318.68 95.5298 319.02 95.2572C319.359 94.9847 319.765 94.8062 320.195 94.7399L322.801 94.3387C323.232 94.2734 323.673 94.3222 324.08 94.4804C324.486 94.6386 324.844 94.9006 325.118 95.2402L326.766 97.2981C327.038 97.6385 327.216 98.0443 327.282 98.4749C327.348 98.9056 327.3 99.3461 327.143 99.7525L326.199 102.207C326.041 102.614 325.779 102.971 325.438 103.244C325.097 103.517 324.691 103.695 324.259 103.76L321.654 104.161C321.531 104.185 321.406 104.199 321.281 104.203ZM323.192 96.2125H323.103L320.497 96.6137C320.393 96.6292 320.294 96.6718 320.212 96.7372C320.129 96.8027 320.065 96.8886 320.025 96.9866L319.081 99.441C319.043 99.5385 319.031 99.6445 319.047 99.7481C319.063 99.8517 319.105 99.9493 319.171 100.031L320.818 102.089C320.885 102.17 320.971 102.232 321.069 102.27C321.166 102.308 321.272 102.32 321.375 102.306L323.981 101.905C324.085 101.89 324.184 101.848 324.267 101.782C324.35 101.717 324.414 101.63 324.453 101.532L325.397 99.0776C325.434 98.9799 325.446 98.8741 325.43 98.7707C325.414 98.6673 325.372 98.5697 325.307 98.4876L323.66 96.4296C323.602 96.3615 323.531 96.3067 323.45 96.2692C323.369 96.2317 323.282 96.2123 323.192 96.2125Z" fill="#E0E0E0"/>
<path d="M27.2339 124.717C26.7551 124.716 26.2825 124.608 25.8506 124.402C25.4187 124.195 25.0382 123.895 24.7371 123.522L20.8667 118.689C20.5193 118.251 20.2929 117.729 20.2101 117.176C20.1273 116.622 20.1909 116.057 20.3947 115.536L22.6555 109.764C22.8593 109.242 23.1963 108.784 23.6328 108.433C24.0693 108.083 24.59 107.853 25.143 107.767L31.279 106.823C31.8329 106.74 32.3989 106.803 32.9206 107.007C33.4424 107.211 33.9016 107.548 34.2526 107.984L38.0899 112.808C38.4377 113.247 38.6643 113.77 38.7471 114.324C38.8299 114.878 38.7661 115.444 38.5619 115.966L36.3435 121.743C36.14 122.266 35.8026 122.726 35.3652 123.077C34.9278 123.428 34.4057 123.658 33.8514 123.744L27.7154 124.688C27.556 124.712 27.3949 124.721 27.2339 124.717ZM23.4863 116.693L27.2622 121.413L33.2566 120.497L35.4562 114.833L31.6802 110.113L25.6858 111.033L23.4863 116.693Z" fill="#E0E0E0"/>
<path d="M42.8949 82.411H39.2464C38.8117 82.4124 38.3842 82.2998 38.0065 82.0845C37.6289 81.8691 37.3143 81.5586 37.094 81.1838L35.2674 78.0261C35.0518 77.6471 34.9385 77.2185 34.9385 76.7824C34.9385 76.3463 35.0518 75.9177 35.2674 75.5387L37.094 72.381C37.3121 72.0033 37.6259 71.6896 38.0038 71.4717C38.3816 71.2538 38.8102 71.1393 39.2464 71.1396H42.8949C43.3311 71.1393 43.7597 71.2538 44.1375 71.4717C44.5154 71.6896 44.8292 72.0033 45.0472 72.381L46.8739 75.5198C47.0895 75.8989 47.2028 76.3275 47.2028 76.7635C47.2028 77.1996 47.0895 77.6282 46.8739 78.0073L45.0472 81.1838C44.8266 81.5583 44.512 81.8686 44.1344 82.0838C43.7568 82.2991 43.3295 82.4119 42.8949 82.411ZM39.2464 73.0088C39.1415 73.009 39.0384 73.0365 38.9474 73.0887C38.8563 73.1408 38.7804 73.2157 38.7272 73.3061L36.9052 76.4638C36.8522 76.5548 36.8242 76.6582 36.8242 76.7635C36.8242 76.8688 36.8522 76.9723 36.9052 77.0633L38.7272 80.2398C38.7802 80.3308 38.8559 80.4064 38.9469 80.4593C39.0379 80.5123 39.1411 80.5407 39.2464 80.5419H42.8949C43.0018 80.5424 43.1069 80.5147 43.1997 80.4617C43.2925 80.4086 43.3697 80.3321 43.4236 80.2398L45.2455 77.0821C45.2986 76.9912 45.3265 76.8877 45.3265 76.7824C45.3265 76.6771 45.2986 76.5737 45.2455 76.4827L43.4236 73.3061C43.3703 73.2157 43.2944 73.1408 43.2034 73.0887C43.1123 73.0365 43.0093 73.009 42.9044 73.0088H39.2464Z" fill="#EBEBEB"/>
<path d="M105.152 46.7043L98.0342 42.225L89.2975 27.4797L77.1435 20.041L74.793 22.5851L76.0249 24.2465L79.8622 29.3913L95.0937 49.8384L101.305 53.2557L105.152 46.7043Z" fill="#EBEBEB"/>
<path d="M96.2071 57.3056L94.168 50.5183L71.7858 24.9453L68.8027 26.7106L73.5275 40.1579L86.5216 52.9208L89.4338 60.8881L96.2071 57.3056Z" fill="#EBEBEB"/>
<path d="M108.333 47.9692C108.333 47.9692 133.609 61.8413 138.701 66.5236C143.794 71.2058 155.693 90.7041 154.485 93.1963C153.277 95.6884 152.352 96.0283 149.609 93.6116C146.867 91.195 138.003 77.8374 135.624 75.6756C133.245 73.5139 103.632 56.1679 103.632 56.1679L108.333 47.9692Z" fill="#E0E0E0"/>
<path d="M91.1946 53.9116C95.6157 53.9116 99.1997 50.3276 99.1997 45.9065C99.1997 41.4854 95.6157 37.9014 91.1946 37.9014C86.7735 37.9014 83.1895 41.4854 83.1895 45.9065C83.1895 50.3276 86.7735 53.9116 91.1946 53.9116Z" fill="#EBEBEB"/>
<path d="M89.2074 53.6523C89.852 53.7737 90.5056 53.8415 91.1614 53.8553C91.9292 53.858 92.693 53.745 93.427 53.5202C95.1941 53.003 96.7259 51.8868 97.7595 50.3631C98.793 48.8395 99.2639 47.0035 99.091 45.1705C99.0108 44.4054 98.8134 43.6572 98.5058 42.9521C98.3598 42.5901 98.1895 42.2384 97.996 41.8995C97.789 41.5573 97.5571 41.2307 97.3022 40.9225C96.2489 39.6161 94.8044 38.6818 93.1809 38.2571C91.5574 37.8323 89.8404 37.9393 88.2822 38.5625C87.913 38.711 87.5535 38.8828 87.2061 39.077C86.8769 39.2809 86.5615 39.5064 86.2621 39.7519C85.6646 40.2224 85.1439 40.7829 84.7186 41.4134C83.9163 42.5759 83.4389 43.9316 83.3357 45.3404C83.2591 46.4596 83.4192 47.5823 83.8055 48.6354C84.1918 49.6886 84.7957 50.6486 85.5777 51.4528C86.1089 52.0133 86.7215 52.4907 87.3949 52.8688C87.9758 53.1748 88.5803 53.4336 89.2026 53.6429C89.1603 53.6483 89.1175 53.6483 89.0752 53.6429L88.707 53.539C88.5065 53.4881 88.3107 53.4203 88.1218 53.3361C87.8568 53.2357 87.5996 53.1158 87.3524 52.9774C86.655 52.6173 86.0181 52.1507 85.4644 51.5944C84.6516 50.7837 84.0208 49.8092 83.6138 48.7358C83.2069 47.6623 83.0333 46.5145 83.1044 45.3687C83.2069 43.9196 83.6958 42.5244 84.5204 41.3284C84.9583 40.6782 85.4931 40.0988 86.1063 39.6103C86.7347 39.0881 87.4442 38.672 88.2067 38.3784C89.8107 37.7351 91.5786 37.6227 93.2512 38.0576C94.9237 38.4925 96.413 39.4519 97.5004 40.795C97.7591 41.1153 97.9956 41.4527 98.2084 41.8051C98.4086 42.1557 98.5837 42.5201 98.7323 42.8954C99.0324 43.6173 99.2171 44.3818 99.2798 45.161C99.4096 46.5113 99.1949 47.8723 98.6559 49.1171C98.1169 50.3618 97.2712 51.4496 96.1977 52.2788C95.3813 52.9161 94.4481 53.3875 93.4506 53.6665C92.7031 53.8853 91.9259 53.9856 91.1473 53.9638C90.8629 53.965 90.5789 53.9445 90.2977 53.9025C90.0894 53.8879 89.8826 53.8563 89.6794 53.8081L89.3065 53.7184C89.2705 53.7011 89.2372 53.6788 89.2074 53.6523Z" fill="#E0E0E0"/>
<path d="M90.0621 50.2822C89.196 50.0582 88.4158 49.5822 87.8203 48.9146C87.2247 48.247 86.8406 47.4177 86.7166 46.5317C86.5925 45.6457 86.734 44.7428 87.1232 43.9373C87.5125 43.1318 88.1319 42.4598 88.9032 42.0064C89.6744 41.5531 90.5628 41.3387 91.456 41.3904C92.3491 41.4421 93.2068 41.7576 93.9206 42.2969C94.6344 42.8363 95.1722 43.5752 95.4658 44.4203C95.7595 45.2654 95.7959 46.1785 95.5704 47.0443C95.2684 48.2036 94.5188 49.1956 93.4861 49.8027C92.4533 50.4098 91.2219 50.5822 90.0621 50.2822Z" fill="#E0E0E0"/>
<path d="M90.0615 50.2819C90.0615 50.2489 90.4532 50.3763 91.1612 50.3763C92.0085 50.3686 92.8364 50.1217 93.5496 49.6641C94.2627 49.2065 94.8321 48.5568 95.1921 47.7897C95.5222 47.0729 95.6558 46.2813 95.5792 45.4958C95.4932 44.63 95.1533 43.809 94.6021 43.1358C94.0135 42.4086 93.2072 41.8892 92.3016 41.6538C91.396 41.4185 90.4389 41.4797 89.5706 41.8284C89.1584 41.9819 88.7741 42.2019 88.4331 42.4797C88.0976 42.7473 87.8061 43.0658 87.5693 43.4237C87.1209 44.0722 86.8522 44.8278 86.7905 45.6138C86.7386 46.2999 86.8485 46.9887 87.1115 47.6245C87.4921 48.5576 88.1754 49.3355 89.0514 49.8335C89.3786 50.0103 89.7159 50.1679 90.0615 50.3055C89.6909 50.2404 89.3336 50.1144 89.0042 49.9326C88.0836 49.451 87.3581 48.6654 86.951 47.7095C86.6658 47.0495 86.5413 46.3313 86.5876 45.6138C86.6412 44.7875 86.915 43.9906 87.3805 43.3057C87.6222 42.9293 87.9198 42.5919 88.2632 42.3051C88.6226 42.008 89.0274 41.7706 89.462 41.6018C90.3778 41.2311 91.3886 41.165 92.3449 41.4132C93.3011 41.6614 94.1521 42.2108 94.772 42.9801C95.3593 43.6889 95.7224 44.5564 95.8152 45.4722C95.889 46.297 95.7406 47.1266 95.3856 47.8747C95.0762 48.5226 94.6186 49.0885 94.0499 49.5267C93.2275 50.1635 92.2105 50.4969 91.1707 50.4707C90.793 50.4704 90.418 50.4065 90.0615 50.2819Z" fill="#E0E0E0"/>
<path d="M103.403 46.4363L100.132 52.1291C99.1734 53.7972 99.7487 55.9264 101.417 56.8848L101.724 57.0611C103.392 58.0195 105.521 57.4442 106.479 55.7762L109.75 50.0834C110.709 48.4153 110.133 46.2861 108.465 45.3277L108.158 45.1514C106.49 44.193 104.361 44.7683 103.403 46.4363Z" fill="#EBEBEB"/>
<path d="M100.129 52.1322C99.9339 52.5525 99.8019 52.9995 99.7377 53.4585C99.6889 53.998 99.7615 54.5415 99.9501 55.0492C100.067 55.3617 100.226 55.657 100.422 55.9271C100.653 56.2235 100.93 56.4802 101.243 56.687C101.587 56.9188 101.958 57.1074 102.348 57.2487C103.029 57.4795 103.766 57.4862 104.452 57.2679C105.137 57.0497 105.735 56.6179 106.157 56.0357C107.242 54.2279 108.389 52.1558 109.626 50.0271C109.909 49.5224 110.057 48.9536 110.057 48.3751C110.057 47.7966 109.909 47.2278 109.626 46.7231C109.376 46.2384 109.009 45.8233 108.559 45.5148C108.123 45.2081 107.631 44.99 107.11 44.8729C106.628 44.775 106.131 44.7835 105.652 44.8976C105.174 45.0117 104.726 45.2288 104.34 45.5337C103.599 46.0953 103.273 46.9497 102.839 47.6388L100.894 50.9428L100.356 51.8349C100.299 51.9422 100.231 52.0434 100.153 52.1369C100.2 52.0237 100.254 51.9134 100.313 51.8065C100.441 51.58 100.606 51.2732 100.814 50.8956C101.286 50.0837 101.904 48.9509 102.702 47.5585L103.325 46.4541C103.555 46.0416 103.861 45.6764 104.226 45.3779C104.631 45.0527 105.101 44.8192 105.605 44.6937C106.109 44.5682 106.633 44.5536 107.143 44.651C107.688 44.7701 108.204 44.9946 108.663 45.3118C109.165 45.6263 109.58 46.0632 109.867 46.5815C110.175 47.1238 110.338 47.737 110.338 48.3609C110.338 48.9849 110.175 49.5981 109.867 50.1404C108.625 52.2786 107.507 54.3176 106.369 56.1631C106.056 56.5822 105.656 56.9287 105.197 57.1788C104.737 57.4289 104.229 57.5767 103.707 57.6121C103.235 57.6393 102.762 57.5752 102.315 57.4234C101.912 57.269 101.53 57.0661 101.177 56.8192C100.85 56.5989 100.561 56.3262 100.323 56.0121C100.124 55.7202 99.9648 55.4027 99.8509 55.0681C99.6928 54.6402 99.6222 54.185 99.6433 53.7293C99.6644 53.2736 99.7767 52.8269 99.9737 52.4154C100.018 52.3168 100.07 52.2221 100.129 52.1322Z" fill="#E0E0E0"/>
<path d="M90.373 64.9189C90.373 64.9189 99.9499 92.1155 103.745 97.9023C107.54 103.689 124.838 118.595 127.491 117.811C130.144 117.028 130.611 116.164 128.695 113.091C126.778 110.019 115.007 99.0775 113.27 96.373C111.533 93.6684 99.1994 61.6338 99.1994 61.6338L90.373 64.9189Z" fill="#E0E0E0"/>
<path d="M95.8126 57.5088L89.6637 59.8102C87.862 60.4846 86.948 62.4918 87.6224 64.2936L87.7465 64.6251C88.4209 66.4269 90.4281 67.3408 92.2299 66.6664L98.3788 64.365C100.181 63.6906 101.094 61.6834 100.42 59.8816L100.296 59.5501C99.6217 57.7483 97.6144 56.8344 95.8126 57.5088Z" fill="#EBEBEB"/>
<path d="M95.8159 57.5038C95.9239 57.4474 96.0379 57.403 96.1557 57.3716C96.4947 57.2749 96.8464 57.2304 97.1988 57.2394C97.7578 57.258 98.3044 57.4084 98.7942 57.6784C99.0982 57.8529 99.3776 58.0672 99.6249 58.3156C99.8946 58.6032 100.118 58.9313 100.286 59.2879C100.472 59.6766 100.609 60.0874 100.692 60.5104C100.774 60.9801 100.762 61.4617 100.654 61.9264C100.532 62.4378 100.3 62.9165 99.9735 63.329C99.6474 63.7414 99.2353 64.0778 98.7659 64.3147C96.7646 65.1218 94.5698 65.9101 92.257 66.788C91.6716 67.0037 91.0405 67.065 90.4245 66.9658C89.8086 66.8665 89.2286 66.6102 88.7406 66.2216C88.2756 65.8451 87.9121 65.3584 87.6833 64.8056C87.4417 64.2966 87.3037 63.7447 87.2774 63.1819C87.26 62.659 87.3574 62.1386 87.5629 61.6575C87.7685 61.1763 88.077 60.7461 88.4668 60.3971C88.8209 60.0852 89.2309 59.8434 89.6751 59.6844L90.8646 59.2454L94.4612 57.9427L95.443 57.5981C95.556 57.5529 95.6729 57.5181 95.7923 57.4943C95.6883 57.5573 95.5775 57.6079 95.4619 57.6453L94.5179 58.0324L90.9495 59.4106C90.2085 59.7269 89.3023 59.9109 88.6273 60.5481C88.264 60.8804 87.9771 61.2875 87.7864 61.7414C87.5957 62.1953 87.5058 62.6852 87.5228 63.1772C87.5569 63.7095 87.6931 64.2303 87.924 64.7112C88.1399 65.2217 88.4808 65.6697 88.9152 66.0139C89.3706 66.3763 89.9119 66.615 90.4866 66.7068C91.0613 66.7985 91.65 66.7404 92.1956 66.5378C94.4943 65.6646 96.7268 64.8669 98.6903 64.0929C99.3308 63.7682 99.8517 63.2487 100.178 62.6092C100.505 61.9697 100.62 61.2432 100.508 60.534C100.429 60.1248 100.301 59.7269 100.125 59.3493C99.9726 59.0038 99.7654 58.685 99.5116 58.4053C99.2804 58.1624 99.0168 57.9528 98.7281 57.7822C98.26 57.5087 97.735 57.3472 97.1941 57.3102C96.7275 57.304 96.2627 57.3693 95.8159 57.5038Z" fill="#E0E0E0"/>
<path d="M337.367 214.038C337.367 214.104 265.415 214.16 176.679 214.16C87.9434 214.16 15.9775 214.104 15.9775 214.038C15.9775 213.972 87.9151 213.915 176.679 213.915C265.444 213.915 337.367 213.972 337.367 214.038Z" fill="#263238"/>
<path d="M41.0645 160.041C41.1919 159.644 55.8994 111.566 55.8994 111.566L55.5313 105.595L59.3781 99.2612L64.1547 100.842L63.5033 107.922L60.1049 113.086L45.3125 161.424L41.0645 160.041Z" fill="#E0E0E0"/>
<path d="M41.0645 160.041L41.3477 160.121L42.1642 160.376L45.3125 161.362L45.2605 161.391C47.6536 153.551 53.1854 135.407 60.0011 113.067L63.3948 107.908V107.96C63.6025 105.699 63.8243 103.297 64.0461 100.88L64.1311 101.008L63.7346 100.88L59.3545 99.4313L59.4961 99.3794L55.6493 105.714V105.643C55.772 107.679 55.8931 109.669 56.0127 111.614V111.656C51.7128 125.623 47.9887 137.72 45.3408 146.329C44.0097 150.639 42.943 154.07 42.2114 156.435C41.848 157.615 41.5601 158.526 41.3665 159.149L41.1447 159.852L41.0645 160.093C41.0805 160.015 41.101 159.937 41.1258 159.861C41.173 159.696 41.2391 159.465 41.3288 159.168C41.5176 158.545 41.8008 157.638 42.1406 156.468C42.8533 154.108 43.8917 150.672 45.1945 146.367C47.8282 137.729 51.5193 125.599 55.7861 111.585V111.628C55.6634 109.683 55.5391 107.693 55.4133 105.657V105.619V105.586L59.2601 99.2519L59.3073 99.167L59.4017 99.2L63.7865 100.644L64.1783 100.777L64.2727 100.805V100.904C64.0509 103.335 63.829 105.737 63.6166 107.984V108.017V108.041L60.2229 113.204V113.171C53.3365 135.464 47.7574 153.584 45.3408 161.424V161.466H45.2983L42.1453 160.423L41.3477 160.154L41.0645 160.041Z" fill="#263238"/>
<path d="M37.5197 162.368L30.9117 171.298L21.6747 204.81C21.6747 204.81 20.3483 211.644 27.8956 213.584C36.3916 215.765 38.3268 209.27 38.3268 209.27L47.2948 176.547L47.2004 165.2L49.4141 162.703C49.5142 162.586 49.5844 162.447 49.6187 162.298C49.6529 162.148 49.6501 161.992 49.6106 161.844C49.5711 161.696 49.496 161.559 49.3919 161.447C49.2877 161.334 49.1576 161.248 49.0129 161.197L38.4023 157.695C38.2549 157.649 38.0983 157.64 37.9465 157.668C37.7947 157.697 37.6521 157.762 37.5314 157.858C37.4107 157.955 37.3156 158.08 37.2543 158.221C37.193 158.363 37.1674 158.518 37.1799 158.672L37.5197 162.368Z" fill="#4D7A42"/>
<path d="M47.2569 165.591C47.2333 165.658 45.0102 165.011 42.2915 164.147C39.5728 163.283 37.378 162.528 37.4016 162.462C37.4252 162.396 39.6436 163.047 42.367 163.911C45.0904 164.775 47.2758 165.525 47.2569 165.591Z" fill="#263238"/>
<path d="M47.3139 176.551C47.0903 176.537 46.8688 176.499 46.6531 176.438C46.2283 176.348 45.6242 176.202 44.8737 176.013C43.3728 175.64 41.3148 175.069 39.0728 174.352C36.8308 173.634 34.8248 172.907 33.3758 172.346C32.6583 172.062 32.0778 171.826 31.6813 171.657C31.4709 171.581 31.2685 171.484 31.0771 171.369C31.2971 171.414 31.5121 171.48 31.7191 171.567L33.4371 172.18C34.8909 172.7 36.9016 173.403 39.1436 174.116C41.3856 174.828 43.4341 175.428 44.9162 175.848L46.6768 176.344C46.8951 176.393 47.1084 176.463 47.3139 176.551Z" fill="#263238"/>
<g opacity="0.3">
<path d="M34.8914 174.851L34.6603 174.783C33.8345 174.542 32.9698 175.017 32.7289 175.842L24.5495 203.886C24.3087 204.712 24.7829 205.577 25.6087 205.817L25.8398 205.885C26.6656 206.126 27.5303 205.652 27.7712 204.826L35.9506 176.782C36.1915 175.956 35.7173 175.092 34.8914 174.851Z" fill="black"/>
</g>
<g opacity="0.3">
<path d="M39.6258 176.386L39.3947 176.319C38.5689 176.078 37.7042 176.552 37.4633 177.378L29.2839 205.422C29.043 206.248 29.5172 207.112 30.3431 207.353L30.5742 207.421C31.4 207.661 32.2647 207.187 32.5056 206.361L40.685 178.318C40.9258 177.492 40.4516 176.627 39.6258 176.386Z" fill="black"/>
</g>
<g opacity="0.3">
<path d="M43.8972 177.799L43.6664 177.731C42.8415 177.487 41.9749 177.957 41.7307 178.782L33.4389 206.793C33.1948 207.618 33.6655 208.484 34.4904 208.728L34.7212 208.797C35.546 209.041 36.4127 208.57 36.6568 207.745L44.9486 179.735C45.1928 178.91 44.7221 178.043 43.8972 177.799Z" fill="black"/>
</g>
<path d="M60.0716 113.091C59.3498 112.97 58.6437 112.769 57.9664 112.491C57.2632 112.294 56.5853 112.015 55.9463 111.661C56.6659 111.785 57.37 111.986 58.0467 112.26C58.7512 112.459 59.4306 112.737 60.0716 113.091Z" fill="#263238"/>
<path d="M64.1643 100.843C64.129 101.067 64.0737 101.288 63.9991 101.503C63.8622 101.975 63.6829 102.57 63.461 103.306L61.573 109.442L61.5353 109.56L61.4173 109.523L59.2413 108.763L57.0041 107.979L56.8955 107.941L56.9285 107.833C57.6082 105.407 58.2077 103.278 58.6513 101.697C58.8685 100.965 59.0431 100.361 59.18 99.908C59.2355 99.6887 59.308 99.4741 59.3971 99.2661C59.3713 99.4916 59.3255 99.7143 59.2602 99.9316L58.7882 101.739C58.3681 103.311 57.8017 105.445 57.1504 107.875L57.0749 107.729L59.3169 108.513L61.4881 109.273L61.3323 109.353L63.3147 103.259C63.5601 102.528 63.7867 101.933 63.9189 101.48C63.9826 101.261 64.0647 101.048 64.1643 100.843Z" fill="#263238"/>
<path d="M203.385 52.8259C203.004 52.8265 202.626 52.7627 202.266 52.6371L196.484 50.6358C195.917 50.4374 195.411 50.0937 195.018 49.6391C194.624 49.1844 194.357 48.6346 194.242 48.0445L193.086 42.0359C192.972 41.4451 193.017 40.8348 193.214 40.2664C193.411 39.6981 193.754 39.1916 194.209 38.798L198.835 34.7955C199.29 34.4026 199.841 34.1361 200.431 34.0227C201.022 33.9092 201.632 33.9527 202.2 34.1488L207.978 36.1501C208.546 36.3478 209.052 36.6912 209.447 37.1459C209.841 37.6006 210.109 38.1507 210.224 38.7414L211.381 44.7499C211.492 45.3407 211.446 45.9503 211.249 46.5182C211.052 47.0862 210.71 47.5928 210.257 47.9879L205.632 51.9904C205.007 52.5296 204.21 52.8261 203.385 52.8259ZM197.91 47.1335L203.314 49.0215L207.633 45.2833L206.552 39.6476L201.152 37.7596L196.824 41.5356L197.91 47.1335Z" fill="#E0E0E0"/>
<path d="M197.909 47.1339C197.87 47.0117 197.838 46.8872 197.815 46.761L197.579 45.6518C197.376 44.6559 197.107 43.254 196.743 41.5407C196.74 41.5245 196.741 41.5078 196.746 41.492C196.751 41.4763 196.76 41.4622 196.772 41.451L201.076 37.675C201.094 37.6659 201.113 37.6611 201.133 37.6611C201.153 37.6611 201.172 37.6659 201.19 37.675L206.589 39.563L206.674 39.6574V39.7376V39.832L206.712 40.0161L206.783 40.3843C206.83 40.625 206.873 40.8563 206.92 41.1111C207.014 41.5831 207.104 42.0551 207.193 42.5271C207.373 43.4711 207.547 44.3774 207.713 45.2506C207.717 45.2704 207.715 45.2909 207.709 45.31C207.702 45.3291 207.69 45.3461 207.675 45.3591L203.37 49.0879C203.357 49.0958 203.341 49.1 203.325 49.1C203.31 49.1 203.294 49.0958 203.281 49.0879L199.33 47.6719L198.268 47.2755C198.145 47.2354 198.025 47.1865 197.909 47.1291C198.044 47.1573 198.176 47.1952 198.306 47.2424L199.396 47.5917L203.342 48.9133H203.252L207.557 45.1373L207.519 45.2506C207.349 44.3727 207.17 43.4664 206.991 42.5271C206.901 42.0551 206.806 41.5831 206.712 41.1111C206.665 40.8704 206.622 40.6391 206.575 40.3843L206.504 40.0161L206.467 39.832V39.7376V39.6904V39.6574C206.467 39.6574 206.618 39.832 206.542 39.7471L201.147 37.8591H201.26L196.923 41.5831L196.956 41.4935C197.263 43.2021 197.517 44.5945 197.697 45.5904C197.777 46.0624 197.843 46.4353 197.89 46.7185C197.909 46.8561 197.916 46.9951 197.909 47.1339Z" fill="#263238"/>
<path d="M203.385 52.8261C203.385 52.8261 203.588 52.8261 203.97 52.7506C204.521 52.6457 205.038 52.4075 205.476 52.0568L210.172 47.9456C210.686 47.502 211.053 46.9128 211.225 46.2559C211.317 45.9099 211.356 45.5516 211.338 45.1939C211.296 44.8209 211.233 44.4505 211.149 44.0847C210.852 42.5601 210.536 40.9364 210.205 39.2278C210.147 38.8004 210.031 38.3828 209.861 37.9864C209.677 37.5865 209.416 37.2273 209.092 36.9299C208.767 36.6324 208.387 36.4027 207.973 36.2542L206.642 35.7822L203.909 34.8382L202.493 34.3662C202.044 34.1774 201.564 34.0765 201.077 34.0688C200.588 34.0683 200.105 34.1746 199.661 34.3804C199.23 34.5966 198.835 34.8785 198.49 35.2158L196.305 37.1038L194.195 38.9304C193.553 39.519 193.167 40.3356 193.119 41.2055C193.112 41.6268 193.16 42.0472 193.261 42.4563C193.341 42.8764 193.416 43.287 193.497 43.6929C193.648 44.5048 193.799 45.2883 193.94 46.0529C194.082 46.8176 194.219 47.5539 194.365 48.243C194.541 48.8964 194.909 49.4819 195.422 49.9233C195.661 50.1268 195.926 50.2968 196.211 50.4284C196.489 50.5511 196.786 50.6408 197.06 50.7446L198.641 51.3016L201.171 52.1984C201.695 52.4096 202.231 52.5877 202.776 52.7317C203.154 52.8025 203.361 52.7978 203.361 52.8072C203.164 52.8312 202.964 52.8312 202.767 52.8072C202.215 52.6802 201.672 52.5146 201.143 52.3116L198.623 51.4479L197.037 50.9098C196.753 50.8107 196.465 50.7257 196.168 50.5983C195.867 50.4624 195.586 50.2861 195.333 50.0744C194.788 49.6143 194.395 49.0007 194.205 48.3138C194.044 47.5964 193.917 46.8695 193.766 46.1096C193.615 45.3496 193.464 44.5614 193.294 43.7496C193.212 43.3499 193.132 42.9393 193.053 42.5176C192.946 42.0918 192.896 41.6539 192.902 41.2149C192.951 40.2829 193.362 39.4071 194.049 38.7747L196.154 36.9433L198.339 35.0553C198.528 34.8948 198.703 34.7344 198.906 34.5833C199.112 34.4296 199.334 34.2968 199.567 34.1868C200.037 33.9686 200.549 33.8558 201.067 33.8564C201.581 33.8645 202.089 33.9702 202.564 34.168L203.98 34.64L206.713 35.584L208.044 36.056C208.493 36.2163 208.905 36.4651 209.257 36.7876C209.601 37.1038 209.879 37.4857 210.073 37.9109C210.251 38.3252 210.372 38.7619 210.432 39.2089C210.747 40.9239 211.053 42.5444 211.352 44.0705C211.437 44.4455 211.499 44.8254 211.536 45.208C211.564 45.7514 211.465 46.2937 211.249 46.793C211.033 47.2923 210.705 47.7351 210.29 48.0872L205.542 52.1417C205.085 52.4909 204.548 52.7212 203.98 52.812C203.783 52.8411 203.583 52.8458 203.385 52.8261Z" fill="#263238"/>
<path d="M163.157 42.9989C162.782 42.998 162.413 42.9126 162.076 42.7492C161.74 42.5857 161.444 42.3484 161.212 42.0549L159.565 40.0017C159.293 39.6604 159.115 39.2538 159.049 38.8224C158.982 38.391 159.03 37.9498 159.187 37.5426L160.131 35.0882C160.29 34.682 160.553 34.3247 160.893 34.0521C161.234 33.7796 161.64 33.6013 162.071 33.5353L164.672 33.1341C165.103 33.0688 165.544 33.1176 165.951 33.2758C166.357 33.434 166.715 33.696 166.989 34.0356L168.637 36.0935C168.909 36.4339 169.087 36.8397 169.153 37.2704C169.219 37.701 169.171 38.1415 169.014 38.5479L168.07 41.007C167.914 41.4135 167.654 41.772 167.316 42.0469C166.978 42.3218 166.574 42.5035 166.144 42.5741L163.539 42.9706C163.412 42.9897 163.285 42.9992 163.157 42.9989ZM165.045 35.0079H164.955L162.368 35.3997C162.264 35.4152 162.165 35.4578 162.083 35.5232C162 35.5886 161.936 35.6746 161.896 35.7726L160.952 38.2317C160.915 38.3294 160.904 38.4351 160.919 38.5385C160.935 38.642 160.977 38.7395 161.042 38.8217L162.689 40.8749C162.755 40.9563 162.841 41.0191 162.939 41.0572C163.037 41.0952 163.143 41.1072 163.246 41.092L165.852 40.6908C165.956 40.6758 166.055 40.6333 166.138 40.5679C166.221 40.5024 166.285 40.4162 166.324 40.3179L167.268 37.8635C167.306 37.766 167.318 37.6601 167.302 37.5565C167.286 37.4529 167.244 37.3553 167.178 37.2735L165.531 35.2203C165.473 35.1528 165.402 35.0987 165.321 35.062C165.24 35.0253 165.152 35.0069 165.063 35.0079H165.045Z" fill="#E0E0E0"/>
<path d="M165.064 35.0082C165.13 34.9875 165.2 34.9875 165.266 35.0082C165.348 35.0304 165.424 35.0707 165.488 35.1262C165.568 35.2054 165.644 35.2889 165.715 35.3763L167.055 36.9859L167.272 37.2549C167.354 37.366 167.4 37.4993 167.405 37.6372C167.402 37.7731 167.37 37.9067 167.31 38.029C167.268 38.147 167.221 38.265 167.178 38.3877C166.989 38.8597 166.791 39.3931 166.583 39.9406C166.531 40.0775 166.48 40.2143 166.423 40.3559C166.361 40.5265 166.236 40.6667 166.074 40.7477C165.922 40.8043 165.763 40.8408 165.602 40.8563L165.13 40.9318C164.492 41.0262 163.869 41.1347 163.161 41.2244C163.06 41.2247 162.959 41.2034 162.866 41.1619C162.774 41.1204 162.691 41.0596 162.623 40.9837L162.312 40.5919L161.703 39.8367L161.122 39.1004L160.976 38.9211C160.92 38.8549 160.875 38.7799 160.844 38.6992C160.78 38.5321 160.78 38.3472 160.844 38.18L161.457 36.6366L161.736 35.938C161.777 35.8191 161.83 35.7051 161.896 35.5982C161.972 35.4918 162.077 35.4098 162.198 35.3622C163.105 35.197 163.794 35.1309 164.289 35.0648C164.543 35.0152 164.801 34.9931 165.059 34.9987C164.996 35.0219 164.931 35.0378 164.865 35.0459L164.308 35.1592C163.836 35.2536 163.091 35.3575 162.265 35.5227C162.176 35.5616 162.099 35.6235 162.043 35.702C161.99 35.8003 161.946 35.9029 161.911 36.0088L161.646 36.7121L161.052 38.265C161.009 38.3791 161.009 38.5048 161.052 38.619C161.117 38.7405 161.198 38.8532 161.292 38.9541L161.896 39.6951L162.505 40.4503L162.812 40.8327C162.857 40.8822 162.911 40.9216 162.972 40.9485C163.033 40.9753 163.099 40.9889 163.166 40.9884L165.097 40.7005L165.569 40.6297C165.712 40.6208 165.853 40.5922 165.989 40.5447C166.1 40.4916 166.187 40.3967 166.229 40.2804C166.281 40.1388 166.338 40.0019 166.39 39.8651C166.607 39.327 166.81 38.8078 167.003 38.3216C167.057 38.2052 167.104 38.0872 167.145 37.9676C167.196 37.8695 167.227 37.7618 167.235 37.6514C167.23 37.5508 167.199 37.4531 167.145 37.3682L166.937 37.1039L165.658 35.4471C165.602 35.3314 165.518 35.2311 165.415 35.1546C165.311 35.0782 165.191 35.0279 165.064 35.0082Z" fill="#263238"/>
<path d="M163.156 42.999C163.259 42.9757 163.363 42.96 163.468 42.9518L164.369 42.7961L165.785 42.5553C166.079 42.5232 166.368 42.4534 166.644 42.3477C166.947 42.2228 167.22 42.0363 167.447 41.8001C167.707 41.5416 167.906 41.229 168.032 40.8845C168.169 40.5257 168.315 40.1481 168.461 39.7564C168.721 38.9681 169.25 38.161 169.056 37.2595C168.972 36.8023 168.763 36.3774 168.452 36.0323L167.508 34.8617L167.036 34.2576C166.886 34.0545 166.708 33.8734 166.507 33.7195C166.099 33.4131 165.602 33.2475 165.091 33.2475C164.828 33.2572 164.566 33.2872 164.308 33.3372L163.52 33.4552L161.986 33.6959C161.515 33.798 161.087 34.0418 160.758 34.3945C160.6 34.5636 160.467 34.7543 160.362 34.9609C160.263 35.1638 160.183 35.3998 160.098 35.6122L159.593 36.8913C159.417 37.277 159.278 37.6784 159.177 38.0902C159.121 38.462 159.151 38.8416 159.263 39.2005C159.375 39.5594 159.566 39.8882 159.824 40.1623L161.009 41.6727C161.188 41.8898 161.334 42.1069 161.504 42.2721C161.658 42.4233 161.831 42.5534 162.019 42.6592C162.38 42.8508 162.777 42.9665 163.185 42.999C163.185 42.999 163.156 42.999 163.1 42.999C163.043 42.999 162.967 42.999 162.864 42.999C162.554 42.971 162.252 42.8828 161.976 42.7394C161.777 42.6336 161.591 42.5036 161.424 42.3524C161.239 42.1619 161.064 41.9618 160.9 41.7529L159.687 40.2661C159.409 39.9756 159.201 39.6258 159.079 39.2432C158.956 38.8605 158.922 38.455 158.979 38.0572C159.074 37.6276 159.211 37.2085 159.39 36.8064L159.885 35.5273C159.975 35.3054 160.046 35.0883 160.154 34.857C160.267 34.6285 160.412 34.4172 160.584 34.2293C160.936 33.8498 161.393 33.5822 161.896 33.4599C162.415 33.3702 162.92 33.2994 163.444 33.2145L164.232 33.0965C164.503 33.0422 164.778 33.0106 165.054 33.0021C165.616 32.9969 166.165 33.176 166.616 33.5118C166.833 33.6774 167.025 33.8729 167.187 34.0924L167.659 34.6965C167.98 35.093 168.292 35.4895 168.603 35.8718C168.94 36.2475 169.164 36.7104 169.25 37.2076C169.333 37.6844 169.281 38.1751 169.099 38.6236C168.938 39.0342 168.778 39.4354 168.627 39.8272C168.476 40.2189 168.325 40.5871 168.183 40.9505C168.051 41.3055 167.843 41.6276 167.574 41.8945C167.095 42.3548 166.467 42.6279 165.804 42.6639L164.388 42.8621C163.996 42.9141 163.69 42.9565 163.482 42.9707C163.375 42.993 163.265 43.0025 163.156 42.999Z" fill="#263238"/>
<path d="M209.138 36.8394C208.806 37.4107 208.396 37.9333 207.92 38.3922C207.502 38.9089 207 39.351 206.434 39.6997C206.831 39.1778 207.268 38.6871 207.741 38.2318C208.153 37.7163 208.621 37.2492 209.138 36.8394Z" fill="#263238"/>
<path d="M200.288 34.1255C200.596 34.6806 200.809 35.2838 200.916 35.9096C201.107 36.5199 201.192 37.1586 201.166 37.7976C200.954 37.2057 200.797 36.5959 200.694 35.9757C200.502 35.3728 200.366 34.7534 200.288 34.1255Z" fill="#263238"/>
<path d="M196.767 41.4274C196.149 41.3058 195.543 41.1321 194.955 40.9082C194.342 40.7578 193.742 40.559 193.161 40.3135C194.43 40.4159 195.661 40.7962 196.767 41.4274Z" fill="#263238"/>
<path d="M195.762 49.6165C196.009 49.1229 196.327 48.6682 196.706 48.2666C197.031 47.817 197.418 47.4164 197.857 47.0771C197.613 47.5726 197.295 48.0278 196.913 48.4271C196.589 48.8767 196.201 49.2773 195.762 49.6165Z" fill="#263238"/>
<path d="M203.711 52.1985C203.521 51.7127 203.409 51.1996 203.38 50.6787C203.267 50.1677 203.237 49.6417 203.291 49.1211C203.479 49.6091 203.591 50.1234 203.621 50.6457C203.732 51.1554 203.762 51.6794 203.711 52.1985Z" fill="#263238"/>
<path d="M210.427 46.1522C209.944 46.0957 209.473 45.9585 209.035 45.7462C208.566 45.612 208.124 45.3981 207.728 45.1138C208.679 45.3069 209.592 45.6579 210.427 46.1522Z" fill="#263238"/>
<path d="M304.128 82.3454C307.323 78.4938 310.519 74.6046 313.011 70.2622C315.503 65.9198 317.259 61.0676 317.386 56.0644C317.386 55.3045 317.08 50.0417 316.348 49.8293C315.829 49.6782 315.47 54.3274 315.045 54.6626C310.967 57.8533 308.319 62.5874 306.795 67.534C305.36 72.3571 304.465 77.3247 304.128 82.3454Z" fill="#263238"/>
<path d="M262.502 111.619C263.777 108.315 270.054 91.7948 270.021 91.7948C269.988 91.7948 259.208 86.1686 262.941 74.7084C264.735 69.1719 269.356 58.0752 273.651 48.0782C275.88 42.8988 279.978 38.7484 285.128 36.4526C290.279 34.1568 296.104 33.8839 301.447 35.6882L302.547 36.0611C314.186 40.7811 316.707 53.2749 311.67 64.7776L288.542 118.35L268.275 112.086L262.502 111.619Z" fill="#FFBF9D"/>
<path d="M270.027 91.8042C270.027 91.8042 277.073 94.6362 286.362 92.4272C286.362 92.4272 279.934 99.6913 268.898 94.8203L270.027 91.8042Z" fill="#FF9A6C"/>
<path d="M273.633 59.1087C273.485 59.5321 273.509 59.9963 273.699 60.4025C273.888 60.8088 274.228 61.1252 274.647 61.2846C274.849 61.3708 275.066 61.4158 275.286 61.417C275.505 61.4182 275.722 61.3756 275.925 61.2916C276.128 61.2076 276.312 61.084 276.466 60.928C276.62 60.772 276.742 60.5867 276.823 60.3831C276.972 59.9597 276.949 59.4951 276.759 59.0885C276.569 58.6819 276.228 58.3656 275.809 58.2072C275.607 58.1203 275.39 58.0748 275.17 58.0733C274.951 58.0718 274.733 58.1143 274.53 58.1983C274.327 58.2824 274.143 58.4062 273.989 58.5626C273.835 58.719 273.714 58.9047 273.633 59.1087Z" fill="#263238"/>
<path d="M274.473 53.6479C274.605 53.9311 276.148 53.4308 277.9 54.0303C279.651 54.6297 280.642 55.9183 280.902 55.7861C281.029 55.7247 280.953 55.2716 280.529 54.6722C279.949 53.8904 279.141 53.3081 278.216 53.006C277.3 52.6898 276.307 52.6766 275.384 52.9683C274.704 53.1995 274.407 53.5205 274.473 53.6479Z" fill="#263238"/>
<path d="M289.015 65.2968C288.866 65.7195 288.889 66.1835 289.079 66.5893C289.269 66.9952 289.61 67.3106 290.029 67.468C290.231 67.5548 290.448 67.6003 290.668 67.6019C290.887 67.6034 291.105 67.5609 291.308 67.4768C291.511 67.3928 291.695 67.2689 291.849 67.1125C292.003 66.9562 292.124 66.7705 292.205 66.5664C292.352 66.143 292.329 65.6789 292.139 65.2726C291.95 64.8663 291.609 64.5499 291.19 64.3905C290.988 64.3045 290.771 64.2597 290.552 64.2588C290.332 64.2579 290.114 64.301 289.912 64.3854C289.709 64.4698 289.525 64.594 289.371 64.7505C289.217 64.907 289.096 65.0927 289.015 65.2968Z" fill="#263238"/>
<path d="M291.412 60.1565C291.539 60.4397 293.088 59.9441 294.839 60.5388C296.59 61.1335 297.576 62.4268 297.841 62.2994C297.963 62.2333 297.893 61.7802 297.468 61.1855C296.886 60.4025 296.077 59.8188 295.15 59.5146C294.235 59.1974 293.242 59.1841 292.318 59.4768C291.657 59.7081 291.346 60.0291 291.412 60.1565Z" fill="#263238"/>
<path d="M280.571 71.5083C280.613 71.4139 279.584 70.8569 277.894 70.0356C277.465 69.8374 277.068 69.6061 277.097 69.271C277.125 68.9359 277.451 68.4922 277.842 68.0485L280.32 65.0844C283.799 60.8364 286.48 57.3105 286.305 57.1689C286.131 57.0273 283.176 60.3502 279.697 64.584C278.853 65.6319 278.041 66.6278 277.271 67.586C276.931 68.058 276.445 68.53 276.445 69.2663C276.458 69.4456 276.51 69.6198 276.599 69.7759C276.689 69.9319 276.812 70.0659 276.96 70.1678C277.186 70.3179 277.431 70.44 277.687 70.5312C279.424 71.2251 280.528 71.6074 280.571 71.5083Z" fill="#263238"/>
<path d="M285.324 74.463C285.04 74.3544 284.38 76.2566 282.312 77.0542C280.245 77.8519 278.267 76.9646 278.163 77.2242C278.097 77.3327 278.494 77.7434 279.339 78.0596C280.45 78.4495 281.662 78.4378 282.765 78.0266C283.822 77.6274 284.684 76.8339 285.168 75.8129C285.508 75.0482 285.456 74.496 285.324 74.463Z" fill="#263238"/>
<path d="M293.909 53.0765C293.909 53.6099 295.75 53.9781 297.723 54.9173C299.696 55.8566 301.173 56.9847 301.589 56.6496C301.777 56.4844 301.641 55.9369 301.117 55.2336C300.414 54.3642 299.521 53.6669 298.508 53.1949C297.494 52.7229 296.386 52.4887 295.269 52.5101C294.419 52.5762 293.914 52.8264 293.909 53.0765Z" fill="#263238"/>
<path d="M277.167 48.0639C277.342 48.5689 278.687 48.5359 280.146 49.0079C281.604 49.4799 282.742 50.1832 283.162 49.8622C283.355 49.7017 283.299 49.2392 282.888 48.6775C282.318 47.9822 281.554 47.4716 280.694 47.2103C279.834 46.949 278.915 46.9488 278.055 47.2096C277.403 47.4692 277.096 47.8232 277.167 48.0639Z" fill="#263238"/>
<path d="M307.867 72.9243C308.093 72.9243 316.49 73.25 313.611 80.9483C310.732 88.6466 303.571 84.1815 303.642 83.955C303.713 83.7284 307.867 72.9243 307.867 72.9243Z" fill="#FFBF9D"/>
<path d="M307.092 81.9302C307.134 81.9302 307.191 82.0765 307.38 82.2653C307.647 82.5229 308.005 82.6653 308.376 82.6618C309.32 82.6618 310.471 81.6281 311.028 80.2499C311.297 79.5953 311.415 78.8888 311.373 78.1825C311.393 77.9131 311.346 77.6429 311.236 77.3959C311.127 77.1489 310.958 76.9327 310.745 76.7665C310.605 76.6636 310.433 76.6142 310.26 76.6272C310.087 76.6402 309.924 76.7147 309.801 76.8373C309.617 77.0167 309.608 77.1866 309.565 77.1866C309.523 77.1866 309.447 76.9931 309.627 76.7146C309.739 76.5422 309.905 76.4112 310.099 76.3417C310.371 76.2611 310.664 76.2899 310.915 76.422C311.206 76.6054 311.445 76.8598 311.61 77.1612C311.775 77.4626 311.861 77.8011 311.859 78.1448C311.935 78.9365 311.819 79.7349 311.519 80.4717C310.887 82.0057 309.551 83.1668 308.314 83.0724C308.084 83.0541 307.861 82.9849 307.661 82.8698C307.461 82.7547 307.289 82.5966 307.158 82.4069C307.035 82.1284 307.059 81.9349 307.092 81.9302Z" fill="#FF9A6C"/>
<path d="M283.501 37.2553C282.52 36.0942 287.801 33.4793 291.393 33.2811C296.821 32.9601 304.378 34.3761 308.173 37.2223C312.751 40.6443 316.032 44.8356 316.815 50.4949C317.599 56.1542 316.48 61.9692 314.285 67.2462C313.615 68.8557 312.794 70.4841 311.397 71.5272C309.674 72.8158 307.201 73.0943 306.389 75.4779C306.254 75.9132 306.035 76.3176 305.743 76.6676C305.452 77.0176 305.093 77.3062 304.689 77.5169C302.707 78.4609 301.527 76.4077 301.277 74.6849C300.744 71.0222 301.933 67.3547 303.108 63.8289C303.944 61.3367 304.807 58.7927 306.412 56.7017C307.281 55.5642 308.347 54.5871 309.155 53.3977C309.962 52.2083 310.486 50.7215 310.099 49.3479C310 49.0451 309.872 48.7526 309.716 48.4747C309.003 47.1279 307.944 45.9949 306.649 45.1921C305.353 44.3892 303.867 43.9453 302.344 43.9058C297.421 43.7783 289.128 43.2261 287.782 41.0171C285.814 37.8359 285.677 36.2027 285.677 36.2027L283.501 37.2553Z" fill="#263238"/>
<path d="M309.16 32.5116C309.655 32.7617 321.252 39.9267 321.177 50.3768C321.101 60.8269 319.19 63.3851 319.19 63.3851C319.579 63.8641 319.896 64.3967 320.134 64.9663C320.445 65.7593 318.666 68.4497 317.141 67.5529C306.729 57.891 292.38 52.3403 276.011 47.2569L263.664 42.8342C260.048 42.046 259.147 40.7008 260.912 40.3373C262.266 40.0541 273.481 39.4877 273.481 39.4877L275.902 38.742L283.454 33.4037C283.454 33.4037 283.162 32.1953 284.696 31.8036C286.23 31.4118 299.408 27.5556 309.16 32.5116Z" fill="#4D7A42"/>
<path d="M275.894 38.7607C275.894 38.7607 276.059 38.8268 276.366 38.9307L277.782 39.3743C278.999 39.7378 280.732 40.3514 282.865 41.1349C288.385 43.2594 293.709 45.8621 298.776 48.9135C303.84 51.9775 308.725 55.3279 313.408 58.9482C315.221 60.3217 316.66 61.4639 317.656 62.2522L318.813 63.1537C319.077 63.3567 319.223 63.4558 319.223 63.4558C319.223 63.4558 319.096 63.3331 318.836 63.1159L317.708 62.1719C316.722 61.3695 315.291 60.2084 313.493 58.8207C308.827 55.1578 303.94 51.7845 298.861 48.7199C293.779 45.6573 288.426 43.0677 282.87 40.9839C280.583 40.1265 278.255 39.3845 275.894 38.7607Z" fill="#263238"/>
<g opacity="0.3">
<path d="M318.76 42.0082C318.76 42.0082 305.959 35.1548 298.889 35.9855L299.72 35.8722L293.112 36.4197C291.993 36.5141 290.714 36.5472 289.949 35.7306C289.949 35.7306 293.957 34.0314 300.286 34.0644C306.616 34.0975 315.905 36.3442 318.76 42.0082Z" fill="black"/>
</g>
<path d="M318.93 42.1216C318.646 41.6944 318.331 41.2889 317.986 40.9086C317.064 39.8558 316.022 38.9148 314.88 38.1049C313.191 36.8945 311.331 35.9402 309.363 35.2729C306.964 34.3894 304.402 34.0336 301.853 34.2298C300.544 34.3617 299.245 34.5761 297.964 34.8717C296.727 35.1502 295.524 35.3437 294.386 35.6741C293.343 36.0201 292.273 36.2759 291.186 36.4388C290.235 36.5328 289.275 36.4051 288.382 36.0659C285.036 34.9661 283.228 33.5737 283.455 33.418C283.467 33.5536 283.529 33.6798 283.629 33.772C283.901 34.0376 284.206 34.2676 284.535 34.4564C285.737 35.1754 287.012 35.7625 288.34 36.2075C289.253 36.5605 290.234 36.6993 291.21 36.6134C292.308 36.4599 293.391 36.2119 294.447 35.8724C295.561 35.5656 296.779 35.3579 298.016 35.0794C299.289 34.7958 300.579 34.5878 301.877 34.4564C304.395 34.2668 306.926 34.6127 309.301 35.4712C311.255 36.1248 313.105 37.0547 314.795 38.2324C315.935 39.0259 316.985 39.9424 317.925 40.9652C318.26 41.3287 318.51 41.6213 318.671 41.8243C318.831 42.0272 318.93 42.1216 318.93 42.1216Z" fill="#263238"/>
<g opacity="0.3">
<path d="M321.026 54.6953C318.6 53.841 316.976 52.5808 314.743 51.2214C312.383 49.7771 309.972 48.4555 307.663 46.8979C305.912 45.7179 303.793 44.4718 303.014 42.6499C302.756 43.0919 302.616 43.5932 302.609 44.1052C302.601 44.6171 302.726 45.1223 302.972 45.5716C303.467 46.5156 305.568 48.2006 306.465 48.8095C311.567 52.2787 315.112 54.6481 320.813 57.0601C320.935 56.2789 321.004 55.4905 321.021 54.7001" fill="black"/>
</g>
<path d="M321.148 49.2203C322.46 50.4144 323.249 51.1885 322.843 52.5243C322.508 53.6287 321.828 54.8843 320.686 54.7096C320.348 54.6312 320.028 54.4903 319.742 54.2943L304.109 45.1422C303.543 44.8943 303.084 44.4524 302.816 43.8961C302.504 43.0087 303.288 42.0364 304.189 41.791C305.091 41.5455 306.054 41.791 306.95 42.1025C312.039 43.7498 316.678 46.2797 321.148 49.2155" fill="#4D7A42"/>
<path d="M302.986 44.2363C302.842 43.9634 302.773 43.6571 302.787 43.3489C302.822 42.933 302.974 42.5354 303.224 42.2015C303.475 41.8676 303.814 41.611 304.203 41.4609C305.204 41.1211 306.53 41.3477 307.833 41.8763C309.136 42.4049 310.604 43.0044 312.081 43.6888C314.647 44.8269 317.107 46.1917 319.43 47.7669C320.318 48.3757 321.002 48.9138 321.479 49.2867L322.017 49.7257C322.078 49.7798 322.144 49.8273 322.215 49.8673C322.215 49.8673 322.163 49.8012 322.045 49.6926L321.531 49.2206C321.059 48.8289 320.403 48.2766 319.52 47.6394C317.212 46.0198 314.75 44.6302 312.171 43.4905C310.67 42.8014 309.221 42.2067 307.89 41.6828C306.559 41.1589 305.195 40.9323 304.114 41.3146C303.704 41.478 303.35 41.7558 303.094 42.1148C302.838 42.4739 302.691 42.899 302.669 43.3395C302.663 43.576 302.713 43.8106 302.816 44.0239C302.86 44.1041 302.917 44.1759 302.986 44.2363Z" fill="#263238"/>
<path d="M281.085 35.0981L291.71 38.5013L289.799 41.1681L278.409 36.9861L281.085 35.0981Z" fill="white"/>
<path d="M293.829 49.9425C293.853 49.8859 289.383 47.5825 283.837 44.8355C278.291 42.0884 273.76 39.8653 273.76 39.922C273.76 39.9786 278.206 42.282 283.752 45.029C289.298 47.776 293.801 49.9944 293.829 49.9425Z" fill="#263238"/>
<path d="M296.505 107.206L296.647 100.23L272.773 109.098C272.773 109.098 268.36 94.7638 268.36 94.0888L263.069 97.3928L254.276 93.6168L245.482 89.2744L227.697 120.426L209.039 175.433L252.992 204.754L285.588 169.826L305.412 139.618L316.306 120.492L296.505 107.206Z" fill="#4D7A42"/>
<path d="M270.649 108.995C270.621 108.763 270.61 108.529 270.616 108.296C270.616 107.824 270.616 107.154 270.588 106.342L270.696 106.408C268.073 107.689 265.651 109.348 263.508 111.331L263.319 111.51V111.251C263.319 110.939 263.281 110.609 263.262 110.274C263.069 106.852 262.908 103.755 262.79 101.509C262.743 100.414 262.705 99.5168 262.677 98.8513C262.677 98.5618 262.677 98.3211 262.677 98.1291C262.646 98.1233 262.618 98.106 262.599 98.0806C262.58 98.0552 262.571 98.0237 262.574 97.9921C262.577 97.9604 262.591 97.9311 262.615 97.9097C262.638 97.8883 262.669 97.8765 262.701 97.8765C262.732 97.8765 262.763 97.8883 262.787 97.9097C262.81 97.9311 262.825 97.9604 262.828 97.9921C262.831 98.0237 262.822 98.0552 262.802 98.0806C262.783 98.106 262.755 98.1233 262.724 98.1291C262.724 98.3179 262.762 98.5587 262.79 98.8466C262.838 99.5121 262.899 100.409 262.974 101.499C263.126 103.741 263.31 106.838 263.503 110.26C263.503 110.595 263.541 110.925 263.555 111.237L263.352 111.152C265.512 109.155 267.971 107.508 270.64 106.271L270.753 106.224V106.342C270.753 107.154 270.72 107.81 270.711 108.296C270.707 108.53 270.687 108.764 270.649 108.995Z" fill="#263238"/>
<path d="M294.306 107.541C294.221 107.6 294.129 107.649 294.032 107.687L293.235 108.069L290.28 109.424L280.481 113.804L275.827 115.862L275.629 115.947L275.667 115.734C276.051 113.521 276.231 111.278 276.205 109.032L276.313 109.098L274.109 110.17L273.519 110.443C273.387 110.505 273.316 110.533 273.312 110.524C273.369 110.477 273.433 110.437 273.5 110.406L274.071 110.094L276.247 108.961L276.351 108.905V109.032C276.418 111.297 276.26 113.562 275.879 115.796L275.719 115.668L280.368 113.601L290.195 109.282L293.187 107.998L294.004 107.663C294.099 107.61 294.201 107.569 294.306 107.541Z" fill="#263238"/>
<path d="M252.567 72.6313H72.7823C68.9842 72.6313 65.9053 75.7103 65.9053 79.5084V203.994C65.9053 207.792 68.9842 210.871 72.7823 210.871H252.567C256.365 210.871 259.444 207.792 259.444 203.994V79.5084C259.444 75.7103 256.365 72.6313 252.567 72.6313Z" fill="#455A64"/>
<path d="M58.3389 201.941H268.025V205.637C268.025 207.865 267.14 210.002 265.564 211.578C263.988 213.153 261.851 214.038 259.623 214.038H66.7405C64.5122 214.038 62.3752 213.153 60.7996 211.578C59.224 210.002 58.3389 207.865 58.3389 205.637V201.941Z" fill="#455A64"/>
<path d="M253.709 78.1255H71.1016V194.865H253.709V78.1255Z" fill="#263238"/>
<path d="M143.597 200.647L146.197 205.117H182.81L185.227 200.647H143.597Z" fill="#263238"/>
<path d="M248.776 82.0762H76.4018C75.5494 82.0762 74.8584 82.7672 74.8584 83.6196V192.944C74.8584 193.797 75.5494 194.488 76.4018 194.488H248.776C249.629 194.488 250.32 193.797 250.32 192.944V83.6196C250.32 82.7672 249.629 82.0762 248.776 82.0762Z" fill="#EBEBEB"/>
<path d="M250.136 194.653H74.6748L74.8589 90.478H250.136V194.653Z" fill="#FAFAFA"/>
<path d="M89.6037 86.4189C89.5898 86.7012 89.4935 86.9731 89.3266 87.2012C89.1597 87.4292 88.9296 87.6032 88.6648 87.7018C88.4 87.8003 88.1121 87.819 87.8367 87.7555C87.5614 87.6921 87.3107 87.5492 87.1157 87.3447C86.9207 87.1402 86.79 86.8829 86.7398 86.6049C86.6896 86.3268 86.722 86.0401 86.8331 85.7803C86.9442 85.5205 87.1291 85.299 87.3648 85.1432C87.6005 84.9874 87.8768 84.9041 88.1594 84.9038C88.5517 84.9137 88.924 85.0788 89.1948 85.3628C89.4655 85.6468 89.6126 86.0266 89.6037 86.4189Z" fill="#263238"/>
<path d="M80.8439 86.4189C80.8301 86.7012 80.7337 86.9731 80.5669 87.2012C80.4 87.4292 80.1699 87.6032 79.905 87.7018C79.6402 87.8003 79.3523 87.819 79.0769 87.7555C78.8016 87.6921 78.5509 87.5492 78.3559 87.3447C78.161 87.1402 78.0303 86.8829 77.98 86.6049C77.9298 86.3268 77.9622 86.0401 78.0733 85.7803C78.1844 85.5205 78.3693 85.299 78.605 85.1432C78.8408 84.9874 79.117 84.9041 79.3996 84.9038C79.7919 84.9137 80.1642 85.0788 80.435 85.3628C80.7057 85.6468 80.8528 86.0266 80.8439 86.4189Z" fill="#263238"/>
<path d="M85.3469 86.4189C85.333 86.7012 85.2367 86.9731 85.0698 87.2012C84.9029 87.4292 84.6728 87.6032 84.408 87.7018C84.1431 87.8003 83.8552 87.819 83.5799 87.7555C83.3045 87.6921 83.0538 87.5492 82.8589 87.3447C82.6639 87.1402 82.5332 86.8829 82.483 86.6049C82.4327 86.3268 82.4652 86.0401 82.5763 85.7803C82.6874 85.5205 82.8722 85.299 83.108 85.1432C83.3437 84.9874 83.62 84.9041 83.9025 84.9038C84.2948 84.9137 84.6672 85.0788 84.9379 85.3628C85.2087 85.6468 85.3557 86.0266 85.3469 86.4189Z" fill="#263238"/>
<path d="M257.783 200.648C257.783 200.723 214.831 200.78 161.849 200.78C108.867 200.78 65.9053 200.723 65.9053 200.648C65.9053 200.572 108.857 200.511 161.849 200.511C214.84 200.511 257.783 200.572 257.783 200.648Z" fill="#263238"/>
<path d="M143.743 110.448C146.596 108.726 149.665 107.393 152.871 106.484L154.759 97.4448L170.024 97.1758L172.223 106.144C175.458 106.943 178.572 108.168 181.484 109.788L189.201 104.732L200.184 115.338L195.408 123.235C197.131 126.089 198.464 129.161 199.373 132.368L208.407 134.256L208.676 149.521L199.708 151.72C198.907 154.946 197.68 158.051 196.059 160.952L201.119 168.67L190.513 179.653L182.626 174.872C179.772 176.595 176.7 177.928 173.493 178.837L171.605 187.875L156.336 188.14L154.141 179.172C150.915 178.381 147.808 177.164 144.904 175.551L137.187 180.611L126.203 170.005L130.985 162.118C129.26 159.264 127.925 156.193 127.015 152.985L117.981 151.097L117.712 135.833L126.68 133.633C127.478 130.398 128.703 127.284 130.324 124.372L125.269 116.655L135.874 105.672L143.743 110.448ZM151.88 130.787C149.63 133.117 148.122 136.063 147.546 139.25C146.97 142.438 147.352 145.725 148.644 148.695C149.936 151.665 152.08 154.186 154.804 155.938C157.529 157.69 160.712 158.595 163.95 158.538C167.189 158.482 170.338 157.466 173 155.619C175.661 153.773 177.715 151.179 178.902 148.165C180.089 145.151 180.356 141.853 179.669 138.687C178.982 135.522 177.371 132.631 175.041 130.381C173.493 128.888 171.666 127.714 169.664 126.927C167.662 126.14 165.524 125.755 163.374 125.794C161.223 125.833 159.101 126.295 157.129 127.154C155.157 128.013 153.373 129.253 151.88 130.801V130.787Z" fill="#E0E0E0"/>
<path d="M204.73 116.287C204.939 115.158 205.296 114.061 205.792 113.025L203.904 110.476L207.321 106.474L210.153 107.956C211.098 107.305 212.125 106.783 213.207 106.403L213.679 103.255L218.923 102.844L219.867 105.879C220.997 106.088 222.094 106.447 223.129 106.946L225.677 105.058L229.68 108.48L228.198 111.312C228.851 112.257 229.375 113.286 229.756 114.37L232.899 114.842L233.31 120.091L230.275 121.035C230.068 122.165 229.709 123.262 229.208 124.297L231.096 126.85L227.679 130.848L224.847 129.366C223.901 130.019 222.873 130.543 221.788 130.924L221.316 134.072L216.072 134.482L215.128 131.443C213.999 131.236 212.902 130.879 211.867 130.381L209.313 132.269L205.32 128.809L206.802 125.977C206.15 125.031 205.626 124.002 205.245 122.918L202.101 122.446L201.69 117.198L204.725 116.254L204.73 116.287ZM211.843 117.877C211.731 119.058 211.992 120.244 212.59 121.268C213.188 122.292 214.092 123.102 215.175 123.585C216.257 124.068 217.465 124.199 218.626 123.96C219.787 123.72 220.844 123.122 221.647 122.25C222.451 121.378 222.96 120.276 223.104 119.099C223.248 117.922 223.019 116.73 222.449 115.69C221.879 114.65 220.997 113.816 219.928 113.304C218.858 112.792 217.655 112.628 216.488 112.836C215.269 113.054 214.155 113.664 213.316 114.575C212.478 115.485 211.96 116.645 211.843 117.877Z" fill="#E0E0E0"/>
<path d="M89.7833 168.976C89.8215 167.62 90.0422 166.275 90.4394 164.978L87.7632 162.368L91.0389 157.091L94.5883 158.318C95.5796 157.388 96.6908 156.594 97.8923 155.958L97.864 152.206L103.915 150.79L105.553 154.165C106.909 154.203 108.254 154.423 109.551 154.821L112.189 152.145L117.466 155.42L116.239 158.97C117.169 159.961 117.963 161.072 118.599 162.274L122.351 162.245L123.767 168.292L120.388 169.92C120.346 171.276 120.124 172.621 119.727 173.918L122.403 176.552L119.128 181.833L115.578 180.606C114.588 181.538 113.476 182.331 112.274 182.966L112.302 186.719L106.256 188.135L104.614 184.76C103.261 184.713 101.921 184.484 100.63 184.08L97.9961 186.756L92.7144 183.481L93.9416 179.931C93.0114 178.94 92.2177 177.829 91.5816 176.627L87.8056 176.656L86.3896 170.609L89.7644 168.967L89.7833 168.976ZM98.5295 170.675C98.8327 171.957 99.509 173.121 100.473 174.019C101.437 174.916 102.645 175.508 103.946 175.72C105.246 175.931 106.58 175.752 107.779 175.206C108.977 174.66 109.987 173.771 110.681 172.651C111.375 171.531 111.721 170.231 111.676 168.914C111.631 167.597 111.197 166.324 110.428 165.254C109.66 164.184 108.592 163.366 107.359 162.902C106.125 162.439 104.782 162.352 103.5 162.651C102.644 162.851 101.837 163.217 101.124 163.729C100.41 164.242 99.8053 164.89 99.3435 165.637C98.8816 166.384 98.5719 167.215 98.4322 168.082C98.2925 168.949 98.3256 169.835 98.5295 170.69V170.675Z" fill="#E0E0E0"/>
<path d="M100.644 118.557C100.798 117.705 101.068 116.878 101.447 116.098L100.031 114.172L102.608 111.156L104.732 112.275C105.444 111.783 106.219 111.388 107.035 111.1L107.384 108.74L111.34 108.428L112.048 110.717C112.899 110.876 113.726 111.146 114.507 111.52L116.433 110.104L119.444 112.681L118.33 114.805C118.822 115.517 119.216 116.291 119.501 117.108L121.861 117.453L122.172 121.408L119.888 122.097C119.731 122.949 119.463 123.776 119.09 124.556L120.506 126.477L117.929 129.494L115.805 128.375C115.093 128.868 114.319 129.264 113.501 129.55L113.157 131.91L109.202 132.217L108.489 129.928C107.637 129.773 106.809 129.503 106.03 129.125L104.109 130.541L101.093 127.964L102.206 125.84C101.715 125.129 101.321 124.354 101.036 123.537L98.6759 123.188L98.3691 119.232L100.658 118.524L100.644 118.557ZM106.001 120.478C106.068 121.315 106.381 122.113 106.901 122.772C107.422 123.431 108.125 123.921 108.924 124.181C109.722 124.44 110.58 124.457 111.388 124.229C112.196 124.002 112.918 123.54 113.464 122.902C114.01 122.264 114.354 121.479 114.454 120.645C114.554 119.812 114.404 118.967 114.024 118.219C113.645 117.47 113.051 116.851 112.32 116.439C111.588 116.027 110.751 115.841 109.914 115.905C109.357 115.947 108.813 116.099 108.314 116.352C107.815 116.605 107.372 116.954 107.008 117.379C106.644 117.804 106.368 118.296 106.196 118.828C106.023 119.36 105.957 119.921 106.001 120.478Z" fill="#EBEBEB"/>
<path d="M204.928 161.155C205.064 160.423 205.296 159.712 205.617 159.04L204.385 157.388L206.599 154.797L208.425 155.741C209.036 155.318 209.702 154.978 210.403 154.731L210.7 152.692L214.099 152.428L214.708 154.396C215.44 154.53 216.151 154.762 216.822 155.085L218.474 153.853L221.066 156.067L220.122 157.889C220.545 158.502 220.885 159.168 221.132 159.871L223.171 160.169L223.435 163.567L221.467 164.176C221.332 164.908 221.101 165.619 220.778 166.29L222.01 167.942L219.796 170.529L217.974 169.585C217.36 170.007 216.694 170.346 215.992 170.595L215.694 172.629L212.296 172.894L211.687 170.93C210.955 170.794 210.244 170.562 209.572 170.241L207.92 171.473L205.32 169.259L206.264 167.437C205.84 166.826 205.5 166.161 205.254 165.46L203.219 165.162L202.95 161.764L204.918 161.155H204.928ZM209.53 162.802C209.586 163.525 209.855 164.214 210.303 164.783C210.751 165.353 211.358 165.776 212.047 166C212.736 166.223 213.476 166.238 214.173 166.04C214.871 165.843 215.493 165.443 215.963 164.891C216.432 164.339 216.727 163.661 216.811 162.941C216.894 162.221 216.762 161.493 216.431 160.849C216.099 160.204 215.584 159.673 214.951 159.321C214.317 158.97 213.594 158.815 212.872 158.875C211.908 158.955 211.016 159.413 210.39 160.149C209.763 160.885 209.454 161.839 209.53 162.802Z" fill="#EBEBEB"/>
<path d="M163.184 166.276H139.712C138.332 166.273 136.977 165.907 135.783 165.216C134.589 164.525 133.597 163.533 132.907 162.338C132.216 161.144 131.851 159.789 131.849 158.409C131.846 157.03 132.205 155.673 132.891 154.476L144.634 134.138L156.373 113.799C157.065 112.603 158.06 111.609 159.258 110.919C160.455 110.228 161.813 109.864 163.196 109.864C164.578 109.864 165.936 110.228 167.134 110.919C168.331 111.609 169.326 112.603 170.019 113.799L181.762 134.138L193.505 154.476C194.191 155.674 194.551 157.03 194.548 158.411C194.545 159.791 194.18 161.146 193.489 162.34C192.798 163.535 191.805 164.527 190.61 165.218C189.416 165.909 188.06 166.274 186.68 166.276H163.184Z" fill="#4D7A42"/>
<path d="M188.465 156.808C188.465 156.808 188.526 156.926 188.644 157.171C188.845 157.663 188.922 158.197 188.868 158.726C188.814 159.254 188.63 159.761 188.332 160.202C188.099 160.549 187.799 160.848 187.45 161.08C187.044 161.338 186.58 161.49 186.1 161.523C182.097 161.566 176.32 161.556 169.174 161.575L144.073 161.603H140.486C139.846 161.597 139.224 161.391 138.706 161.016C138.187 160.64 137.798 160.114 137.592 159.508C137.374 158.903 137.333 158.247 137.474 157.62C137.512 157.464 137.564 157.308 137.616 157.148C137.668 156.987 137.753 156.85 137.824 156.709L138.296 155.883C138.9 154.774 139.513 153.66 140.127 152.532L147.736 138.565L155.391 124.608C156.622 122.352 157.833 120.138 159.026 117.967C159.328 117.429 159.606 116.886 159.927 116.353C160.246 115.808 160.702 115.356 161.249 115.041C161.785 114.734 162.387 114.559 163.004 114.531C163.622 114.503 164.237 114.623 164.798 114.88C165.356 115.132 165.842 115.518 166.214 116.004C166.537 116.493 166.828 117.002 167.088 117.528C167.64 118.538 168.187 119.534 168.721 120.516C169.797 122.479 170.837 124.385 171.841 126.232C173.856 129.918 175.73 133.354 177.439 136.488C180.856 142.761 183.617 147.84 185.529 151.356L187.719 155.401C187.964 155.873 188.153 156.213 188.28 156.459C188.408 156.704 188.469 156.822 188.469 156.822C188.469 156.822 188.394 156.704 188.262 156.468L187.676 155.425L185.444 151.399C183.518 147.892 180.724 142.832 177.288 136.573L171.666 126.326L168.532 120.62C167.994 119.638 167.451 118.642 166.894 117.632C166.634 117.122 166.346 116.627 166.03 116.15C165.682 115.697 165.228 115.335 164.709 115.097C164.18 114.855 163.601 114.742 163.02 114.768C162.438 114.794 161.872 114.959 161.367 115.248C160.855 115.548 160.43 115.973 160.13 116.485C159.819 116.999 159.536 117.552 159.238 118.09L155.604 124.731C153.14 129.243 150.582 133.911 147.967 138.697L140.325 152.654C139.707 153.782 139.098 154.901 138.489 156.006C138.157 156.526 137.896 157.088 137.71 157.676C137.576 158.265 137.613 158.879 137.819 159.446C138.005 160.008 138.364 160.498 138.843 160.846C139.322 161.194 139.898 161.383 140.49 161.386H144.078L169.179 161.41L186.1 161.434C186.563 161.406 187.013 161.264 187.407 161.018C187.751 160.795 188.048 160.506 188.28 160.169C188.644 159.634 188.838 159.002 188.837 158.356C188.832 157.818 188.704 157.289 188.465 156.808Z" fill="#263238"/>
<path d="M159.38 152.456C159.38 150.374 161.041 148.822 163.406 148.822C165.771 148.822 167.394 150.374 167.394 152.456C167.394 154.538 165.771 156.161 163.406 156.161C161.041 156.161 159.38 154.509 159.38 152.456ZM159.418 131.136H167.394L166.054 146.844H160.725L159.418 131.136Z" fill="white"/>
<path d="M164.308 111.449C163.825 111.286 163.324 111.181 162.817 111.137C161.582 111.111 160.377 111.514 159.409 112.279C158.463 113.068 157.701 114.054 157.176 115.168C156.747 116.018 156.544 116.584 156.506 116.56C156.519 116.421 156.552 116.284 156.605 116.155C156.723 115.793 156.862 115.438 157.02 115.093C157.519 113.923 158.291 112.891 159.272 112.081C160.282 111.28 161.554 110.883 162.84 110.967C163.226 110.996 163.604 111.089 163.959 111.241C164.19 111.35 164.317 111.435 164.308 111.449Z" fill="white"/>
<path d="M154.49 120.077C154.587 119.67 154.762 119.285 155.005 118.944C155.349 118.364 155.675 117.92 155.736 117.953C155.637 118.354 155.46 118.732 155.217 119.067C155.042 119.447 154.795 119.79 154.49 120.077Z" fill="white"/>
<g opacity="0.3">
<path d="M174.965 122.371L138.39 144.904L133.642 153.136L177.547 126.841L174.965 122.371Z" fill="white"/>
</g>
<g opacity="0.3">
<path d="M180.723 132.358L132.244 160.952C132.439 161.702 132.798 162.399 133.297 162.991L181.578 133.84L180.723 132.358Z" fill="white"/>
</g>
<path d="M300.531 185.685C298.688 183.654 296.3 182.197 293.651 181.487C291.002 180.777 288.204 180.845 285.593 181.683L281.076 176.727L280.448 176.023L244.703 136.805C245.708 134.477 246.075 131.924 245.766 129.407C245.457 126.891 244.483 124.502 242.945 122.486C241.407 120.471 239.36 118.901 237.015 117.938C234.669 116.976 232.11 116.655 229.599 117.009L227.853 117.703L233.927 121.776L233.602 128.408L228.688 132.868L222.057 132.543L217.724 127.766L215.935 128.469C215.42 132.467 218.101 137.508 221.023 140.741C222.863 142.77 225.247 144.226 227.892 144.937C230.536 145.647 233.33 145.582 235.938 144.749L272.282 184.623L273.396 185.865L276.842 189.641C275.764 192.153 275.431 194.922 275.882 197.618C276.333 200.314 277.549 202.824 279.386 204.848C282.293 208.058 286.154 210.201 290.171 210.092L291.965 209.394L287.627 204.612L287.953 198.004L292.866 193.544L299.474 193.865L302.013 199.345L303.807 198.642C304.36 196.379 304.351 194.015 303.78 191.756C303.209 189.498 302.094 187.413 300.531 185.685Z" fill="#E0E0E0"/>
<g opacity="0.3">
<path d="M300.531 185.685C298.688 183.654 296.3 182.197 293.651 181.487C291.002 180.777 288.204 180.845 285.593 181.683L281.076 176.727L280.448 176.023L244.703 136.805C245.708 134.477 246.075 131.924 245.766 129.407C245.457 126.891 244.483 124.502 242.945 122.486C241.407 120.471 239.36 118.901 237.015 117.938C234.669 116.976 232.11 116.655 229.599 117.009L227.853 117.703L233.927 121.776L233.602 128.408L228.688 132.868L222.057 132.543L217.724 127.766L215.935 128.469C215.42 132.467 218.101 137.508 221.023 140.741C222.863 142.77 225.247 144.226 227.892 144.937C230.536 145.647 233.33 145.582 235.938 144.749L272.282 184.623L273.396 185.865L276.842 189.641C275.764 192.153 275.431 194.922 275.882 197.618C276.333 200.314 277.549 202.824 279.386 204.848C282.293 208.058 286.154 210.201 290.171 210.092L291.965 209.394L287.627 204.612L287.953 198.004L292.866 193.544L299.474 193.865L302.013 199.345L303.807 198.642C304.36 196.379 304.351 194.015 303.78 191.756C303.209 189.498 302.094 187.413 300.531 185.685Z" fill="black"/>
</g>
<path d="M298.738 186.383C296.896 184.353 294.508 182.896 291.86 182.187C289.211 181.478 286.414 181.547 283.804 182.386L279.282 177.425L278.655 176.722L242.91 137.503C243.915 135.176 244.282 132.622 243.973 130.106C243.665 127.589 242.691 125.201 241.153 123.185C239.615 121.17 237.568 119.6 235.222 118.639C232.876 117.677 230.316 117.357 227.806 117.712L232.139 122.489L231.818 129.097L226.895 133.576L220.287 133.255L215.954 128.478C215.355 130.941 215.423 133.519 216.15 135.946C216.877 138.374 218.238 140.564 220.093 142.292C221.947 144.019 224.228 145.222 226.701 145.775C229.174 146.329 231.75 146.214 234.164 145.442L270.508 185.317L271.627 186.558L275.072 190.334C274.072 192.661 273.708 195.212 274.019 197.725C274.33 200.239 275.305 202.624 276.842 204.637C278.38 206.65 280.425 208.217 282.768 209.178C285.111 210.139 287.668 210.46 290.176 210.106L285.839 205.32L286.159 198.712L291.078 194.252L297.686 194.577L302.019 199.354C302.575 197.089 302.567 194.721 301.995 192.46C301.423 190.198 300.305 188.112 298.738 186.383Z" fill="#E0E0E0"/>
<path d="M298.738 186.384C298.738 186.384 298.945 186.61 299.337 187.068C299.895 187.765 300.39 188.51 300.815 189.296C302.455 192.38 302.908 195.958 302.089 199.354V199.448L302.023 199.378L297.685 194.606L297.723 194.629L291.115 194.313H291.162L286.253 198.778V198.726C286.159 200.784 286.05 203.026 285.937 205.358V205.297L290.237 210.04L290.35 210.163L290.185 210.186C287.792 210.534 285.349 210.27 283.085 209.419C280.822 208.568 278.81 207.158 277.238 205.32C275.528 203.334 274.401 200.913 273.981 198.325C273.536 195.612 273.873 192.829 274.954 190.301V190.414L234.036 145.532L234.163 145.565C231.578 146.382 228.815 146.461 226.187 145.792C222.526 144.845 219.384 142.495 217.441 139.251C215.498 136.008 214.91 132.129 215.803 128.455L215.859 128.228L216.015 128.398L220.348 133.175L220.263 133.137L226.895 133.458L226.805 133.491L231.752 129.026L231.709 129.111C231.818 126.874 231.926 124.67 232.035 122.479L232.063 122.564L227.73 117.788L227.584 117.623L227.801 117.594C230.411 117.225 233.072 117.581 235.495 118.621C237.917 119.661 240.007 121.347 241.536 123.494C242.999 125.543 243.896 127.941 244.137 130.447C244.36 132.862 243.978 135.295 243.028 137.527V137.414L283.879 182.329H283.823C285.767 181.708 287.822 181.51 289.849 181.749C291.876 181.987 293.828 182.657 295.575 183.712C296.463 184.254 297.292 184.887 298.049 185.6C298.521 186.105 298.776 186.365 298.776 186.365L298.03 185.619C297.266 184.909 296.435 184.277 295.547 183.731C293.804 182.692 291.86 182.036 289.845 181.806C287.829 181.577 285.787 181.779 283.856 182.4H283.823V182.372L242.895 137.532L242.848 137.48L242.877 137.418C243.812 135.213 244.186 132.809 243.962 130.423C243.726 127.955 242.84 125.594 241.394 123.579C239.889 121.467 237.832 119.809 235.448 118.786C233.064 117.763 230.445 117.414 227.876 117.778L227.947 117.585L232.224 122.409L232.257 122.442V122.494C232.153 124.677 232.046 126.88 231.936 129.102V129.154L231.898 129.187L226.984 133.647L226.947 133.68H226.895L220.287 133.354H220.235L220.202 133.317L215.864 128.54L216.076 128.488C215.484 130.928 215.551 133.482 216.27 135.888C216.99 138.294 218.337 140.465 220.172 142.179C222.008 143.893 224.266 145.088 226.715 145.641C229.165 146.195 231.717 146.087 234.112 145.329H234.182L234.239 145.386C249.097 161.707 263.031 176.986 275.128 190.287L275.176 190.339L275.147 190.405C274.085 192.891 273.75 195.628 274.18 198.297C274.594 200.782 275.659 203.114 277.268 205.053C278.876 206.992 280.97 208.471 283.336 209.337C285.519 210.127 287.863 210.37 290.162 210.045L290.105 210.191L285.777 205.415L285.753 205.386V205.32C285.866 202.993 285.975 200.751 286.079 198.712V198.679V198.656L291.002 194.205H291.03L297.638 194.535C299.224 196.291 300.682 197.9 301.962 199.321H301.877C302.702 195.946 302.267 192.387 300.654 189.31C300.235 188.524 299.75 187.776 299.205 187.073C298.931 186.624 298.738 186.384 298.738 186.384Z" fill="#263238"/>
<path d="M241.281 139.793C241.248 139.918 241.196 140.037 241.126 140.147C240.96 140.454 240.776 140.75 240.573 141.034C239.235 142.938 237.348 144.388 235.164 145.192C234.838 145.315 234.504 145.416 234.164 145.494C234.042 145.535 233.914 145.556 233.786 145.556C233.786 145.513 234.301 145.372 235.103 145.032C237.208 144.156 239.047 142.743 240.437 140.935C240.97 140.241 241.244 139.774 241.281 139.793Z" fill="#263238"/>
<path d="M281.198 156.827L267.623 150.502L255.488 148.987L259.944 152.763C259.944 152.763 244.255 158.233 243.981 159.465C243.707 160.697 245.218 164.011 247.984 163.397C247.984 163.397 246.431 165.285 247.077 167.366C247.724 169.448 249.154 169.84 251.797 169.354C251.797 169.354 250.004 172.039 251.41 173.408C252.817 174.777 255.007 174.432 255.007 174.432C255.007 174.432 255.035 177.703 256.763 177.986C258.49 178.27 263.305 177.935 265.103 177.382L274.236 174.55L280.155 173.224L281.198 156.827Z" fill="#FFBF9D"/>
<path d="M256.21 160.981C256.262 161.16 254.455 161.84 252.18 162.505C249.905 163.171 248.007 163.558 247.955 163.378C247.903 163.199 249.711 162.515 251.986 161.854C254.261 161.193 256.159 160.801 256.21 160.981Z" fill="#FF9A6C"/>
<path d="M258.519 167.433C258.571 167.612 257.141 168.202 255.319 168.754C253.497 169.307 251.972 169.599 251.916 169.42C251.859 169.241 253.299 168.651 255.121 168.103C256.942 167.555 258.467 167.258 258.519 167.433Z" fill="#FF9A6C"/>
<path d="M260.591 172.799C260.624 173.002 259.322 173.271 257.792 173.658C256.263 174.046 255.069 174.602 254.96 174.409C254.852 174.215 255.975 173.437 257.604 172.993C259.232 172.549 260.568 172.634 260.591 172.799Z" fill="#FF9A6C"/>
<path d="M262.304 152.22C262.356 152.404 260.577 153.051 258.372 153.811C256.168 154.571 254.37 155.152 254.294 154.977C254.219 154.802 255.928 153.934 258.155 153.169C260.383 152.404 262.257 152.041 262.304 152.22Z" fill="#FF9A6C"/>
<path d="M278.64 155.638L308.041 166.286L306.323 186.464L273.953 173.413L278.64 155.638Z" fill="#FFBF9D"/>
<path d="M316.363 120.327C316.363 120.327 320.195 124.287 322.428 131.41C324.66 138.532 335.172 168.726 334.917 178.331C334.638 188.267 327.95 195.356 313.252 191.429C304.482 189.069 294.032 185.293 294.032 185.293L301.462 160.872L307.272 162.368L297.888 144.753L316.363 120.327Z" fill="#4D7A42"/>
<path d="M309.632 131.867C309.689 131.91 305.62 137.701 300.551 144.805C295.482 151.908 291.333 157.648 291.276 157.601C291.219 157.554 295.288 151.767 300.357 144.663C305.427 137.56 309.58 131.83 309.632 131.867Z" fill="#263238"/>
<path d="M320.884 165.672C320.884 165.672 320.629 165.549 320.171 165.337C319.519 165.046 318.845 164.808 318.156 164.624C317.283 164.383 316.225 164.152 315.05 163.902L311.236 163.062C308.532 162.458 306.082 161.896 304.317 161.476L302.226 160.966C301.966 160.917 301.712 160.844 301.466 160.749C301.728 160.771 301.989 160.813 302.245 160.876L304.354 161.306C306.134 161.684 308.602 162.217 311.293 162.821L315.102 163.685C316.272 163.949 317.33 164.195 318.203 164.459C318.896 164.66 319.57 164.925 320.214 165.252C320.388 165.341 320.557 165.44 320.719 165.549C320.779 165.583 320.834 165.624 320.884 165.672Z" fill="#263238"/>
<g opacity="0.3">
<path d="M328.398 166.748C328.304 166.169 328.071 165.62 327.72 165.15C327.368 164.68 326.908 164.302 326.378 164.048C325.315 163.546 324.17 163.239 322.999 163.142C317.717 162.415 312.374 162.198 307.045 162.014L307.517 162.227C314.101 163.444 320.545 165.322 326.751 167.834C327.091 168.022 327.491 168.07 327.865 167.966C328.067 167.842 328.227 167.658 328.322 167.441C328.417 167.223 328.444 166.981 328.398 166.748Z" fill="black"/>
</g>
<g opacity="0.3">
<path d="M207.274 73.1223C202.318 72.2775 196.39 73.7171 191.434 72.8722C190.697 72.7495 189.885 72.6315 189.234 73.0091C188.451 73.4575 188.181 74.4581 188.144 75.3691C188.124 76.6189 188.366 77.8592 188.853 79.0102C189.341 80.1611 190.064 81.1974 190.976 82.0526C192.832 83.7493 195.15 84.8566 197.636 85.2339C199.613 85.569 201.742 85.5029 203.503 84.5495C206.599 82.8691 208.086 76.5255 207.274 73.1223Z" fill="black"/>
</g>
<path d="M188.039 82.1894C188.039 82.1894 185.033 78.6635 184.599 77.0398C184.311 75.9637 184.452 72.9476 184.599 71.036C184.632 70.3918 184.853 69.7715 185.235 69.2515C185.616 68.7314 186.142 68.3345 186.746 68.1096C186.923 68.0217 187.121 67.9837 187.318 67.9995C187.515 68.0153 187.704 68.0843 187.865 68.1993C188.273 67.6456 188.731 67.1305 189.234 66.6606C190.414 65.4522 190.975 64.6357 193.571 65.3862C193.571 65.3862 195.483 63.3707 196.583 63.5218C197.321 63.6309 198.051 63.7886 198.768 63.9938C198.768 63.9938 202.955 63.8144 203.814 65.1454C204.302 65.7463 204.96 66.1856 205.702 66.4057C206.357 66.6368 206.958 66.9969 207.472 67.4647C207.985 67.9324 208.399 68.4984 208.689 69.1291C209.178 70.2875 209.461 71.5222 209.525 72.7777L205.277 72.9476C205.277 72.9476 205.579 82.7227 204.508 83.511C203.436 84.2992 203.03 84.016 203.03 84.016C203.03 84.016 202.214 86.3099 199.028 84.6154C199.028 84.6154 196.384 85.4131 195.252 84.3228C194.119 83.2325 189.975 72.7588 189.975 72.7588L190.093 77.9508C190.093 77.9508 192.278 81.3162 191.207 82.1044C190.135 82.8926 188.039 82.1894 188.039 82.1894Z" fill="#FFBF9D"/>
<path d="M193.345 68.9404C193.445 69.1364 193.526 69.342 193.585 69.554L194.161 71.2532C194.633 72.6692 195.28 74.6894 195.969 76.8936C196.658 79.0979 197.234 81.1416 197.885 82.4821C198.136 83.0221 198.426 83.5428 198.754 84.0397C198.985 84.3937 199.131 84.5731 199.117 84.5872C199.103 84.6014 199.065 84.5542 198.99 84.4692C198.879 84.3508 198.775 84.2263 198.678 84.0963C198.316 83.6145 198 83.0993 197.734 82.5576C197.031 81.1936 196.441 79.1687 195.742 76.9692C195.044 74.7696 194.435 72.7589 194.001 71.3052C193.803 70.6113 193.633 70.0355 193.5 69.5823C193.429 69.3736 193.377 69.1587 193.345 68.9404Z" fill="#FF9A6C"/>
<path d="M198.57 67.7324C198.665 67.9349 198.738 68.147 198.787 68.3649L199.292 70.116C199.703 71.5934 200.236 73.6419 200.86 75.9075C201.483 78.1731 201.988 80.231 202.356 81.7225C202.53 82.4305 202.672 83.0252 202.785 83.4878C202.849 83.7033 202.89 83.9247 202.908 84.1486C202.819 83.944 202.746 83.7324 202.691 83.5161C202.559 83.0441 202.394 82.4683 202.191 81.765C201.775 80.2876 201.218 78.2391 200.624 75.9735C200.029 73.7079 199.495 71.65 199.123 70.1585C198.953 69.4458 198.806 68.8558 198.698 68.3885C198.634 68.1744 198.592 67.9547 198.57 67.7324Z" fill="#FF9A6C"/>
</svg>
