<svg width="23" height="23" viewBox="0 0 23 23" fill="none" xmlns="http://www.w3.org/2000/svg">
<path d="M20.1 8.78307C20.1029 10.091 19.5961 11.3493 18.6858 12.2936C16.5987 14.445 14.5741 16.6882 12.41 18.7605C11.9133 19.228 11.1258 19.211 10.6513 18.7223L4.41397 12.2945C2.52868 10.3513 2.52868 7.21479 4.41397 5.27252C4.85955 4.80756 5.39547 4.4374 5.98923 4.18448C6.583 3.93156 7.22224 3.80114 7.86821 3.80114C8.51418 3.80114 9.15343 3.93156 9.74719 4.18448C10.341 4.4374 10.8769 4.80756 11.3225 5.27252L11.5499 5.50542L11.7765 5.27252C12.2229 4.80866 12.759 4.43917 13.3526 4.1862C13.9461 3.93323 14.5849 3.80197 15.2307 3.80029C16.5303 3.80029 17.7726 4.3307 18.6849 5.27252C19.5955 6.21675 20.1027 7.47499 20.1 8.78307V8.78307Z" stroke="#4D7A42" stroke-width="1.67" stroke-linejoin="round"/>
</svg>
