<svg width="24" height="24" viewBox="0 0 24 24" fill="none" xmlns="http://www.w3.org/2000/svg">
<path d="M20.8304 8.01008L14.2804 2.77008C13.6269 2.27225 12.8286 2.00181 12.0071 2.00001C11.1856 1.9982 10.3861 2.26513 9.7304 2.76008L3.1804 8.01008C2.69842 8.43125 2.32699 8.96413 2.09862 9.56208C1.87025 10.16 1.79189 10.8048 1.8704 11.4401L3.1304 18.9801C3.28962 19.8162 3.73103 20.5723 4.38084 21.122C5.03065 21.6717 5.84947 21.9817 6.7004 22.0001H17.3004C18.1515 21.9731 18.9684 21.659 19.6184 21.1089C20.2684 20.5588 20.7131 19.805 20.8804 18.9701L22.1404 11.4301C22.2087 10.797 22.1255 10.1568 21.8977 9.56215C21.6699 8.96753 21.3041 8.43556 20.8304 8.01008ZM12.7504 18.0001C12.7504 18.199 12.6714 18.3898 12.5307 18.5304C12.3901 18.6711 12.1993 18.7501 12.0004 18.7501C11.8015 18.7501 11.6107 18.6711 11.4701 18.5304C11.3294 18.3898 11.2504 18.199 11.2504 18.0001V15.0001C11.2504 14.8012 11.3294 14.6104 11.4701 14.4697C11.6107 14.3291 11.8015 14.2501 12.0004 14.2501C12.1993 14.2501 12.3901 14.3291 12.5307 14.4697C12.6714 14.6104 12.7504 14.8012 12.7504 15.0001V18.0001Z" fill="#012921"/>
</svg>
