<svg width="20" height="18" viewBox="0 0 20 18" fill="none" xmlns="http://www.w3.org/2000/svg">
<path d="M0.334219 0.399788C1.37195 0.0253885 3.42664 -0.410212 5.75719 0.757597C6.38624 1.10813 6.96728 1.53887 7.48578 2.03904C8.30352 1.89105 9.14578 1.81631 10.0008 1.81631C12.5597 1.81631 14.9858 2.4881 16.8323 3.70748C17.788 4.3396 18.5481 5.08902 19.0905 5.93557C19.6941 6.87916 20.0007 7.89311 20 8.98102C20 10.0391 19.6941 11.0545 19.0898 11.9974C18.5474 12.8447 17.7872 13.5934 16.8316 14.2255C14.9858 15.4448 12.5597 16.1159 10 16.1159C9.145 16.1159 8.30273 16.0411 7.48508 15.8932C6.96656 16.3933 6.38552 16.8241 5.75648 17.1746C3.42508 18.3424 1.37125 17.9068 0.333516 17.5317C-0.00742186 17.4085 -0.111953 16.975 0.139453 16.7144C0.871328 15.9552 2.08219 14.4542 1.78453 13.0898C0.6275 11.9026 0 10.471 0 8.95198C0 7.46135 0.627422 6.02972 1.78531 4.84172C2.08297 3.4774 0.872109 1.97706 0.140234 1.21793C-0.111953 0.957162 -0.00664063 0.523049 0.334219 0.399788ZM9.89633 3.81439C5.40656 3.81439 1.76664 6.17395 1.76664 9.08424C1.76664 10.3521 2.45742 11.5163 3.60938 12.4256C3.93391 13.462 3.74375 14.6305 3.03937 15.9306C3.00578 15.9934 2.97453 16.0561 2.94016 16.1182C3.54445 16.0681 4.15547 15.9015 4.77391 15.5974C5.2449 15.3312 5.68054 15.0066 6.07055 14.6313L6.77336 13.9521C7.735 14.2113 8.78992 14.3548 9.89633 14.3548C14.386 14.3548 18.0259 11.996 18.0266 9.08424C18.0266 6.17395 14.386 3.81439 9.89633 3.81439ZM6.00641 7.87308C6.66813 7.87308 7.20453 8.40807 7.20453 9.06781C7.20453 9.72754 6.66813 10.2626 6.00641 10.2626C5.34469 10.2626 4.80828 9.72762 4.80828 9.06781C4.80828 8.40807 5.34469 7.87308 6.00641 7.87308ZM9.86344 7.87308C10.5252 7.87308 11.0616 8.40807 11.0616 9.06781C11.0616 9.72754 10.5252 10.2626 9.86352 10.2626C9.2018 10.2626 8.66531 9.72762 8.66531 9.06781C8.66531 8.40807 9.20172 7.87315 9.86352 7.87315L9.86344 7.87308ZM13.7205 7.87308C14.3814 7.87308 14.9186 8.40807 14.9186 9.06781C14.9186 9.72754 14.3822 10.2626 13.7205 10.2626C13.0588 10.2626 12.5223 9.72762 12.5223 9.06781C12.5223 8.40807 13.0588 7.87315 13.7205 7.87315L13.7205 7.87308Z" fill="#BCBCBC"/>
</svg>
