<svg width="12" height="12" viewBox="0 0 12 12" fill="none" xmlns="http://www.w3.org/2000/svg">
<path d="M9.73327 5.06634C9.73327 7.12807 5.99993 10.6663 5.99993 10.6663C5.99993 10.6663 2.2666 7.12807 2.2666 5.06634C2.2666 4.0762 2.65993 3.12661 3.36007 2.42648C4.06021 1.72634 5.00979 1.33301 5.99993 1.33301C6.99008 1.33301 7.93966 1.72634 8.6398 2.42648C9.33994 3.12661 9.73327 4.0762 9.73327 5.06634V5.06634Z" stroke="#E3751F" stroke-width="1.25"/>
<path d="M5.99945 5.43982C6.14797 5.43982 6.29041 5.38082 6.39543 5.2758C6.50045 5.17078 6.55945 5.02835 6.55945 4.87982C6.55945 4.7313 6.50045 4.58886 6.39543 4.48384C6.29041 4.37882 6.14797 4.31982 5.99945 4.31982C5.85093 4.31982 5.70849 4.37882 5.60347 4.48384C5.49845 4.58886 5.43945 4.7313 5.43945 4.87982C5.43945 5.02835 5.49845 5.17078 5.60347 5.2758C5.70849 5.38082 5.85093 5.43982 5.99945 5.43982Z" fill="#E3751F" stroke="#E3751F" stroke-width="1.25" stroke-linecap="round" stroke-linejoin="round"/>
</svg>
