<svg width="29" height="29" viewBox="0 0 29 29" fill="none" xmlns="http://www.w3.org/2000/svg">
<path opacity="0.16" d="M6.34632 12.0529L20.4355 5.34426C22.4897 4.36551 24.6332 6.5103 23.6557 8.56568L16.947 22.6536C16.0299 24.5785 13.2507 24.4601 12.5016 22.4627L11.2618 19.1531C11.1407 18.8302 10.9519 18.537 10.708 18.2932C10.4642 18.0493 10.1709 17.8605 9.84807 17.7393L6.53724 16.4984C4.54107 15.7492 4.42145 12.9701 6.34632 12.0529Z" fill="black"/>
<path d="M6.34632 12.0529L20.4355 5.34426C22.4897 4.36551 24.6332 6.5103 23.6557 8.56568L16.947 22.6536C16.0299 24.5785 13.2507 24.4601 12.5016 22.4627L11.2618 19.1531C11.1407 18.8302 10.9519 18.537 10.708 18.2932C10.4642 18.0493 10.1709 17.8605 9.84807 17.7393L6.53724 16.4984C4.54107 15.7492 4.42145 12.9701 6.34632 12.0529Z" stroke="black" stroke-width="2" stroke-linecap="round" stroke-linejoin="round"/>
</svg>
