<svg width="101" height="33" viewBox="0 0 101 33" fill="none" xmlns="http://www.w3.org/2000/svg">
<path d="M52.1607 23.096C51.3287 23.096 50.5287 22.9627 49.7607 22.696C49.0034 22.4187 48.4167 22.0667 48.0007 21.64L48.4647 20.728C48.8594 21.112 49.3874 21.4373 50.0487 21.704C50.7207 21.96 51.4247 22.088 52.1607 22.088C52.8647 22.088 53.4354 22.0027 53.8727 21.832C54.3207 21.6507 54.646 21.4107 54.8487 21.112C55.062 20.8133 55.1687 20.4827 55.1687 20.12C55.1687 19.6827 55.0407 19.3307 54.7847 19.064C54.5394 18.7973 54.214 18.5893 53.8087 18.44C53.4034 18.28 52.9554 18.1413 52.4647 18.024C51.974 17.9067 51.4834 17.784 50.9927 17.656C50.502 17.5173 50.0487 17.336 49.6327 17.112C49.2274 16.888 48.8967 16.5947 48.6407 16.232C48.3954 15.8587 48.2727 15.3733 48.2727 14.776C48.2727 14.2213 48.4167 13.7147 48.7047 13.256C49.0034 12.7867 49.4567 12.4133 50.0647 12.136C50.6727 11.848 51.4514 11.704 52.4007 11.704C53.03 11.704 53.654 11.7947 54.2727 11.976C54.8914 12.1467 55.4247 12.3867 55.8727 12.696L55.4727 13.64C54.9927 13.32 54.4807 13.0853 53.9367 12.936C53.4034 12.7867 52.886 12.712 52.3847 12.712C51.7127 12.712 51.158 12.8027 50.7207 12.984C50.2834 13.1653 49.958 13.4107 49.7447 13.72C49.542 14.0187 49.4407 14.36 49.4407 14.744C49.4407 15.1813 49.5634 15.5333 49.8087 15.8C50.0647 16.0667 50.3954 16.2747 50.8007 16.424C51.2167 16.5733 51.67 16.7067 52.1607 16.824C52.6514 16.9413 53.1367 17.0693 53.6167 17.208C54.1074 17.3467 54.5554 17.528 54.9607 17.752C55.3767 17.9653 55.7074 18.2533 55.9527 18.616C56.2087 18.9787 56.3367 19.4533 56.3367 20.04C56.3367 20.584 56.1874 21.0907 55.8887 21.56C55.59 22.0187 55.1314 22.392 54.5127 22.68C53.9047 22.9573 53.1207 23.096 52.1607 23.096ZM61.371 23.08C60.571 23.08 59.851 22.8987 59.211 22.536C58.5816 22.1733 58.0856 21.672 57.723 21.032C57.3603 20.392 57.179 19.6453 57.179 18.792C57.179 17.9493 57.3603 17.208 57.723 16.568C58.0856 15.9173 58.5816 15.416 59.211 15.064C59.851 14.7013 60.571 14.52 61.371 14.52C62.1176 14.52 62.779 14.6853 63.355 15.016C63.9416 15.3467 64.4056 15.832 64.747 16.472C65.0883 17.1013 65.259 17.8747 65.259 18.792C65.259 19.7093 65.083 20.488 64.731 21.128C64.3896 21.7573 63.9256 22.2427 63.339 22.584C62.763 22.9147 62.107 23.08 61.371 23.08ZM61.451 22.072C62.0483 22.072 62.5816 21.9387 63.051 21.672C63.531 21.3947 63.9043 21.0107 64.171 20.52C64.4483 20.0187 64.587 19.4427 64.587 18.792C64.587 18.1413 64.4483 17.5707 64.171 17.08C63.9043 16.5893 63.531 16.2053 63.051 15.928C62.5816 15.6507 62.0483 15.512 61.451 15.512C60.8643 15.512 60.3363 15.6507 59.867 15.928C59.3976 16.2053 59.0243 16.5893 58.747 17.08C58.4696 17.5707 58.331 18.1413 58.331 18.792C58.331 19.4427 58.4696 20.0187 58.747 20.52C59.0243 21.0107 59.3976 21.3947 59.867 21.672C60.3363 21.9387 60.8643 22.072 61.451 22.072ZM64.571 26.104V20.504L64.731 18.808L64.619 17.128V14.6H65.707V26.104H64.571ZM71.6932 23.08C70.9786 23.08 70.3546 22.9467 69.8212 22.68C69.2879 22.4133 68.8719 22.0133 68.5732 21.48C68.2852 20.9467 68.1412 20.28 68.1412 19.48V14.6H69.2772V19.352C69.2772 20.248 69.4959 20.9253 69.9332 21.384C70.3812 21.832 71.0052 22.056 71.8052 22.056C72.3919 22.056 72.8986 21.9387 73.3252 21.704C73.7626 21.4587 74.0932 21.1067 74.3172 20.648C74.5519 20.1893 74.6692 19.64 74.6692 19V14.6H75.8052V23H74.7172V20.696L74.8932 21.112C74.6266 21.7307 74.2106 22.216 73.6452 22.568C73.0906 22.9093 72.4399 23.08 71.6932 23.08ZM83.5858 23V21.144L83.5378 20.84V17.736C83.5378 17.0213 83.3351 16.472 82.9298 16.088C82.5351 15.704 81.9431 15.512 81.1538 15.512C80.6098 15.512 80.0924 15.6027 79.6018 15.784C79.1111 15.9653 78.6951 16.2053 78.3538 16.504L77.8418 15.656C78.2684 15.2933 78.7804 15.016 79.3778 14.824C79.9751 14.6213 80.6044 14.52 81.2658 14.52C82.3538 14.52 83.1911 14.792 83.7778 15.336C84.3751 15.8693 84.6738 16.6853 84.6738 17.784V23H83.5858ZM80.6898 23.08C80.0604 23.08 79.5111 22.9787 79.0418 22.776C78.5831 22.5627 78.2311 22.2747 77.9858 21.912C77.7404 21.5387 77.6178 21.112 77.6178 20.632C77.6178 20.1947 77.7191 19.8 77.9218 19.448C78.1351 19.0853 78.4764 18.7973 78.9458 18.584C79.4258 18.36 80.0658 18.248 80.8658 18.248H83.7618V19.096H80.8978C80.0871 19.096 79.5218 19.24 79.2018 19.528C78.8924 19.816 78.7378 20.1733 78.7378 20.6C78.7378 21.08 78.9244 21.464 79.2978 21.752C79.6711 22.04 80.1938 22.184 80.8658 22.184C81.5058 22.184 82.0551 22.04 82.5138 21.752C82.9831 21.4533 83.3244 21.0267 83.5378 20.472L83.7938 21.256C83.5804 21.8107 83.2071 22.2533 82.6738 22.584C82.1511 22.9147 81.4898 23.08 80.6898 23.08ZM87.1098 23V14.6H88.1978V16.888L88.0858 16.488C88.3204 15.848 88.7151 15.3627 89.2698 15.032C89.8244 14.6907 90.5124 14.52 91.3338 14.52V15.624C91.2911 15.624 91.2484 15.624 91.2058 15.624C91.1631 15.6133 91.1204 15.608 91.0778 15.608C90.1924 15.608 89.4991 15.88 88.9978 16.424C88.4964 16.9573 88.2458 17.72 88.2458 18.712V23H87.1098ZM96.247 23.08C95.3724 23.08 94.6044 22.8987 93.943 22.536C93.2817 22.1627 92.7644 21.656 92.391 21.016C92.0177 20.3653 91.831 19.624 91.831 18.792C91.831 17.96 92.007 17.224 92.359 16.584C92.7217 15.944 93.2124 15.4427 93.831 15.08C94.4604 14.7067 95.1644 14.52 95.943 14.52C96.7324 14.52 97.431 14.7013 98.039 15.064C98.6577 15.416 99.143 15.9173 99.495 16.568C99.847 17.208 100.023 17.9493 100.023 18.792C100.023 18.8453 100.018 18.904 100.007 18.968C100.007 19.0213 100.007 19.08 100.007 19.144H92.695V18.296H99.399L98.951 18.632C98.951 18.024 98.8177 17.4853 98.551 17.016C98.295 16.536 97.943 16.1627 97.495 15.896C97.047 15.6293 96.5297 15.496 95.943 15.496C95.367 15.496 94.8497 15.6293 94.391 15.896C93.9324 16.1627 93.575 16.536 93.319 17.016C93.063 17.496 92.935 18.0453 92.935 18.664V18.84C92.935 19.48 93.0737 20.0453 93.351 20.536C93.639 21.016 94.0337 21.3947 94.535 21.672C95.047 21.9387 95.6284 22.072 96.279 22.072C96.791 22.072 97.2657 21.9813 97.703 21.8C98.151 21.6187 98.535 21.3413 98.855 20.968L99.495 21.704C99.1217 22.152 98.6524 22.4933 98.087 22.728C97.5324 22.9627 96.919 23.08 96.247 23.08Z" fill="#4D7A42"/>
<path d="M20.0816 24.2891L24.5757 30.8278H21.5207L17.3652 24.6663L20.0816 24.2891Z" fill="#4D7A42"/>
<path d="M15.9225 12.5325V4.80675H21.5208V10.521L24.2997 13.4361V2.02783H13.1436V15.3114H22.2477L19.5995 12.5325H15.9225Z" fill="#4D7A42"/>
<path d="M21.5205 10.5859L24.2994 13.4532V13.4366L21.5205 10.5215V10.5859Z" fill="#4D7A42"/>
<path d="M13.1436 30.0917H15.9225V25.4541H24.2979V16.6572H13.1436V30.0917ZM15.9225 19.438H21.5208V22.6752H15.9225V19.438Z" fill="#4D7A42"/>
<path d="M24.2994 13.5783V13.4532L21.5205 10.5859V10.6761L24.2994 13.5783Z" fill="#4D7A42"/>
<path d="M20.8369 9.93604C22.3819 11.4027 23.8342 12.9638 25.1857 14.6105C23.6407 13.1439 22.1883 11.5827 20.8369 9.93604Z" fill="#4D7A42"/>
<path d="M18.915 11.854C20.4882 13.29 21.9707 14.8223 23.354 16.442C21.7812 15.0055 20.2988 13.4733 18.915 11.854Z" fill="#4D7A42"/>
<path d="M37.5099 32.7729H0V0H37.5099V32.7729ZM0.728778 32.0717H36.7811V0.703013H0.728778V32.0717Z" fill="#4D7A42"/>
<path d="M11.8045 15.3114H3.34259V12.5325H9.02557V10.2303H1.95312V2.02783H10.415V4.80675H4.73205V7.45133H11.8045V15.3114Z" fill="#4D7A42"/>
<path d="M11.7187 2.02783H10.1396V4.80675H11.7187V2.02783Z" fill="#4D7A42"/>
<path d="M6.2935 12.5327H2.1748V15.3116H6.2935V12.5327Z" fill="#4D7A42"/>
<path d="M35.6273 15.3117H25.4336V1.81641H28.2125V12.5327H32.8502V1.81641H35.6273V15.3117Z" fill="#4D7A42"/>
<path d="M11.8048 30.5368H9.02589V19.4303H5.00657V30.5368H2.22949V16.6514H11.8048V30.5368Z" fill="#4D7A42"/>
<path d="M11.2371 22.8994H3.61621V25.6783H11.2371V22.8994Z" fill="#4D7A42"/>
<path d="M35.543 30.8275H25.5039V16.6514H35.543V19.4303H28.2828V28.0505H35.543V30.8275Z" fill="#4D7A42"/>
<path d="M35.5426 22.2627H27.4414V25.0416H35.5426V22.2627Z" fill="#4D7A42"/>
<path d="M15.9225 28.5459H13.1436V30.9494H15.9225V28.5459Z" fill="#4D7A42"/>
<path d="M11.8043 29.4399H9.02539V30.9509H11.8043V29.4399Z" fill="#4D7A42"/>
<path d="M5.00841 28.958H2.22949V30.9493H5.00841V28.958Z" fill="#4D7A42"/>
</svg>
