<svg width="21" height="21" viewBox="0 0 21 21" fill="none" xmlns="http://www.w3.org/2000/svg">
<path d="M13.9905 20.54H13.8605C9.4205 20.54 7.2805 18.79 6.9105 14.87C6.8705 14.46 7.1705 14.09 7.5905 14.05C8.0005 14.01 8.3705 14.32 8.4105 14.73C8.7005 17.87 10.1805 19.04 13.8705 19.04H14.0005C18.0705 19.04 19.5105 17.6 19.5105 13.53V7.01C19.5105 2.94 18.0705 1.5 14.0005 1.5H13.8705C10.1605 1.5 8.6805 2.69 8.4105 5.89C8.3605 6.3 8.0205 6.61 7.5905 6.57C7.1705 6.54 6.8705 6.17 6.9005 5.76C7.2405 1.78 9.3905 0 13.8605 0H13.9905C18.9005 0 21.0005 2.1 21.0005 7.01V13.53C21.0005 18.44 18.9005 20.54 13.9905 20.54Z" fill="#E86851"/>
<path d="M13.63 11.02H0.75C0.34 11.02 0 10.68 0 10.27C0 9.86002 0.34 9.52002 0.75 9.52002H13.63C14.04 9.52002 14.38 9.86002 14.38 10.27C14.38 10.68 14.05 11.02 13.63 11.02Z" fill="#E86851"/>
<path d="M11.3998 14.3699C11.2098 14.3699 11.0198 14.2999 10.8698 14.1499C10.5798 13.8599 10.5798 13.3799 10.8698 13.0899L13.6898 10.2699L10.8698 7.44986C10.5798 7.15986 10.5798 6.67986 10.8698 6.38986C11.1598 6.09986 11.6398 6.09986 11.9298 6.38986L15.2798 9.73986C15.5698 10.0299 15.5698 10.5099 15.2798 10.7999L11.9298 14.1499C11.7798 14.2999 11.5898 14.3699 11.3998 14.3699Z" fill="#E86851"/>
</svg>
