<svg width="399" height="80" viewBox="0 0 399 80" fill="none" xmlns="http://www.w3.org/2000/svg">
<path d="M1.89001 51.7103C6.89001 59.2903 14.62 68.0803 27.81 68.0803C37.26 68.0803 44.46 64.2403 44.46 53.3903C44.46 44.2303 38.85 41.2303 24.35 37.0203C13.96 33.9303 2.73999 29.2603 2.73999 17.0903C2.73999 9.24033 7.73999 0.090332 22.74 0.090332C29.47 0.090332 33.49 2.61032 35.93 2.61032C36.3128 2.65525 36.7005 2.59294 37.05 2.43033L41.63 0.740326L47.72 17.5803L46.31 18.5203C40.79 9.26032 33.21 2.43033 22.36 2.43033C14.78 2.43033 7.76999 5.89032 7.76999 15.5203C7.76999 25.4403 16.94 29.1803 26.85 31.8903C39.48 35.3603 49.77 39.6603 49.77 51.6403C49.77 64.8303 40.04 70.4403 28.07 70.4403C21.43 70.4403 15.53 67.4403 13.38 67.4403C11.23 67.4403 8.60999 68.7503 6.54999 70.2503L0 52.4803L1.89001 51.7103Z" fill="#4D7A42"/>
<path d="M123.6 74.1803C120.51 76.9903 118.45 79.3303 113.68 79.3303C107.97 79.3303 103.95 74.4603 101.24 68.5703C98.0496 69.9226 94.6024 70.5609 91.1396 70.4403C71.0196 70.4403 61.3896 52.9404 61.3896 35.3604C61.3896 17.7804 71.1096 0.090332 91.1396 0.090332C110.41 0.090332 121.07 17.6804 121.07 35.3604C121.07 47.2404 116.3 62.0203 106.29 66.4203C107.79 70.0704 111.15 74.4203 115.46 74.4203C117.918 74.5336 120.354 73.914 122.46 72.6403L123.6 74.1803ZM67.6497 35.3604C67.6497 43.3604 69.9897 55.0003 74.6497 59.8703C74.0897 53.6003 79.3296 50.0403 86.0596 50.0403C90.5496 50.0403 99.8197 52.5703 104.77 63.3303C112.26 57.8103 114.69 44.1503 114.69 35.3303C114.69 18.9503 107.11 2.49033 91.1196 2.49033C75.1296 2.49033 67.6296 18.9503 67.6296 35.3303M100.1 65.7303C95.5096 55.4403 88.5896 52.9103 84.7496 52.9103C80.9096 52.9103 76.3296 54.9703 76.2396 61.4303C81.0996 66.4303 85.4996 68.0703 91.1196 68.0703C94.2846 68.1931 97.4153 67.3792 100.12 65.7303" fill="#4D7A42"/>
<path d="M130.189 1.71045H153.949V4.05045C147.309 4.05045 144.949 5.73046 144.949 9.66046V48.1105C144.949 59.5205 153.549 67.3804 165.719 67.3804C174.599 67.3804 185.459 63.2705 185.459 47.7405V9.63046C185.459 5.70046 183.459 4.02045 176.459 4.02045V1.71045H197.049V4.05045C190.049 4.05045 188.049 5.73046 188.049 9.66046V48.3005C188.049 63.3605 177.859 70.4705 162.789 70.4705C150.349 70.4705 139.029 63.4704 139.029 47.0804V9.63046C139.029 5.70046 137.349 4.02045 130.149 4.02045L130.189 1.71045Z" fill="#4D7A42"/>
<path d="M238.649 0L261.749 59.77C263.439 64.92 266.149 66.6 271.109 66.6V68.94H247.349V66.6C253.519 66.6 256.349 65.85 256.349 62.96C256.308 62.0001 256.119 61.0523 255.789 60.15L249.699 44.43H221.529L216.469 58C215.957 59.382 215.644 60.8299 215.539 62.3C215.539 65.67 218.249 66.6 224.429 66.6V68.94H204.029V66.6C209.179 66.6 211.029 65.39 213.949 56.87L233.499 2.14999L238.649 0ZM235.279 6.35999L222.459 41.71H248.659L235.279 6.35999Z" fill="#4D7A42"/>
<path d="M278.109 68.9404V66.6005C285.109 66.6005 286.999 64.4504 286.999 59.9604V9.63046C286.999 5.51046 285.129 4.02045 278.109 4.02045V1.71045H308.519C323.019 1.71045 330.519 8.71045 330.519 18.2704C330.519 27.0604 324.819 34.7304 312.279 35.3904L327.529 62.3304C329.529 65.7904 332.109 66.6304 337.069 66.6304V68.9705H324.419L305.899 35.4805H292.899V59.9905C292.899 64.4805 295.329 66.6304 301.899 66.6304V68.9705L278.109 68.9404ZM292.899 33.1105H310.189C320.579 33.1105 324.039 25.7204 324.039 18.2404C324.039 9.35045 318.139 4.02045 308.039 4.02045H299.709C295.319 4.02045 292.889 5.51046 292.889 9.63046L292.899 33.1105Z" fill="#4D7A42"/>
<path d="M344.34 68.9404V66.6005C350.7 66.6005 353.23 64.6005 353.23 60.1505V10.0005C353.23 5.70046 350.7 4.00046 344.34 4.00046V1.71045H393.45L400 17.6104L398.6 18.5504C393.92 12.8404 390.18 4.05045 375.68 4.05045H366.51C361.65 4.05045 359.12 5.73045 359.12 10.0504V32.6005H373.34C379.89 32.6005 383.44 29.7905 383.44 20.9105H385.69V47.1005H383.44C383.44 38.7805 379.89 35.1005 373.34 35.1005H359.12V60.1705C359.12 64.6605 361.65 66.6204 366.6 66.6204H375.4C386.25 66.6204 392.89 62.1304 400.4 51.7504L402.08 52.5004L395.72 68.9604L344.34 68.9404Z" fill="#4D7A42"/>
</svg>
