<svg width="204" height="179" viewBox="0 0 204 179" fill="none" xmlns="http://www.w3.org/2000/svg">
<path d="M109.12 131.98L133.54 167.51H116.94L94.3604 134.03L109.12 131.98Z" fill="#4D7A42"/>
<path d="M86.5199 68.1V26.12H116.94V57.17L132.04 73.01V11.02H71.4199V83.2H120.89L106.5 68.1H86.5199Z" fill="#4D7A42"/>
<path d="M116.939 57.5199L132.039 73.0999V73.0099L116.939 57.1699V57.5199Z" fill="#4D7A42"/>
<path d="M71.4199 163.51H86.5199V138.31H132.03V90.5103H71.4199V163.51ZM86.5199 105.62H116.94V123.21H86.5199V105.62Z" fill="#4D7A42"/>
<path d="M132.039 73.78V73.1L116.939 57.52V58.01L132.039 73.78Z" fill="#4D7A42"/>
<path d="M113.22 53.9902C121.615 61.9596 129.506 70.4426 136.85 79.3902C128.455 71.4209 120.563 62.9379 113.22 53.9902Z" fill="#4D7A42"/>
<path d="M102.78 64.4102C111.328 72.213 119.384 80.5391 126.9 89.3402C118.355 81.5348 110.299 73.209 102.78 64.4102Z" fill="#4D7A42"/>
<path d="M203.82 178.08H0V0H203.82V178.08ZM3.96001 174.27H199.86V3.82001H3.96001V174.27Z" fill="#4D7A42"/>
<path d="M64.1404 83.2H18.1604V68.1H49.0404V55.59H10.6104V11.02H56.5904V26.12H25.7104V40.49H64.1404V83.2Z" fill="#4D7A42"/>
<path d="M63.6796 11.02H55.0996V26.12H63.6796V11.02Z" fill="#4D7A42"/>
<path d="M34.2003 68.1001H11.8203V83.2001H34.2003V68.1001Z" fill="#4D7A42"/>
<path d="M193.59 83.2001H138.2V9.87012H153.3V68.1001H178.5V9.87012H193.59V83.2001Z" fill="#4D7A42"/>
<path d="M64.1404 165.93H49.0404V105.58H27.2004V165.93H12.1104V90.48H64.1404V165.93Z" fill="#4D7A42"/>
<path d="M61.0604 124.43H19.6504V139.53H61.0604V124.43Z" fill="#4D7A42"/>
<path d="M193.13 167.51H138.58V90.48H193.13V105.58H153.68V152.42H193.13V167.51Z" fill="#4D7A42"/>
<path d="M193.13 120.97H149.11V136.07H193.13V120.97Z" fill="#4D7A42"/>
<path d="M86.5199 155.11H71.4199V168.17H86.5199V155.11Z" fill="#4D7A42"/>
<path d="M64.14 159.97H49.04V168.18H64.14V159.97Z" fill="#4D7A42"/>
<path d="M27.2104 157.35H12.1104V168.17H27.2104V157.35Z" fill="#4D7A42"/>
</svg>
