<svg width="21" height="21" viewBox="0 0 21 21" fill="none" xmlns="http://www.w3.org/2000/svg">
<path d="M2 6.70991C2 5.23591 2 4.49991 2.393 4.06991C2.53209 3.91694 2.70129 3.79437 2.89 3.70991C3.422 3.47391 4.121 3.70691 5.519 4.17291C6.586 4.52891 7.119 4.70691 7.659 4.68791C7.8571 4.68139 8.05406 4.65527 8.247 4.60991C8.772 4.48491 9.24 4.17291 10.176 3.54991L11.558 2.62791C12.758 1.82791 13.357 1.42791 14.045 1.33691C14.733 1.24391 15.417 1.47191 16.784 1.92791L17.949 2.31591C18.939 2.64591 19.434 2.81091 19.717 3.20391C20 3.59691 20 4.11891 20 5.16191V13.2909C20 14.7639 20 15.5009 19.607 15.9309C19.4677 16.0832 19.2985 16.205 19.11 16.2889C18.578 16.5259 17.879 16.2929 16.481 15.8269C15.414 15.4709 14.881 15.2929 14.341 15.3119C14.1429 15.3184 13.9459 15.3446 13.753 15.3899C13.228 15.5149 12.76 15.8269 11.824 16.4499L10.442 17.3719C9.242 18.1719 8.643 18.5719 7.955 18.6629C7.267 18.7559 6.583 18.5279 5.216 18.0719L4.051 17.6839C3.061 17.3539 2.566 17.1889 2.283 16.7959C2 16.4029 2 15.8799 2 14.8379V6.70891V6.70991Z" stroke="#BCBCBC" stroke-width="1.5"/>
<path opacity="0.5" d="M8 4.639V18.5M14 1V15" stroke="#BCBCBC" stroke-width="1.5"/>
</svg>
