<svg xmlns="http://www.w3.org/2000/svg" viewBox="0 0 500 500"><g id="freepik--background-complete--inject-2"><rect x="106.3" y="127.1" width="258.77" height="329.82" transform="translate(-29.28 26.28) rotate(-6.01)" style="fill:#e0e0e0"></rect><rect x="123.21" y="138.89" width="257.63" height="303.33" transform="translate(-40.32 40.61) rotate(-8.53)" style="fill:#ebebeb"></rect><path d="M457.12,148.56S447,141.89,434.74,166s-16.95,38-16.95,38-3.25,5-6.72,1.75-8.23-12.68-14.13-11c-6.12,1.75-8.14,8.58-7,18.62s2.92,32.12,3.07,34.12-1,4.85-3.7,3-18.41-19.33-26.25-11.39,0,35.36.81,38.38.21,4.3-1.23,5-6.15-5.62-10.81-10.4-10.91-9.51-15.05-4.56-5.46,25.54,14.12,59L361,341.45l18-1c38.48-4.49,54.12-17.94,55.58-24.24s-6.07-8.42-12.7-9.27-14.55-.77-14.82-2.36.41-2.84,3.3-4,29.51-11.43,31.12-22.47-21.77-13-24.91-14.09-1.5-3.68.15-4.75,20.37-13,29.09-18.1,12.95-10.83,10.67-16.77c-2.21-5.73-12.56-3.88-17.29-4.66s-2.65-6.42-2.65-6.42,8.31-12.1,20.16-36.44.15-28.43.15-28.43" style="fill:#e0e0e0"></path><path d="M446.08,170.14s-.07.18-.23.52l-.7,1.51L442.39,178c-2.4,5-5.93,12.25-10.32,21.17C423.29,217,411,241.51,397.26,268.57s-26.1,51.6-35,69.39l-10.48,21.09L349,364.78l-.76,1.49c-.17.33-.27.49-.27.49s.07-.18.22-.52l.71-1.51,2.76-5.77c2.4-5,5.92-12.25,10.31-21.17,8.78-17.84,21.11-42.39,34.82-69.47s26.09-51.58,35-69.38c4.41-8.89,8-16.08,10.47-21.09,1.23-2.47,2.19-4.4,2.86-5.73l.75-1.48C446,170.31,446.08,170.14,446.08,170.14Z" style="fill:#ebebeb"></path><path d="M403.06,208.19a5.48,5.48,0,0,1,.46,1.22c.26.79.6,2,1,3.39.82,2.88,1.84,6.88,2.89,11.31s1.94,8.34,2.65,11.37c.33,1.36.6,2.51.82,3.44a6.66,6.66,0,0,1,.26,1.27,5.74,5.74,0,0,1-.47-1.22c-.26-.79-.6-1.95-1-3.39-.79-2.89-1.76-6.9-2.81-11.34s-2-8.32-2.73-11.34c-.33-1.36-.61-2.51-.84-3.43A7.2,7.2,0,0,1,403.06,208.19Z" style="fill:#ebebeb"></path><path d="M412.8,240.51c0-.15,8.11-2.62,18.21-5.53s18.33-5.13,18.37-5-8.11,2.63-18.21,5.53S412.84,240.66,412.8,240.51Z" style="fill:#ebebeb"></path><path d="M389.87,281.13a5.93,5.93,0,0,1,1.33-.06h3.61c3.05,0,7.26,0,11.9-.18s8.85-.47,11.88-.71l3.6-.28a5.4,5.4,0,0,1,1.33,0,7.2,7.2,0,0,1-1.3.25c-.85.13-2.07.29-3.59.46-3,.35-7.24.71-11.9.88s-8.87.13-11.93,0c-1.52-.06-2.75-.12-3.61-.19A6.29,6.29,0,0,1,389.87,281.13Z" style="fill:#ebebeb"></path><path d="M374.64,253.83a5.35,5.35,0,0,1,.7,1c.47.77,1.05,1.73,1.74,2.85,1.45,2.42,2.63,6.57,5.56,9.5,2.14,3.73,4.06,7.12,5.42,9.59.62,1.15,1.15,2.14,1.59,2.93a4.76,4.76,0,0,1,.51,1.12,5.35,5.35,0,0,1-.7-1q-.72-1.15-1.74-2.85c-1.45-2.41-3.42-5.77-5.56-9.5s-4.06-7.12-5.42-9.58L375.15,255A4.76,4.76,0,0,1,374.64,253.83Z" style="fill:#ebebeb"></path><path d="M349.84,287.12a8.13,8.13,0,0,1,.89,1.3l2.24,3.64c1.88,3.09,4.43,7.38,7.23,12.13s5.29,9.07,7.08,12.2c.84,1.51,1.55,2.76,2.09,3.74a8.83,8.83,0,0,1,.7,1.4,8.49,8.49,0,0,1-.89-1.29l-2.24-3.65c-1.88-3.08-4.43-7.37-7.22-12.12s-5.3-9.07-7.09-12.21c-.84-1.5-1.54-2.76-2.09-3.73A9.12,9.12,0,0,1,349.84,287.12Z" style="fill:#ebebeb"></path><path d="M369.82,320.57a10.89,10.89,0,0,1,1.68-.12l4.58-.14c3.86-.14,9.2-.34,15.08-.72s11.21-.86,15.06-1.24l4.56-.44a9.57,9.57,0,0,1,1.68-.1,12.05,12.05,0,0,1-1.65.31c-1.07.17-2.63.39-4.55.62-3.84.48-9.16,1-15.06,1.4s-11.24.53-15.12.56c-1.93,0-3.5,0-4.58,0A8.66,8.66,0,0,1,369.82,320.57Z" style="fill:#ebebeb"></path></g><g id="freepik--Plants--inject-2"><path d="M70.92,313.08a14.83,14.83,0,0,1,11.6-.78,26.2,26.2,0,0,1,10,6.39c5.54,5.36,9,13.53,11,21-8.4,1.68-17.09-3.14-21.34-5.86-6.73-4.3-16.28-16.15-11.25-20.73" style="fill:#4D7A42"></path><path d="M118.11,341.43a12.66,12.66,0,0,1-7-10.58,16.83,16.83,0,0,1,4.49-12.2c1.38-1.53,3.21-2.93,5.26-2.83a5.45,5.45,0,0,1,4.41,3.28,10.92,10.92,0,0,1,.69,5.67c-.63,6.57-2.44,12.81-7.8,16.66" style="fill:#4D7A42"></path><path d="M131.68,362.32a8,8,0,0,1-1.1-1.14l-2.9-3.21c-2.38-2.74-5.86-6.57-8.1-11.77a27.3,27.3,0,0,1-2.26-14.06,18,18,0,0,1,1-4.22,11.49,11.49,0,0,1,.47-1.09c.11-.24.18-.37.2-.36a29.1,29.1,0,0,0-1.31,5.72A28.06,28.06,0,0,0,120.1,346c2.18,5.1,5.57,8.94,7.88,11.74,1.17,1.4,2.13,2.53,2.76,3.33A8.24,8.24,0,0,1,131.68,362.32Z" style="fill:#263238"></path><path d="M79,321.46a3.85,3.85,0,0,1,.6.36l1.63,1.11c1.42,1,3.45,2.41,5.94,4.2,5,3.59,11.81,8.64,19.21,14.39s14,11.11,18.71,15.05c2.35,2,4.24,3.58,5.54,4.71l1.48,1.31c.34.31.51.47.49.49a3.68,3.68,0,0,1-.56-.4l-1.55-1.23-5.65-4.57C120,353,113.42,347.71,106,342s-14.18-10.84-19.1-14.51l-5.83-4.34-1.58-1.2A3,3,0,0,1,79,321.46Z" style="fill:#263238"></path><path d="M115,353.13a29.67,29.67,0,0,0-27.08-.42c-2.13,1.08-4.38,2.9-4.19,5.28s2.72,3.83,5,4.51a25.31,25.31,0,0,0,26.66-8.87" style="fill:#4D7A42"></path><path d="M94.32,356.32a7,7,0,0,1,1.31-.72,14,14,0,0,1,1.6-.73,20.45,20.45,0,0,1,2.18-.8,25.45,25.45,0,0,1,2.71-.76,30.91,30.91,0,0,1,3.19-.57,33.32,33.32,0,0,1,7.42,0,32.12,32.12,0,0,1,7.21,1.76,28.23,28.23,0,0,1,3,1.32,27.3,27.3,0,0,1,2.46,1.4c.75.43,1.34.94,1.9,1.33a14.13,14.13,0,0,1,1.36,1.11,7.84,7.84,0,0,1,1.08,1c-.09.1-1.64-1.37-4.55-3.14a26.26,26.26,0,0,0-2.45-1.32,28.86,28.86,0,0,0-2.94-1.26,33,33,0,0,0-7.09-1.68,34.25,34.25,0,0,0-7.3,0,30.89,30.89,0,0,0-3.15.52c-1,.17-1.88.45-2.7.67C96.26,355.43,94.37,356.43,94.32,356.32Z" style="fill:#263238"></path><path d="M374.6,392.35c-7-4.5-9.52-10.27-10.62-18.52a29.2,29.2,0,0,1,7.19-23.09c4.66-5.14,11.2-8.65,14.59-14.71,3.6-6.46,3.14-15,8.28-20.35,3.54-3.65,8.87-4.79,13.23-7.39,3.57-2.12,6.45-5.19,9.68-7.78s7.11-4.79,11.25-4.64c6.25.23,11.34,6.16,11.87,12.39s-2.71,12.33-7.32,16.56c-3.34,3.06-7.51,5.47-9.62,9.49-4,7.53.87,17.61-3.42,25-3.13,5.37-10.59,8.17-11.4,14.34-.3,2.27.43,4.54.5,6.83.22,7.15-6.24,13.16-13.23,14.7s-14.25-.39-21-2.8" style="fill:#455a64"></path><path d="M415.67,321.51a5.49,5.49,0,0,1-.69.84l-2.11,2.27c-.93,1-2.07,2.17-3.3,3.63s-2.75,3-4.21,4.94-3.18,3.91-4.8,6.23c-.81,1.16-1.72,2.3-2.54,3.57l-2.55,3.88a137.82,137.82,0,0,0-9.68,18.23,131.83,131.83,0,0,0-6.55,19.57c-.71,3.1-1.4,6-1.8,8.84s-.8,5.39-1.07,7.78-.36,4.56-.52,6.47-.17,3.55-.19,4.9-.05,2.3-.07,3.1a5.07,5.07,0,0,1-.09,1.08,4.78,4.78,0,0,1-.08-1.08c0-.8-.05-1.83-.09-3.11s-.07-3,0-4.91.1-4.11.39-6.51.47-5,1-7.84,1-5.78,1.73-8.9A128.78,128.78,0,0,1,385,364.76a132.91,132.91,0,0,1,9.81-18.32l2.59-3.88c.84-1.26,1.76-2.41,2.59-3.56,1.66-2.31,3.37-4.33,4.91-6.19s3-3.45,4.31-4.88,2.45-2.6,3.42-3.54,1.65-1.61,2.23-2.16A5.38,5.38,0,0,1,415.67,321.51Z" style="fill:#263238"></path></g><g id="freepik--Window--inject-2"><rect x="123.21" y="139.15" width="257.63" height="303.33" style="fill:#fafafa"></rect><path d="M380.85,442.48c0-2-.1-122.59-.24-303.33l.24.23-257.61,0h0l.26-.26c0,112,0,216.31,0,303.33l-.22-.22,257.64.22-257.64.22H123v-.22c0-87,0-191.34,0-303.33v-.26h.29l257.61,0h.23v.24C380.94,319.89,380.85,440.47,380.85,442.48Z" style="fill:#263238"></path><path d="M266.57,188.72h-5l-1.08,2.41h-1l4.12-9h.94l4.12,9h-1Zm-.34-.77-2.17-4.84L261.9,188Z"></path><path d="M276.08,181.57v9.56h-.88v-1.34a2.93,2.93,0,0,1-2.61,1.4,3.45,3.45,0,0,1,0-6.89,3,3,0,0,1,2.57,1.34v-4.07Zm-.91,6.17a2.52,2.52,0,1,0-2.51,2.64A2.48,2.48,0,0,0,275.17,187.74Z"></path><path d="M284.81,181.57v9.56h-.88v-1.34a2.93,2.93,0,0,1-2.61,1.4,3.45,3.45,0,0,1,0-6.89,3,3,0,0,1,2.57,1.34v-4.07Zm-.91,6.17a2.52,2.52,0,1,0-2.51,2.64A2.48,2.48,0,0,0,283.9,187.74Z"></path><path d="M296.83,184.35v6.78H296v-1.24a2.67,2.67,0,0,1-2.43,1.3,2.62,2.62,0,0,1-2.86-2.91v-3.93h.92v3.84c0,1.44.74,2.18,2,2.18a2.21,2.21,0,0,0,2.31-2.46v-3.56Z"></path><path d="M298.45,190.36l.41-.73a4.07,4.07,0,0,0,2.41.76c1.29,0,1.82-.43,1.82-1.1,0-1.77-4.4-.38-4.4-3,0-1.11,1-1.94,2.68-1.94a4.67,4.67,0,0,1,2.4.63l-.4.74a3.49,3.49,0,0,0-2-.58c-1.22,0-1.76.48-1.76,1.12,0,1.83,4.39.45,4.39,3,0,1.17-1,1.93-2.79,1.93A4.57,4.57,0,0,1,298.45,190.36Z"></path><path d="M311.59,188h-5.67a2.5,2.5,0,0,0,2.67,2.35,2.65,2.65,0,0,0,2.07-.89l.51.6a3.31,3.31,0,0,1-2.61,1.1,3.35,3.35,0,0,1-3.55-3.45,3.3,3.3,0,1,1,6.59,0C311.6,187.82,311.59,187.92,311.59,188Zm-5.67-.69h4.8a2.41,2.41,0,0,0-4.8,0Z"></path><path d="M316.88,184.3v.89h-.22a2.19,2.19,0,0,0-2.28,2.5v3.45h-.92v-6.78h.88v1.33A2.57,2.57,0,0,1,316.88,184.3Z"></path><path d="M247.83,279.29s0-.2,0-.56,0-.92,0-1.62c0-1.44,0-3.54,0-6.26,0-5.45-.06-13.37-.1-23.33l.17.16-101.09.1h0l.26-.26c0,11,0,21.7,0,31.77l-.25-.25,72.25.11,21.16.07,5.69,0h1.48l.51,0-.48,0H245.9l-5.63,0-21.1.08-72.43.11h-.26V247.26h.26l101.09.09H248v.17c0,10-.07,18-.09,23.43,0,2.7,0,4.79,0,6.22,0,.69,0,1.22,0,1.59S247.83,279.29,247.83,279.29Z" style="fill:#263238"></path><path d="M359.73,322.32s0-.71,0-2.09,0-3.42,0-6.11c0-5.37,0-13.3-.07-23.57l.13.13-213,.13h0l.26-.26v31.77l-.26-.25,151.54.11,45,.07,12.17,0,3.16,0h1.09s-.35,0-1.05,0l-3.13,0-12.11,0-45,.08-151.72.11h-.26V290.29h.27l213,.13h.13v.13c0,10.31-.06,18.26-.08,23.65q0,4,0,6.08C359.75,321.64,359.73,322.32,359.73,322.32Z" style="fill:#263238"></path><path d="M359.73,365.06s0-.72,0-2.09,0-3.43,0-6.11c0-5.38,0-13.3-.07-23.57l.13.12-213,.14h0l.26-.26v31.77l-.26-.26,151.54.11,45,.08,12.17,0,3.16,0,1.09,0-1.05,0h-3.13l-12.11,0-45,.07-151.72.12h-.26V333h.27l213,.14h.13v.13c0,10.3-.06,18.25-.08,23.64q0,4,0,6.08C359.75,364.38,359.73,365.06,359.73,365.06Z" style="fill:#263238"></path><path d="M359.73,279.29s0-.2,0-.56,0-.92,0-1.62c0-1.44,0-3.54,0-6.26,0-5.45,0-13.37-.09-23.33l.17.16-101.09.1h0l.26-.26v31.77l-.26-.25,72.26.11,21.16.07,5.69,0h1.48l.51,0-.48,0H357.8l-5.63,0-21.1.08-72.44.11h-.25v-.25c0-10.07,0-20.76,0-31.77v-.26h.27l101.09.09h.17v.17c0,10-.07,18-.1,23.43,0,2.7,0,4.79,0,6.22,0,.69,0,1.22,0,1.59S359.73,279.29,359.73,279.29Z" style="fill:#263238"></path><path d="M167.91,268a5.76,5.76,0,0,1-.77.05l-2.28.07c-2,.06-4.86.14-8.3.18h-.32l.1-.3a6.07,6.07,0,0,1,1.6-2.68A5.74,5.74,0,0,1,161,263.9l-.06.49a3.84,3.84,0,0,1-2.29-3.24,3.92,3.92,0,0,1,2.15-3.85,3.41,3.41,0,0,1,4,.87,4,4,0,0,1,.85,3.65,3.69,3.69,0,0,1-2.11,2.49l0-.35a5.64,5.64,0,0,1,2.47,1,5.26,5.26,0,0,1,1.34,1.48,4,4,0,0,1,.61,1.58s-.08-.15-.19-.39a7.87,7.87,0,0,0-.59-1.08,5.09,5.09,0,0,0-3.7-2.22l-.67-.08.63-.27a3.32,3.32,0,0,0,1.83-2.26,3.55,3.55,0,0,0-.78-3.22,3,3,0,0,0-3.43-.73,3.4,3.4,0,0,0-1.84,3.34,3.33,3.33,0,0,0,2,2.82l.85.34-.91.15a5.19,5.19,0,0,0-2.8,1.29,5.65,5.65,0,0,0-1.51,2.45l-.22-.29c3.33,0,6.13,0,8.14.07l2.34,0A6.06,6.06,0,0,1,167.91,268Z" style="fill:#4D7A42"></path><path d="M286.42,268a5.46,5.46,0,0,1-.76.05l-2.29.07c-2,.06-4.85.14-8.3.18h-.31l.09-.3a6.07,6.07,0,0,1,1.6-2.68,5.74,5.74,0,0,1,3.06-1.44l-.06.49a3.83,3.83,0,0,1-2.28-3.24,3.89,3.89,0,0,1,2.14-3.85,3.42,3.42,0,0,1,4,.87,4,4,0,0,1,.84,3.65,3.69,3.69,0,0,1-2.11,2.49l0-.35a5.64,5.64,0,0,1,2.47,1,5.11,5.11,0,0,1,1.34,1.48,4,4,0,0,1,.61,1.58s-.08-.15-.19-.39a6.15,6.15,0,0,0-.59-1.08,5.07,5.07,0,0,0-3.69-2.22l-.67-.08.62-.27a3.36,3.36,0,0,0,1.84-2.26,3.56,3.56,0,0,0-.79-3.22,2.93,2.93,0,0,0-3.42-.73,3.39,3.39,0,0,0-1.85,3.34,3.33,3.33,0,0,0,2,2.82l.85.34-.91.15a5.19,5.19,0,0,0-2.8,1.29,5.63,5.63,0,0,0-1.5,2.45l-.22-.29c3.33,0,6.13,0,8.13.07l2.35,0A5.85,5.85,0,0,1,286.42,268Z" style="fill:#4D7A42"></path><path d="M179.76,261v2.68h3.52v.62h-3.52v2.89H179v-6.81h4.67V261Z" style="fill:#263238"></path><path d="M184.79,260.45a.5.5,0,0,1,.5-.49.49.49,0,0,1,.51.48.51.51,0,1,1-1,0Zm.15,1.61h.69v5.12h-.69Z" style="fill:#263238"></path><path d="M190.13,262v.68H190a1.65,1.65,0,0,0-1.72,1.88v2.61h-.69v-5.12h.66v1A1.92,1.92,0,0,1,190.13,262Z" style="fill:#263238"></path><path d="M190.7,266.59l.31-.54a3.1,3.1,0,0,0,1.82.57c1,0,1.37-.33,1.37-.83,0-1.34-3.31-.29-3.31-2.31,0-.83.72-1.46,2-1.46a3.5,3.5,0,0,1,1.81.48l-.3.56a2.58,2.58,0,0,0-1.51-.44c-.92,0-1.33.36-1.33.84,0,1.38,3.31.34,3.31,2.31,0,.88-.77,1.45-2.11,1.45A3.43,3.43,0,0,1,190.7,266.59Z" style="fill:#263238"></path><path d="M198.86,266.86a1.64,1.64,0,0,1-1.08.36,1.35,1.35,0,0,1-1.5-1.48v-3.09h-.91v-.59h.91V261H197v1.11h1.55v.59H197v3.05a.82.82,0,0,0,.88.93,1.15,1.15,0,0,0,.76-.26Z" style="fill:#263238"></path><path d="M207.35,264.21v3h-.69v-2.9a1.42,1.42,0,0,0-1.53-1.63,1.67,1.67,0,0,0-1.79,1.84v2.69h-.69v-5.12h.66V263a2.14,2.14,0,0,1,1.95-1A2,2,0,0,1,207.35,264.21Z" style="fill:#263238"></path><path d="M213.08,264v3.17h-.66v-.8a1.92,1.92,0,0,1-1.76.84c-1.15,0-1.86-.6-1.86-1.48s.5-1.45,2-1.45h1.62V264c0-.88-.49-1.35-1.44-1.35a2.58,2.58,0,0,0-1.7.6l-.32-.51A3.26,3.26,0,0,1,211,262,1.82,1.82,0,0,1,213.08,264Zm-.69,1.63v-.84h-1.6c-1,0-1.31.39-1.31.92s.47,1,1.29,1A1.63,1.63,0,0,0,212.39,265.64Z" style="fill:#263238"></path><path d="M223.39,264.21v3h-.69v-2.9c0-1.08-.54-1.63-1.47-1.63a1.64,1.64,0,0,0-1.71,1.84v2.69h-.69v-2.9c0-1.08-.54-1.63-1.47-1.63a1.64,1.64,0,0,0-1.71,1.84v2.69H215v-5.12h.66V263a2.05,2.05,0,0,1,1.87-1,1.83,1.83,0,0,1,1.82,1.08,2.23,2.23,0,0,1,2-1.08A1.93,1.93,0,0,1,223.39,264.21Z" style="fill:#263238"></path><path d="M229.73,264.83h-4.27a1.89,1.89,0,0,0,2,1.78,2,2,0,0,0,1.56-.67l.39.45a2.7,2.7,0,0,1-4.65-1.77,2.49,2.49,0,1,1,5,0C229.74,264.68,229.73,264.76,229.73,264.83Zm-4.27-.51h3.62a1.78,1.78,0,0,0-1.82-1.7A1.76,1.76,0,0,0,225.46,264.32Z" style="fill:#263238"></path><path d="M184.83,311v.62H180v-6.8h4.67v.62h-4v2.42h3.52v.61h-3.52V311Z" style="fill:#263238"></path><path d="M194.8,308.69v3h-.69v-2.9c0-1.08-.54-1.63-1.47-1.63a1.64,1.64,0,0,0-1.71,1.85v2.68h-.69v-2.9c0-1.08-.54-1.63-1.47-1.63a1.65,1.65,0,0,0-1.71,1.85v2.68h-.69v-5.11H187v.93a2.07,2.07,0,0,1,1.87-1,1.83,1.83,0,0,1,1.82,1.08,2.23,2.23,0,0,1,2-1.08A1.92,1.92,0,0,1,194.8,308.69Z" style="fill:#263238"></path><path d="M200.53,308.49v3.17h-.66v-.8a1.92,1.92,0,0,1-1.76.85c-1.16,0-1.87-.6-1.87-1.49s.51-1.45,2-1.45h1.62v-.31c0-.87-.5-1.35-1.45-1.35a2.6,2.6,0,0,0-1.7.6l-.31-.51a3.21,3.21,0,0,1,2.08-.69A1.82,1.82,0,0,1,200.53,308.49Zm-.69,1.63v-.83h-1.6c-1,0-1.32.39-1.32.91s.48,1,1.3,1A1.64,1.64,0,0,0,199.84,310.12Z" style="fill:#263238"></path><path d="M202.25,304.93a.51.51,0,0,1,1,0,.51.51,0,1,1-1,0Zm.15,1.62h.69v5.11h-.69Z" style="fill:#263238"></path><path d="M205,304.45h.69v7.21H205Z" style="fill:#263238"></path><path d="M182,349.73c0,1.45-1,2.32-2.78,2.32h-1.83v2.15h-.72v-6.8h2.55C180.93,347.4,182,348.27,182,349.73Zm-.72,0c0-1.09-.72-1.71-2.08-1.71h-1.81v3.4h1.81C180.54,351.42,181.26,350.8,181.26,349.73Z" style="fill:#263238"></path><path d="M187.2,351v3.17h-.67v-.8a1.9,1.9,0,0,1-1.75.85c-1.16,0-1.87-.6-1.87-1.49s.5-1.45,2-1.45h1.63V351c0-.87-.5-1.35-1.45-1.35a2.59,2.59,0,0,0-1.7.61l-.31-.52a3.21,3.21,0,0,1,2.08-.69A1.82,1.82,0,0,1,187.2,351Zm-.69,1.64v-.84H184.9c-1,0-1.31.39-1.31.91s.48,1,1.29,1A1.65,1.65,0,0,0,186.51,352.67Z" style="fill:#263238"></path><path d="M188.36,353.62l.31-.55a3.11,3.11,0,0,0,1.82.58c1,0,1.37-.33,1.37-.84,0-1.33-3.32-.28-3.32-2.3,0-.84.72-1.46,2-1.46a3.38,3.38,0,0,1,1.81.48l-.3.55a2.64,2.64,0,0,0-1.51-.44c-.92,0-1.33.36-1.33.85,0,1.38,3.32.34,3.32,2.3,0,.89-.78,1.46-2.11,1.46A3.41,3.41,0,0,1,188.36,353.62Z" style="fill:#263238"></path><path d="M193.11,353.62l.31-.55a3.11,3.11,0,0,0,1.82.58c1,0,1.37-.33,1.37-.84,0-1.33-3.32-.28-3.32-2.3,0-.84.72-1.46,2-1.46a3.4,3.4,0,0,1,1.81.48l-.3.55a2.64,2.64,0,0,0-1.51-.44c-.92,0-1.33.36-1.33.85,0,1.38,3.32.34,3.32,2.3,0,.89-.78,1.46-2.11,1.46A3.41,3.41,0,0,1,193.11,353.62Z" style="fill:#263238"></path><path d="M206,349.09,204,354.2h-.65L201.77,350l-1.61,4.19h-.65l-1.93-5.11h.67l1.6,4.34,1.64-4.34h.6l1.63,4.34,1.62-4.34Z" style="fill:#263238"></path><path d="M206.35,351.64a2.6,2.6,0,1,1,2.6,2.61A2.51,2.51,0,0,1,206.35,351.64Zm4.5,0a1.9,1.9,0,1,0-1.9,2A1.87,1.87,0,0,0,210.85,351.64Z" style="fill:#263238"></path><path d="M215.53,349.05v.67h-.17a1.65,1.65,0,0,0-1.72,1.89v2.6H213v-5.11h.66v1A1.93,1.93,0,0,1,215.53,349.05Z" style="fill:#263238"></path><path d="M221.38,347v7.21h-.66v-1a2.2,2.2,0,0,1-2,1.06,2.6,2.6,0,0,1,0-5.2,2.21,2.21,0,0,1,1.94,1V347Zm-.68,4.65a1.9,1.9,0,1,0-1.89,2A1.87,1.87,0,0,0,220.7,351.64Z" style="fill:#263238"></path><path d="M294,261.33h.71v6.19h3.82v.62H294Z" style="fill:#263238"></path><path d="M303.4,265v3.17h-.66v-.8a1.92,1.92,0,0,1-1.76.85c-1.16,0-1.87-.61-1.87-1.49s.51-1.45,2-1.45h1.62v-.31c0-.87-.5-1.35-1.45-1.35a2.6,2.6,0,0,0-1.7.6l-.31-.51a3.21,3.21,0,0,1,2.08-.69A1.82,1.82,0,0,1,303.4,265Zm-.69,1.63v-.83h-1.6c-1,0-1.32.39-1.32.91s.48,1,1.3,1A1.64,1.64,0,0,0,302.71,266.6Z" style="fill:#263238"></path><path d="M304.56,267.56l.31-.55a3.1,3.1,0,0,0,1.82.57c1,0,1.37-.33,1.37-.83,0-1.33-3.31-.28-3.31-2.31,0-.83.71-1.45,2-1.45a3.43,3.43,0,0,1,1.8.47l-.3.56a2.61,2.61,0,0,0-1.5-.44c-.93,0-1.33.36-1.33.85,0,1.38,3.31.33,3.31,2.3,0,.88-.78,1.46-2.11,1.46A3.5,3.5,0,0,1,304.56,267.56Z" style="fill:#263238"></path><path d="M312.71,267.83a1.66,1.66,0,0,1-1.08.36,1.35,1.35,0,0,1-1.49-1.49v-3.09h-.92V263h.92v-1.12h.69V263h1.55v.58h-1.55v3.05a.82.82,0,0,0,.88.93,1.13,1.13,0,0,0,.76-.26Z" style="fill:#263238"></path><path d="M321.21,265.17v3h-.69v-2.9a1.42,1.42,0,0,0-1.54-1.63,1.67,1.67,0,0,0-1.78,1.85v2.68h-.69V263h.66V264a2.15,2.15,0,0,1,1.94-1A2,2,0,0,1,321.21,265.17Z" style="fill:#263238"></path><path d="M326.94,265v3.17h-.66v-.8a1.91,1.91,0,0,1-1.76.85c-1.16,0-1.87-.61-1.87-1.49s.51-1.45,2-1.45h1.62v-.31c0-.87-.5-1.35-1.45-1.35a2.6,2.6,0,0,0-1.7.6l-.31-.51a3.23,3.23,0,0,1,2.08-.69A1.82,1.82,0,0,1,326.94,265Zm-.69,1.63v-.83h-1.6c-1,0-1.32.39-1.32.91s.48,1,1.3,1A1.64,1.64,0,0,0,326.25,266.6Z" style="fill:#263238"></path><path d="M337.25,265.17v3h-.69v-2.9c0-1.08-.54-1.63-1.47-1.63a1.64,1.64,0,0,0-1.71,1.85v2.68h-.69v-2.9c0-1.08-.54-1.63-1.48-1.63a1.65,1.65,0,0,0-1.71,1.85v2.68h-.69V263h.66V264a2.07,2.07,0,0,1,1.88-1,1.84,1.84,0,0,1,1.82,1.08,2.21,2.21,0,0,1,2-1.08A1.93,1.93,0,0,1,337.25,265.17Z" style="fill:#263238"></path><path d="M343.59,265.8h-4.28a1.9,1.9,0,0,0,2,1.77,2,2,0,0,0,1.57-.67l.39.45a2.7,2.7,0,0,1-4.66-1.77,2.46,2.46,0,0,1,2.5-2.59,2.44,2.44,0,0,1,2.48,2.59C343.6,265.64,343.59,265.72,343.59,265.8Zm-4.28-.52h3.63a1.82,1.82,0,0,0-3.63,0Z" style="fill:#263238"></path><path d="M166.75,346.43l0-1a3.41,3.41,0,0,0-6.81,0l0,1.06a1.9,1.9,0,0,0-1.62,1.88v6.12a1.9,1.9,0,0,0,1.9,1.9h6.36a1.9,1.9,0,0,0,1.9-1.9v-6.12A1.9,1.9,0,0,0,166.75,346.43Zm-2.48,6.49h-1.66l.26-1.2a1,1,0,0,1-.48-.86,1,1,0,0,1,2,0,1,1,0,0,1-.44.85C164.08,352.17,164.27,352.92,164.27,352.92Zm1.75-6.5h-5.34v-1a2.67,2.67,0,0,1,5.34,0Z" style="fill:none"></path><path d="M166,346.42a4,4,0,0,1-.09-.65,3.23,3.23,0,0,0-.36-1.52,2.54,2.54,0,0,0-1.84-1.26,2.46,2.46,0,0,0-2.39,1.1,2.34,2.34,0,0,0-.38,1.12c0,.42,0,.82,0,1.22l-.24-.25a53,53,0,0,1,5.34.24,42.47,42.47,0,0,1-5.34.25h-.25v-.25c0-.4,0-.79,0-1.25a2.75,2.75,0,0,1,.45-1.36,2.89,2.89,0,0,1,2.9-1.29,2.82,2.82,0,0,1,2.09,1.56,2.89,2.89,0,0,1,.23,1.75C166.08,346.26,166,346.45,166,346.42Z" style="fill:#4D7A42"></path><path d="M164.27,352.92a8.85,8.85,0,0,1-.48-1.17l0-.11.11-.08a.83.83,0,0,0,.2-1.08.77.77,0,1,0-1.08,1l.16.09-.05.17-.3,1.19-.19-.24a12.44,12.44,0,0,1,1.66.19,5.33,5.33,0,0,1-1.66.2l-.24,0,0-.26c.08-.4.15-.8.22-1.21l.11.26a1.26,1.26,0,0,1-.27-1.93,1.23,1.23,0,0,1,1.12-.39,1.26,1.26,0,0,1,.9.63,1.2,1.2,0,0,1-.43,1.61l.08-.19A3.58,3.58,0,0,1,164.27,352.92Z" style="fill:#4D7A42"></path><path d="M166.75,346.43a1.14,1.14,0,0,1,.44,0,2,2,0,0,1,1.4,1.62c0,.35,0,.69,0,1.08,0,.79,0,1.66,0,2.62,0,.49,0,1,0,1.52a8.43,8.43,0,0,1-.06,1.71,2.12,2.12,0,0,1-1.27,1.41,2.29,2.29,0,0,1-1,.16h-1l-4,0h-1.06a2.17,2.17,0,0,1-2.27-2.33c0-1.54,0-3,0-4.5v-1.07a2.81,2.81,0,0,1,.14-1.13,2.15,2.15,0,0,1,1.7-1.37l-.2.23c0-.48,0-.91,0-1.4a3.55,3.55,0,0,1,.41-1.34A3.63,3.63,0,0,1,162.1,342a3.54,3.54,0,0,1,3.87,1,3.39,3.39,0,0,1,.87,2.49,7.14,7.14,0,0,1-.09.94,4.91,4.91,0,0,1-.06-.93,3.38,3.38,0,0,0-.93-2.31,3.24,3.24,0,0,0-5.21.71,3.17,3.17,0,0,0-.35,1.18c0,.41,0,.91,0,1.37v.2l-.2,0a1.68,1.68,0,0,0-1.31,1.07,2.63,2.63,0,0,0-.1,1v1.07c0,1.45,0,3,0,4.5a1.68,1.68,0,0,0,.85,1.61,1.84,1.84,0,0,0,.9.21h5.08a5.94,5.94,0,0,0,1.78-.1,1.67,1.67,0,0,0,1-1.11,9.11,9.11,0,0,0,.08-1.59c0-.52,0-1,0-1.52,0-1,0-1.83,0-2.62,0-.38,0-.76,0-1.06a1.77,1.77,0,0,0-.27-.79A2.26,2.26,0,0,0,166.75,346.43Z" style="fill:#4D7A42"></path><path d="M171.12,313.17a7.68,7.68,0,0,1-.05-.77c0-.54,0-1.24-.07-2.09-.05-1.84-.11-4.37-.19-7.42l.21.21-15.24.2L156,303h0v1.34c0,.45,0,.9,0,1.35,0,.89,0,1.77,0,2.63,0,1.71,0,3.37,0,4.93l-.24-.23c4.44,0,8.22,0,10.91,0l3.16,0a8.7,8.7,0,0,1,1.17.05,6.71,6.71,0,0,1-1.06.06l-3.11.1c-2.68.07-6.52.16-11.07.22h-.23v-.24c0-1.57,0-3.22-.06-4.94,0-.86,0-1.74,0-2.63,0-.44,0-.89,0-1.34v-1.35h0l.26-.27,15.24-.1h.21v.21c0,3.1,0,5.67,0,7.55,0,.83,0,1.51,0,2A3.09,3.09,0,0,1,171.12,313.17Z" style="fill:#4D7A42"></path><path d="M171,302.89a13.06,13.06,0,0,1-2.11,1.76c-1.34,1-3.21,2.43-5.3,3.94h-.35l0,0-.1-.07-.2-.14-.39-.27-.76-.53-1.43-1-2.41-1.74a14.53,14.53,0,0,1-2.14-1.72,14.31,14.31,0,0,1,2.35,1.42l2.47,1.65,1.45,1,.77.53.39.27.19.13.1.07.05,0,0,0h-.28c2.09-1.51,4-2.86,5.4-3.82A15.14,15.14,0,0,1,171,302.89Z" style="fill:#4D7A42"></path><path d="M156.18,313.31a16,16,0,0,1,2.33-3.38,16.5,16.5,0,0,1,2.75-3.07,15.79,15.79,0,0,1-2.34,3.39A16.39,16.39,0,0,1,156.18,313.31Z" style="fill:#4D7A42"></path><path d="M166.23,306.86a15.54,15.54,0,0,1,2.65,3,15.38,15.38,0,0,1,2.24,3.32,15.43,15.43,0,0,1-2.65-3A15.2,15.2,0,0,1,166.23,306.86Z" style="fill:#4D7A42"></path><rect x="146.74" y="381.49" width="212.99" height="32.47" rx="2.66" style="fill:#4D7A42"></rect><g style="opacity:0.30000000000000004"><rect x="146.74" y="381.49" width="212.99" height="32.47" rx="2.66"></rect></g><rect x="146.74" y="376.97" width="212.99" height="32.47" rx="2.66" style="fill:#4D7A42"></rect><path d="M235.25,393.9a3.44,3.44,0,0,1,3.6-3.48,3.37,3.37,0,0,1,2.59,1.06l-.63.61a2.63,2.63,0,1,0,0,3.61l.63.61a3.38,3.38,0,0,1-2.6,1.07A3.44,3.44,0,0,1,235.25,393.9Z" style="fill:#fff"></path><path d="M247.37,397.3l-1.47-2.09-.42,0h-1.69v2.07h-1v-6.8h2.66c1.76,0,2.83.89,2.83,2.37a2.15,2.15,0,0,1-1.49,2.15l1.61,2.28Zm0-4.43c0-1-.65-1.52-1.89-1.52h-1.66v3.06h1.66C246.69,394.41,247.34,393.84,247.34,392.87Z" style="fill:#fff"></path><path d="M254.82,396.46v.84h-4.94v-6.8h4.8v.85h-3.83v2.09h3.42v.82h-3.42v2.2Z" style="fill:#fff"></path><path d="M260.73,395.6h-3.62l-.75,1.7h-1l3.08-6.8h1l3.09,6.8h-1Zm-.34-.77-1.47-3.34-1.47,3.34Z" style="fill:#fff"></path><path d="M264.51,391.35h-2.33v-.85h5.63v.85h-2.34v5.95h-1Z" style="fill:#fff"></path><path d="M273.8,396.46v.84h-4.94v-6.8h4.8v.85h-3.83v2.09h3.41v.82h-3.41v2.2Z" style="fill:#fff"></path></g><g id="freepik--Icon--inject-2"><circle cx="200.94" cy="200.52" r="25.39" style="fill:#4D7A42"></circle><g style="opacity:0.30000000000000004"><circle cx="200.94" cy="200.52" r="25.39"></circle></g><circle cx="200.94" cy="195.81" r="25.39" style="fill:#4D7A42"></circle><path d="M200.94,210.83c-.72,0-1.31-6.73-1.31-15s.59-15,1.31-15,1.3,6.73,1.3,15S201.65,210.83,200.94,210.83Z" style="fill:#fff"></path><path d="M216,195.81c0,.72-6.72,1.3-15,1.3s-15-.58-15-1.3,6.72-1.3,15-1.3S216,195.09,216,195.81Z" style="fill:#fff"></path></g></svg>