<svg xmlns="http://www.w3.org/2000/svg" version="1.1" xmlns:xlink="http://www.w3.org/1999/xlink" xmlns:svgjs="http://svgjs.com/svgjs" width="512" height="512" x="0" y="0" viewBox="0 0 32 32" style="enable-background:new 0 0 512 512" xml:space="preserve" class=""><g><path fill="#3CACB6" d="M23.5 20h-5a1 1 0 1 1 0-2h5a1 1 0 1 1 0 2z" data-original="#3cacb6"></path><path fill="#000000" d="m30.6 10.887-2.894-6.511a4.004 4.004 0 0 0-3.655-2.375H7.989a4.01 4.01 0 0 0-3.664 2.402c-.41.93-.819 1.8-1.229 2.671-.567 1.207-1.155 2.455-1.737 3.852-.321.775-.316 1.628.015 2.342a4.815 4.815 0 0 0 1.627 1.925v11.808c0 1.654 1.346 3 3 3H26c1.654 0 3-1.346 3-3V15.189a4.813 4.813 0 0 0 1.612-1.889c.347-.734.343-1.614-.013-2.414zM9 28v-4c0-.551.448-1 1-1h2c.552 0 1 .449 1 1v4zm18-1c0 .551-.448 1-1 1H15v-4c0-1.654-1.346-3-3-3h-2c-1.654 0-3 1.346-3 3v4H6c-.552 0-1-.449-1-1V15.977c.374.05.754.066 1.136.014 1.137-.156 2.162-.782 2.88-1.688.989 1.219 2.523 1.904 4.12 1.688 1.129-.154 2.147-.773 2.864-1.668.717.895 1.735 1.514 2.864 1.668.196.027.393.04.586.04 1.376 0 2.666-.659 3.534-1.728.718.905 1.742 1.532 2.88 1.688.381.051.761.035 1.136-.015v11.025zm1.804-14.554c-.503 1.067-1.612 1.706-2.668 1.563-1.053-.144-1.938-1.046-2.153-2.193A1 1 0 0 0 23.01 11H23a1 1 0 0 0-.979.796c-.293 1.398-1.591 2.39-2.886 2.213-1.053-.144-1.938-1.046-2.153-2.193a.999.999 0 0 0-1.964 0c-.216 1.147-1.101 2.049-2.153 2.193-1.298.175-2.594-.816-2.886-2.213-.097-.467-.533-.79-.988-.796a1 1 0 0 0-.973.816c-.216 1.147-1.101 2.049-2.153 2.193-1.077.141-2.178-.503-2.677-1.583-.095-.205-.088-.479.018-.733.564-1.355 1.142-2.582 1.7-3.769.417-.885.833-1.771 1.25-2.716A2.01 2.01 0 0 1 7.99 4h16.061a2 2 0 0 1 1.827 1.188l2.894 6.511c.117.263.129.542.032.747z" data-original="#09474d" class="" opacity="1"></path></g></svg>