<svg width="303" height="213" viewBox="0 0 303 213" fill="none" xmlns="http://www.w3.org/2000/svg">
<path d="M289.779 50.3447L285.294 74.8143L282.41 71.6437L277.497 75.5889L273.745 70.34L265.327 77.2357L258.137 63.6814L250.113 68.9762L246.932 64.0326L236.744 70.5006L233.679 63.107L240.819 24.1348L279.106 33.0416L289.779 50.3447Z" fill="#EBEBEB"/>
<path d="M279.106 33.042L289.78 50.343L276.502 47.2542L279.106 33.042Z" fill="#DBDBDB"/>
<path d="M284.34 79.7054L277.764 115.607L226.197 103.613L232.725 67.998L235.79 75.3911L245.979 68.9231L249.159 73.8673L257.184 68.5725L264.373 82.1263L272.792 75.2306L276.544 80.4794L281.456 76.5348L284.34 79.7054Z" fill="#EBEBEB"/>
<path d="M210.533 75.4982L157.98 79.1626L153.805 3.14852L192.825 0.427734L207.153 13.9683L210.533 75.4982Z" fill="#EBEBEB"/>
<path d="M192.825 0.427734L207.153 13.9683L193.621 14.9118L192.825 0.427734Z" fill="#DBDBDB"/>
<path d="M178.257 51.5712L178.054 49.8568C177.523 46.3029 178.387 42.3286 181.128 38.1701C183.599 34.4931 184.94 31.8172 184.792 28.8377C184.624 25.46 182.631 23.3269 178.925 23.4943C176.809 23.6279 174.498 24.5709 173.09 25.922L171.472 21.8385C173.333 20.1267 176.631 18.8558 179.745 18.6589C186.504 18.2323 189.794 22.7419 190.044 27.7743C190.268 32.2781 188.196 35.6636 185.563 39.6168C183.148 43.2235 182.352 46.1973 182.697 49.5633L182.841 51.2814L178.257 51.5712ZM177.425 60.9242C177.303 58.4738 178.687 56.659 180.744 56.5292C182.801 56.3993 184.297 58.0324 184.419 60.4828C184.534 62.8007 183.271 64.6741 181.096 64.8114C179.04 64.9412 177.54 63.2421 177.425 60.9242Z" fill="#DBDBDB"/>
<path d="M46.828 38.6442L41.5395 35.9419L40.8061 37.7667C40.5906 38.3031 40.1234 38.6458 39.6009 38.6717C39.3122 38.6859 39.0236 38.7181 38.7363 38.7672C38.2209 38.8559 37.7045 38.622 37.4009 38.1447L36.3657 36.5164L31.6437 40.3285L32.6788 41.9563C32.9825 42.4342 33.0129 43.0599 32.773 43.5815C32.639 43.8719 32.5195 44.1697 32.4145 44.4733C32.2248 45.0224 31.7866 45.4105 31.2665 45.4681L29.4971 45.6634L30.0673 52.1747L31.8429 51.9757C32.3635 51.9171 32.856 52.209 33.1385 52.7054C33.2154 52.84 33.2955 52.9731 33.3784 53.104C33.4618 53.2349 33.5476 53.3633 33.6362 53.4884C33.9604 53.9472 34.0476 54.5634 33.833 55.0977L33.0945 56.9357L38.383 59.638L39.1197 57.8095C39.3357 57.2731 39.8038 56.9309 40.3263 56.9056C40.614 56.8919 40.9013 56.8602 41.1876 56.8116C41.7025 56.724 42.218 56.9573 42.5217 57.4347L43.5572 59.0635L48.2793 55.2514L47.2437 53.6225C46.9405 53.1452 46.9096 52.52 47.149 51.9989C47.2821 51.7096 47.4007 51.4128 47.5047 51.1103C47.694 50.5612 48.1317 50.172 48.6523 50.1139L50.4254 49.9159L49.8552 43.4046L48.0811 43.6021C47.5623 43.6597 47.0712 43.3687 46.7896 42.874C46.7123 42.7388 46.6317 42.6047 46.5478 42.4722C46.4644 42.3413 46.3786 42.213 46.2901 42.0878C45.9639 41.6269 45.8768 41.0075 46.0928 40.4705L46.828 38.6442ZM43.8281 44.6681C45.3581 47.0742 44.8674 50.4191 42.7325 52.143C40.5971 53.867 37.6248 53.3173 36.0949 50.9112C34.5649 48.5051 35.0565 45.1529 37.1919 43.4289C39.3268 41.7055 42.2981 42.2626 43.8281 44.6681Z" fill="#EBEBEB"/>
<path d="M285.766 125.025L282.242 127.315L282.865 128.53C283.049 128.888 283.031 129.327 282.831 129.673C282.721 129.864 282.619 130.062 282.527 130.266C282.361 130.633 282.032 130.869 281.667 130.869H280.422V135.455H281.667C282.032 135.455 282.361 135.691 282.527 136.058C282.619 136.262 282.721 136.46 282.831 136.651C283.031 136.997 283.049 137.436 282.865 137.794L282.242 139.009L285.766 141.3L286.39 140.079C286.572 139.721 286.921 139.524 287.287 139.545C287.386 139.551 287.486 139.553 287.586 139.553C287.687 139.553 287.787 139.551 287.886 139.545C288.25 139.524 288.597 139.719 288.779 140.075L289.407 141.299L292.93 139.008L292.307 137.789C292.123 137.432 292.142 136.992 292.342 136.647C292.452 136.457 292.554 136.259 292.646 136.056C292.812 135.69 293.14 135.454 293.505 135.454H294.751V130.869H293.505C293.14 130.869 292.812 130.633 292.646 130.267C292.554 130.064 292.452 129.866 292.342 129.676C292.142 129.33 292.124 128.891 292.307 128.533L292.93 127.314L289.407 125.023L288.783 126.243C288.6 126.599 288.253 126.795 287.888 126.774C287.788 126.768 287.688 126.766 287.586 126.766C287.486 126.766 287.386 126.768 287.287 126.774C286.921 126.795 286.572 126.598 286.389 126.241L285.766 125.025ZM287.587 129.407C289.427 129.407 290.918 131.087 290.918 133.16C290.918 135.234 289.427 136.917 287.587 136.917C285.747 136.917 284.253 135.234 284.253 133.16C284.253 131.087 285.746 129.407 287.587 129.407Z" fill="#EBEBEB"/>
<path d="M57.5225 19.1342L54.2911 21.9183L55.0479 23.0324C55.2705 23.3603 55.3033 23.7985 55.1449 24.1702C55.0568 24.3756 54.979 24.5868 54.9111 24.8033C54.7892 25.1908 54.4898 25.4728 54.1276 25.5261L52.8928 25.7072L53.4181 30.2544L54.6529 30.0733C55.0151 30.0199 55.3684 30.2063 55.5741 30.5458C55.6889 30.7354 55.8122 30.917 55.9438 31.0902C56.1819 31.4038 56.2494 31.8373 56.1088 32.218L55.6303 33.5137L59.3866 35.273L59.865 33.972C60.0056 33.5908 60.3285 33.3447 60.694 33.312C60.7933 33.303 60.8927 33.2914 60.992 33.2772C61.0913 33.2624 61.1902 33.2455 61.2877 33.2249C61.6466 33.151 62.0131 33.2946 62.2347 33.6209L62.9971 34.7434L66.229 31.9593L65.4713 30.8415C65.2487 30.5136 65.2164 30.0748 65.3757 29.7031C65.4633 29.4983 65.5411 29.2881 65.6091 29.0727C65.7314 28.6857 66.0303 28.4043 66.3921 28.3509L67.6273 28.1698L67.102 23.6227L65.8668 23.8038C65.505 23.8571 65.1522 23.6713 64.946 23.3318C64.8317 23.1433 64.7084 22.9627 64.5772 22.79C64.3387 22.4764 64.2703 22.0429 64.4109 21.6617L64.8898 20.3628L61.1331 18.6035L60.6537 19.9029C60.5136 20.2831 60.1912 20.5281 59.8271 20.5603C59.7277 20.5693 59.6275 20.5809 59.5267 20.5957C59.4274 20.6104 59.3285 20.6273 59.2306 20.6474C58.8697 20.7219 58.5019 20.5772 58.2788 20.2488L57.5225 19.1342ZM59.8299 23.2156C61.6546 22.9479 63.3251 24.3967 63.5627 26.4528C63.8003 28.5088 62.5149 30.3948 60.6902 30.6625C58.8655 30.9302 57.1912 29.4782 56.9537 27.4222C56.7161 25.3661 58.0052 23.4833 59.8299 23.2156Z" fill="#EBEBEB"/>
<path d="M33.3973 138.262C33.5819 133.152 33.5079 128.033 33.2108 122.931C32.5979 112.408 31.0604 101.966 28.9489 91.6979C27.7606 85.9178 26.2967 80.236 24.7719 74.56C24.726 74.3884 24.4832 74.437 24.5254 74.6155C29.2413 94.6246 33.1105 115.274 32.8444 136.073C32.7699 141.894 32.1719 147.611 31.6813 153.395C31.6682 153.55 31.8941 153.612 31.9254 153.453C32.8983 148.503 33.2146 143.317 33.3973 138.262Z" fill="#EBEBEB"/>
<path d="M24.5251 74.6162C24.5251 74.6162 17.3809 95.0487 18.9802 99.8514C20.58 104.654 23.8775 105.678 23.8775 105.678C23.8775 105.678 19.5064 112.71 22.5607 119.306C25.6155 125.901 32.4022 125.589 32.8529 133.067C32.8529 133.067 33.2311 101.799 24.5251 74.6162Z" fill="#EBEBEB"/>
<path d="M32.0765 120.156C32.0854 120.121 32.083 120.085 32.069 120.049C31.0657 106.155 28.8783 92.3054 25.1394 78.9454C25.1286 78.9058 25.071 78.9185 25.0803 78.9596C26.496 84.9366 27.7555 90.9458 28.8319 96.9877C27.9041 95.9111 26.6904 95.2923 25.4215 94.845C25.3976 94.8366 25.3859 94.8751 25.4084 94.8862C26.7298 95.5299 27.9955 96.2759 28.9294 97.5373C29.1379 98.7216 29.3422 99.9065 29.5362 101.093C27.9397 99.0822 25.7256 98.0849 23.5101 97.1366C23.4787 97.1234 23.4623 97.1772 23.4927 97.1915C25.8001 98.2501 28.0986 99.6139 29.6618 101.854C30.2068 105.245 30.6838 108.648 31.0966 112.061C29.9294 110.687 28.4889 109.764 26.8366 109.31C26.787 109.296 26.7593 109.379 26.8095 109.396C28.5072 109.946 29.9673 111.017 31.1299 112.514C31.1383 112.525 31.1472 112.53 31.1566 112.537C31.2995 113.737 31.4345 114.94 31.561 116.144C30.6622 115.28 29.6688 114.622 28.5751 114.114C28.5461 114.101 28.5306 114.151 28.5587 114.165C29.6698 114.698 30.6693 115.466 31.5493 116.395C31.5619 116.409 31.5746 116.407 31.5872 116.412C31.7063 117.556 31.8248 118.701 31.9274 119.848C30.2897 117.624 28.2644 116.015 25.868 114.973C25.8212 114.952 25.7973 115.033 25.8423 115.055C28.1721 116.197 30.226 118.005 31.814 120.233C31.8576 120.294 31.9143 120.304 31.9645 120.286C32.1191 122.044 32.2573 123.805 32.3717 125.57C32.3731 125.594 32.4082 125.596 32.4073 125.572C32.3178 123.766 32.2058 121.96 32.0765 120.156Z" fill="white"/>
<path d="M26.336 92.8142C25.097 91.8549 23.5226 91.4451 22.0437 91.3063C22.0081 91.3031 22.0052 91.3622 22.0399 91.3675C23.5783 91.6252 24.8707 92.2524 26.284 92.9293C26.3454 92.9594 26.3894 92.8559 26.336 92.8142Z" fill="white"/>
<path d="M27.2036 114.447C26.2233 113.784 25.1048 113.409 23.9815 113.205C23.9422 113.198 23.9389 113.266 23.9773 113.274C25.1179 113.507 26.1282 113.964 27.1647 114.533C27.2087 114.558 27.2453 114.475 27.2036 114.447Z" fill="white"/>
<path d="M52.1787 100.185C49.1994 102.545 46.34 105.267 43.9099 108.329C41.3195 111.593 39.4301 115.299 38.1106 119.411C35.4073 127.835 33.9256 136.961 33.7906 145.914C33.7147 150.934 34.1111 155.914 35.0642 160.819C35.0989 160.998 35.3356 160.947 35.3117 160.767C34.1467 152.136 34.1894 143.328 35.441 134.713C36.6692 126.261 38.5965 117.065 43.3649 110.195C45.9614 106.455 49.1989 103.512 52.3994 100.471C52.5667 100.311 52.3516 100.048 52.1787 100.185Z" fill="#EBEBEB"/>
<path d="M34.8416 139.828C34.8416 139.828 37.2951 135.172 40.8691 131.146C44.4431 127.12 47.4533 124.259 47.9177 121.596C48.3825 118.933 44.3376 116.972 44.3376 116.972C44.3376 116.972 49.2836 117.973 50.6369 115.634C51.9902 113.295 52.6435 99.749 52.6435 99.749C52.6435 99.749 43.646 106.987 39.4535 117.134C35.2614 127.281 34.8416 139.828 34.8416 139.828Z" fill="#EBEBEB"/>
<path d="M49.5302 103.222C45.7444 107.412 41.9343 111.877 39.7047 117.381C38.9404 119.268 38.29 121.225 37.7174 123.219C37.716 123.222 37.716 123.225 37.7146 123.228C37.5998 123.628 37.4831 124.028 37.3749 124.431C37.3641 124.451 37.3584 124.473 37.3566 124.497C36.2544 128.608 35.4752 132.859 34.8004 137.012C34.7962 137.038 34.8323 137.053 34.8369 137.025C35.2245 134.911 35.6523 132.777 36.1298 130.649C36.1467 130.65 36.1649 130.646 36.1837 130.637C36.9489 130.275 37.7188 130.048 38.5449 129.962C38.5988 129.956 38.5946 129.851 38.5398 129.854C37.7427 129.897 36.962 130.055 36.2043 130.334C36.6401 128.415 37.1138 126.502 37.6466 124.616C39.3837 124.137 41.1967 123.878 42.983 123.83C43.0013 123.83 43.0045 123.798 42.9853 123.797C41.1845 123.703 39.492 123.878 37.738 124.299C37.8308 123.976 37.9273 123.654 38.0234 123.332C39.1963 123.031 40.3743 122.777 41.5744 122.654C41.5959 122.652 41.5941 122.61 41.5725 122.61C40.3973 122.646 39.2389 122.785 38.0955 123.087C38.5852 121.455 39.1143 119.845 39.7009 118.278C40.1864 116.981 40.7637 115.75 41.3996 114.561C42.3616 114.315 43.2941 114.082 44.2801 113.982C44.3072 113.98 44.3044 113.931 44.2777 113.928C43.3827 113.863 42.4507 113.938 41.5847 114.228C42.058 113.367 42.5552 112.523 43.0875 111.706C45.1053 111.202 47.1507 110.735 49.2148 111.172C49.2504 111.179 49.2636 111.112 49.2284 111.102C47.2636 110.519 45.3133 110.855 43.3583 111.291C43.5715 110.971 43.7899 110.655 44.0101 110.341C45.2486 109.91 46.4806 109.701 47.78 109.674C47.8067 109.673 47.8109 109.63 47.7833 109.627C46.5973 109.499 45.4145 109.628 44.2683 109.978C45.9365 107.643 47.7791 105.45 49.6005 103.281C49.6858 103.182 49.6202 103.123 49.5302 103.222Z" fill="white"/>
<path d="M49.43 112.456C48.8377 112.385 48.2356 112.31 47.6405 112.386C47.5683 112.395 47.5744 112.527 47.647 112.529C48.2393 112.549 48.8316 112.499 49.4239 112.535C49.4694 112.538 49.475 112.461 49.43 112.456Z" fill="white"/>
<path d="M42.9534 125.597C42.0078 125.583 41.0636 125.87 40.1803 126.224C40.1583 126.233 40.1704 126.275 40.1934 126.268C41.109 126.023 42.0355 125.923 42.9605 125.751C43.0364 125.737 43.0326 125.598 42.9534 125.597Z" fill="white"/>
<path d="M41.0124 121.057C40.6286 121.034 40.2134 121.11 39.8352 121.177C39.7963 121.184 39.7987 121.255 39.839 121.256C40.2214 121.263 40.6422 121.275 41.0189 121.194C41.0855 121.179 41.0826 121.061 41.0124 121.057Z" fill="white"/>
<path d="M8.46544 114.56C11.3609 115.694 14.2329 117.152 16.828 118.998C19.5941 120.965 21.8832 123.472 23.7946 126.455C27.7101 132.569 30.7813 139.569 32.7274 146.779C33.8183 150.821 34.5193 154.955 34.7541 159.173C34.7625 159.326 34.5605 159.347 34.5432 159.194C33.7152 151.906 31.8741 144.79 29.0939 138.143C26.3662 131.622 22.9202 124.682 17.6518 120.365C14.783 118.014 11.5596 116.476 8.34548 114.848C8.17726 114.763 8.29721 114.495 8.46544 114.56Z" fill="#EBEBEB"/>
<path d="M30.628 142.127C30.628 142.127 27.6871 138.998 23.9692 136.671C20.2509 134.344 17.228 132.812 16.3058 130.778C15.3836 128.744 18.2547 126.104 18.2547 126.104C18.2547 126.104 14.4572 128.201 12.8823 126.661C11.3073 125.121 8 114.329 8 114.329C8 114.329 16.7665 117.843 22.2401 124.963C27.7142 132.083 30.628 142.127 30.628 142.127Z" fill="#EBEBEB"/>
<path d="M30.1714 139.901C25.7868 130.628 19.9364 122.239 11.9196 116.702C11.9159 116.699 11.9126 116.705 11.9159 116.708C14.0264 118.223 15.9711 119.971 17.7836 121.881C16.1609 121.831 14.5091 122.122 13.0705 123.002C13.0387 123.022 13.0616 123.071 13.0944 123.058C14.6979 122.446 16.2382 122.045 17.9439 122.134C17.9673 122.135 17.9823 122.122 17.9987 122.111C18.2832 122.415 18.5638 122.724 18.8417 123.036C17.9983 123.076 17.1449 123.211 16.323 123.412C16.301 123.417 16.3071 123.456 16.3296 123.451C17.219 123.257 18.0873 123.19 18.9898 123.204C20.4588 124.867 21.8276 126.647 23.1247 128.494C22.5389 128.398 21.9251 128.454 21.3637 128.638C21.322 128.652 21.3328 128.72 21.3764 128.713C22.015 128.622 22.6223 128.634 23.2564 128.684C23.4963 129.028 23.739 129.371 23.9742 129.719C22.1716 129.597 20.4054 129.792 18.6538 130.302C18.628 130.309 18.6351 130.354 18.6618 130.348C20.4687 129.949 22.2906 129.821 24.1265 129.948C24.3501 130.282 24.5619 130.626 24.7812 130.964C23.7057 130.927 22.6626 131.079 21.6139 131.373C21.5741 131.384 21.5853 131.455 21.6261 131.444C22.7048 131.167 23.8018 131.097 24.9044 131.156C25.8477 132.62 26.7511 134.117 27.6194 135.632C27.1597 135.526 26.6771 135.584 26.2291 135.726C26.2052 135.734 26.2118 135.772 26.2366 135.769C26.7525 135.701 27.2343 135.776 27.7408 135.849C28.5215 137.219 29.2764 138.602 29.9994 139.993C30.0613 140.112 30.2295 140.024 30.1714 139.901Z" fill="white"/>
<path d="M23.3512 132.209C22.4942 132.126 21.623 132.278 20.8044 132.56C20.781 132.568 20.7866 132.608 20.8119 132.603C21.6549 132.428 22.4904 132.362 23.3447 132.31C23.4004 132.307 23.4112 132.215 23.3512 132.209Z" fill="white"/>
<path d="M15.7041 120.908C15.3166 120.859 14.9122 120.916 14.5294 120.985C14.4839 120.994 14.498 121.069 14.543 121.064C14.9291 121.018 15.31 121.034 15.6966 121.021C15.7594 121.019 15.7697 120.917 15.7041 120.908Z" fill="white"/>
<path d="M41.9352 172.791H22.147L24.9684 149.503L25.6895 143.532H38.3927L39.1134 149.503L41.9352 172.791Z" fill="#DBDBDB"/>
<path d="M39.1135 149.503H24.9685L25.6897 143.532H38.3928L39.1135 149.503Z" fill="#C7C7C7"/>
<path d="M40.2089 141.46H23.8728V146.518H40.2089V141.46Z" fill="#DBDBDB"/>
<path d="M151.4 212.145C235.016 212.145 302.8 204.717 302.8 195.555C302.8 186.393 235.016 178.965 151.4 178.965C67.784 178.965 0 186.393 0 195.555C0 204.717 67.784 212.145 151.4 212.145Z" fill="#EBEBEB"/>
<path d="M231.342 199.123H70.4717L93.7332 67.2017H254.603L231.342 199.123Z" fill="#4D7A42"/>
<path d="M148.791 53.5396H96.1419L93.7332 67.2016H150.077L148.791 53.5396Z" fill="#4D7A42"/>
<g opacity="0.1">
<path d="M231.342 199.123H70.4717L93.7332 67.2017H254.603L231.342 199.123Z" fill="black"/>
<path d="M148.791 53.5396H96.1419L93.7332 67.2016H150.077L148.791 53.5396Z" fill="black"/>
</g>
<path d="M90.4613 59.1127C90.2532 58.3471 90.2062 57.581 90.1973 56.8154C90.2047 56.0493 90.2516 55.2837 90.4613 54.5181C90.6704 55.2837 90.7173 56.0498 90.7253 56.8154C90.7163 57.5815 90.6693 58.3471 90.4613 59.1127Z" fill="#263238"/>
<path d="M85.7824 60.4658C85.2191 59.9067 84.7956 59.2667 84.4054 58.6083C84.029 57.9415 83.6868 57.2545 83.4851 56.4868C84.0495 57.0454 84.473 57.6854 84.8621 58.3443C85.2375 59.0117 85.5802 59.6986 85.7824 60.4658Z" fill="#263238"/>
<path d="M82.4075 63.9765C81.6403 63.7738 80.9534 63.4316 80.286 63.0562C79.6265 62.6666 78.9866 62.2431 78.4285 61.6792C79.1962 61.8809 79.8831 62.223 80.55 62.5995C81.2084 62.9902 81.8483 63.4132 82.4075 63.9765Z" fill="#263238"/>
<path d="M81.2402 68.7049C80.4746 68.9129 79.7084 68.9599 78.9428 68.9689C78.1772 68.961 77.4111 68.9145 76.6455 68.7049C77.4111 68.4958 78.1772 68.4488 78.9428 68.4409C79.7084 68.4499 80.474 68.4969 81.2402 68.7049Z" fill="#263238"/>
<path d="M82.5928 73.3833C82.0336 73.9467 81.3937 74.3701 80.7353 74.7603C80.0684 75.1368 79.3815 75.4789 78.6138 75.6806C79.1724 75.1167 79.8123 74.6933 80.4713 74.3036C81.1387 73.9282 81.8256 73.5855 82.5928 73.3833Z" fill="#263238"/>
<path d="M86.1042 76.7583C85.9015 77.5255 85.5593 78.2124 85.1839 78.8798C84.7942 79.5393 84.3708 80.1792 83.8069 80.7373C84.0086 79.9696 84.3507 79.2827 84.7272 78.6158C85.1174 77.9574 85.5408 77.3175 86.1042 76.7583Z" fill="#263238"/>
<path d="M90.8319 77.9258C91.0399 78.6919 91.0869 79.4575 91.0959 80.2231C91.088 80.9887 91.0415 81.7548 90.8319 82.5204C90.6223 81.7548 90.5758 80.9887 90.5679 80.2231C90.5768 79.4575 90.6238 78.6919 90.8319 77.9258Z" fill="#263238"/>
<path d="M95.5105 76.5732C96.0739 77.1324 96.4968 77.7723 96.8875 78.4307C97.264 79.0976 97.6061 79.7845 97.8078 80.5522C97.2434 79.9936 96.8205 79.3537 96.4308 78.6947C96.0554 78.0268 95.7133 77.3404 95.5105 76.5732Z" fill="#263238"/>
<path d="M98.8855 73.062C99.6527 73.2648 100.34 73.6069 101.007 73.9823C101.666 74.372 102.306 74.7954 102.865 75.3593C102.097 75.1576 101.41 74.8155 100.743 74.439C100.085 74.0488 99.4447 73.6254 98.8855 73.062Z" fill="#263238"/>
<path d="M100.053 68.3338C100.819 68.1258 101.585 68.0788 102.351 68.0698C103.116 68.0777 103.882 68.1242 104.648 68.3338C103.882 68.5429 103.116 68.5899 102.351 68.5978C101.584 68.5888 100.819 68.5424 100.053 68.3338Z" fill="#263238"/>
<path d="M98.7002 63.6557C99.2593 63.0923 99.8993 62.6689 100.558 62.2787C101.225 61.9028 101.911 61.5601 102.679 61.3584C102.121 61.9223 101.481 62.3458 100.822 62.7354C100.154 63.1108 99.4674 63.453 98.7002 63.6557Z" fill="#263238"/>
<path d="M95.1895 60.2808C95.3922 59.5136 95.7344 58.8267 96.1098 58.1593C96.4994 57.4998 96.9229 56.8599 97.4868 56.3018C97.2851 57.0695 96.9429 57.7564 96.5665 58.4233C96.1758 59.0817 95.7523 59.7216 95.1895 60.2808Z" fill="#263238"/>
<path d="M231.106 199.123H69.8893L47 71.9907H208.217L231.106 199.123Z" fill="#4D7A42"/>
<path d="M102.865 149.708C106.566 149.708 109.566 146.708 109.566 143.007C109.566 139.306 106.566 136.306 102.865 136.306C99.1644 136.306 96.1643 139.306 96.1643 143.007C96.1643 146.708 99.1644 149.708 102.865 149.708Z" fill="#263238"/>
<path d="M155.837 149.708C159.538 149.708 162.538 146.708 162.538 143.007C162.538 139.306 159.538 136.306 155.837 136.306C152.136 136.306 149.136 139.306 149.136 143.007C149.136 146.708 152.136 149.708 155.837 149.708Z" fill="#263238"/>
<path d="M138.976 150.778L138.608 150.076C138.574 150.013 135.113 143.614 128.148 143.614C121.796 143.614 120.247 149.639 120.184 149.895L119.996 150.663L118.46 150.291L118.645 149.523C118.662 149.448 120.532 142.03 128.148 142.03C136.088 142.03 139.855 149.042 140.011 149.341L140.379 150.042L138.976 150.778Z" fill="#263238"/>
</svg>
