<svg width="21" height="21" viewBox="0 0 21 21" fill="none" xmlns="http://www.w3.org/2000/svg">
<g clip-path="url(#clip0_190_17692)">
<path d="M13.125 11.3311H7C6.64125 11.3311 6.34375 11.0336 6.34375 10.6748C6.34375 10.3161 6.64125 10.0186 7 10.0186H13.125C13.4837 10.0186 13.7812 10.3161 13.7812 10.6748C13.7812 11.0336 13.4837 11.3311 13.125 11.3311Z" fill="#BCBCBC"/>
<path d="M10.8325 14.8311H7C6.64125 14.8311 6.34375 14.5336 6.34375 14.1748C6.34375 13.8161 6.64125 13.5186 7 13.5186H10.8325C11.1913 13.5186 11.4888 13.8161 11.4888 14.1748C11.4888 14.5336 11.1913 14.8311 10.8325 14.8311Z" fill="#BCBCBC" fill-opacity="0.4"/>
<path d="M12.25 5.90625H8.75C7.91 5.90625 6.34375 5.90625 6.34375 3.5C6.34375 1.09375 7.91 1.09375 8.75 1.09375H12.25C13.09 1.09375 14.6562 1.09375 14.6562 3.5C14.6562 4.34 14.6562 5.90625 12.25 5.90625ZM8.75 2.40625C7.88375 2.40625 7.65625 2.40625 7.65625 3.5C7.65625 4.59375 7.88375 4.59375 8.75 4.59375H12.25C13.3438 4.59375 13.3438 4.36625 13.3438 3.5C13.3438 2.40625 13.1163 2.40625 12.25 2.40625H8.75Z" fill="#BCBCBC" fill-opacity="0.4"/>
<path d="M13.125 19.9061H7.875C2.9575 19.9061 1.96875 17.6486 1.96875 13.9999V8.74988C1.96875 4.75988 3.4125 3.05363 6.965 2.86988C7.315 2.85238 7.63875 3.12363 7.65625 3.49113C7.67375 3.85863 7.39375 4.15613 7.035 4.17363C4.55 4.31363 3.28125 5.05738 3.28125 8.74988V13.9999C3.28125 17.2374 3.92 18.5936 7.875 18.5936H13.125C17.08 18.5936 17.7188 17.2374 17.7188 13.9999V8.74988C17.7188 5.05738 16.45 4.31363 13.965 4.17363C13.6062 4.15613 13.3263 3.84113 13.3438 3.48238C13.3612 3.12363 13.6763 2.84363 14.035 2.86113C17.5875 3.05363 19.0312 4.75988 19.0312 8.74113V13.9911C19.0312 17.6486 18.0425 19.9061 13.125 19.9061Z" fill="#BCBCBC"/>
</g>
<defs>
<clipPath id="clip0_190_17692">
<rect width="21" height="21" fill="white"/>
</clipPath>
</defs>
</svg>
