<svg xmlns="http://www.w3.org/2000/svg" version="1.1" xmlns:xlink="http://www.w3.org/1999/xlink" xmlns:svgjs="http://svgjs.com/svgjs" width="512" height="512" x="0" y="0" viewBox="0 0 512 512" style="enable-background:new 0 0 512 512" xml:space="preserve"><g><path fill="#B3B1B3" d="M56 160v-48h64l32 32v16z" data-original="#b3b1b3"></path><path fill="#E4E4E3" d="M56 320h120v168H56z" data-original="#e4e4e3"></path><path fill="#E4E4E3" d="M24 144h240v192H24z" data-original="#e4e4e3"></path><path fill="#0093B9" d="M56 176h208v128H56z" data-original="#0093b9"></path><path fill="#2DA4C4" d="M72 192h48v96H72zM136 192h112v96H136z" data-original="#2da4c4"></path><path fill="#CACAC9" d="M56 336h120v16H56z" data-original="#cacac9"></path><path fill="#CACAC9" d="M112 336h24v152h-24z" data-original="#cacac9"></path><path fill="#0093B9" d="M232 72h224v416H232z" data-original="#0093b9"></path><g fill="#5DB9D2"><path d="M272 128h48v48h-48zM368 128h48v48h-48zM368 216h48v48h-48zM368 304h48v48h-48z" fill="#5DB9D2" data-original="#5db9d2"></path></g><path fill="#FBBE1F" d="M480 88H208V56l272-24z" data-original="#fbbe1f"></path><path fill="#5DB9D2" d="M272 216h48v48h-48z" data-original="#5db9d2"></path><path fill="#E4E4E3" d="M336 320v168H128V320l104-40z" data-original="#e4e4e3"></path><path fill="#CACAC9" d="M336 320v29.5L232 304l-104 45.5V320l104-40z" data-original="#cacac9"></path><path fill="#0093B9" d="M168 376h48v112h-48zM248 392h48v40h-48z" data-original="#0093b9"></path><path fill="#85BB40" d="m104 304 128-56 128 56v40l-128-56-128 56zM352 400c-16 0-24 16-24 32s-16 16-16 32.232S328 488 336 488h32c8 0 24-7.537 24-23.768S376 448 376 432s-8-32-24-32z" data-original="#85bb40"></path><path d="M464 480V96h16a8 8 0 0 0 8-8V32a8 8 0 0 0-8.7-7.969l-272 24A8 8 0 0 0 200 56v32a8 8 0 0 0 8 8h16v128h16V96h208v384h-52.426A29.875 29.875 0 0 0 400 464.231c0-11.441-5.991-17.475-10.365-21.881-3.909-3.936-5.635-5.865-5.635-10.35 0-19.878-10.992-40-32-40s-32 20.122-32 40c0 4.485-1.727 6.414-5.634 10.35-4.375 4.406-10.366 10.44-10.366 21.881A29.884 29.884 0 0 0 308.423 480H224V376a8 8 0 0 0-8-8h-48a8 8 0 0 0-8 8v104h-24V338.732l96-42 96 42V384h16v-38.268l12.793 5.6A8 8 0 0 0 368 344v-40a8 8 0 0 0-4.793-7.329l-128-56a8 8 0 0 0-6.414 0l-128 56A8 8 0 0 0 96 304v40a8 8 0 0 0 11.207 7.329l12.793-5.6V480H64V344h16v-16H32V152h176v-16h-52.686l-29.657-29.657A8 8 0 0 0 120 104H56a8 8 0 0 0-8 8v24H24a8 8 0 0 0-8 8v192a8 8 0 0 0 8 8h24v136H16v16h480v-16zM216 63.325l256-22.588V80H216zM112 331.768v-22.536l120-52.5 120 52.5v22.536l-8-3.5V328h-.612l-108.181-47.329a8 8 0 0 0-6.414 0L120.612 328H120v.268zM64 120h52.687l16 16H64zm112 264h32v96h-32zm160 96c-4.406 0-16-4.849-16-15.769 0-4.652 1.753-6.614 5.72-10.609C330.058 449.252 336 443.268 336 432c0-18.984 10.466-24 16-24 12.656 0 16 15.7 16 24 0 11.268 5.941 17.252 10.279 21.622 3.966 4 5.72 5.957 5.72 10.609C384 475.151 372.405 480 368 480z" fill="#000000" data-original="#000000"></path><path d="M248 384a8 8 0 0 0-8 8v40a8 8 0 0 0 8 8h48a8 8 0 0 0 8-8v-40a8 8 0 0 0-8-8zm40 40h-32v-24h32zM184 336h16v16h-16zM136 264v-80h72v-16H56a8 8 0 0 0-8 8v128a8 8 0 0 0 8 8h24v-16H64V184h56v80zM272 184h48a8 8 0 0 0 8-8v-48a8 8 0 0 0-8-8h-48a8 8 0 0 0-8 8v48a8 8 0 0 0 8 8zm8-48h32v32h-32zM368 184h48a8 8 0 0 0 8-8v-48a8 8 0 0 0-8-8h-48a8 8 0 0 0-8 8v48a8 8 0 0 0 8 8zm8-48h32v32h-32zM264 240h16v-16h32v40h16v-48a8 8 0 0 0-8-8h-48a8 8 0 0 0-8 8zM360 264a8 8 0 0 0 8 8h48a8 8 0 0 0 8-8v-48a8 8 0 0 0-8-8h-48a8 8 0 0 0-8 8zm16-40h32v32h-32zM384 344v16h32a8 8 0 0 0 8-8v-48a8 8 0 0 0-8-8h-32v16h24v32zM80 368h16v16H80z" fill="#000000" data-original="#000000"></path></g></svg>