<svg width="355" height="355" viewBox="0 0 355 355" fill="none" xmlns="http://www.w3.org/2000/svg">
<path d="M334.545 186.489C326.955 214.811 308.928 246.406 280.408 257.979C237.318 275.473 235.443 311.733 155.682 316.028C144.04 316.706 132.358 316.118 120.842 314.275C115.212 313.357 109.646 312.078 104.179 310.448C55.9626 296.07 27.7898 257.02 21.6341 213.945C13.533 157.258 50.6589 126.316 74.9551 107.956C99.2513 89.5951 124.478 25.0348 202.854 20.1997C214.822 19.4238 226.839 20.0313 238.667 22.0102C265.647 26.6039 293.862 39.7602 311.598 61.3016C312.928 62.9204 314.211 64.5771 315.446 66.2716C339.6 99.5209 344.897 147.872 334.545 186.489Z" fill="#4D7A42"/>
<path opacity="0.7" d="M334.545 186.489C326.955 214.811 308.928 246.406 280.408 257.979C237.318 275.473 235.443 311.733 155.682 316.028C144.04 316.706 132.358 316.118 120.842 314.275C115.212 313.357 109.646 312.078 104.179 310.448C55.9626 296.07 27.7898 257.02 21.6341 213.945C13.533 157.258 50.6589 126.316 74.9551 107.956C99.2513 89.5951 124.478 25.0348 202.854 20.1997C214.822 19.4238 226.839 20.0313 238.667 22.0102C265.647 26.6039 293.862 39.7602 311.598 61.3016C312.928 62.9204 314.211 64.5771 315.446 66.2716C339.6 99.5209 344.897 147.872 334.545 186.489Z" fill="white"/>
<path opacity="0.3" d="M62.7347 78.618V74.5923C62.7347 66.6545 57.4523 63.8429 52.0847 63.8429C50.6748 63.818 49.2745 64.0804 47.9692 64.6141C46.664 65.1479 45.4811 65.9418 44.4926 66.9476C43.5041 67.9533 42.7308 69.1498 42.2197 70.4641C41.7086 71.7784 41.4705 73.183 41.5199 74.5923V78.618H39.9863V100.898H64.1263V78.618H62.7347ZM52.7663 90.8797V94.9196H50.4801V90.8797C49.825 90.6145 49.2825 90.1297 48.9456 89.5084C48.6087 88.8871 48.4984 88.1679 48.6335 87.4742C48.7686 86.7804 49.1408 86.1553 49.6862 85.7058C50.2317 85.2564 50.9165 85.0106 51.6232 85.0106C52.33 85.0106 53.0148 85.2564 53.5602 85.7058C54.1057 86.1553 54.4778 86.7804 54.6129 87.4742C54.7481 88.1679 54.6377 88.8871 54.3008 89.5084C53.9639 90.1297 53.4214 90.6145 52.7663 90.8797ZM59.3906 78.6393H44.7291V74.6136C44.7254 72.6678 45.4942 70.8001 46.8668 69.4208C48.2394 68.0416 50.1034 67.2637 52.0492 67.258C56.0962 67.258 59.3906 70.027 59.3906 74.5923V78.6393Z" stroke="black" stroke-miterlimit="10"/>
<path opacity="0.3" d="M147.885 36.6572H79.4839C74.1981 36.6572 69.9131 40.9406 69.9131 46.2245C69.9131 51.5083 74.1981 55.7917 79.4839 55.7917H147.885C153.171 55.7917 157.456 51.5083 157.456 46.2245C157.456 40.9406 153.171 36.6572 147.885 36.6572Z" stroke="black" stroke-miterlimit="10"/>
<g opacity="0.3">
<path d="M88.1176 45.3336L90.1127 47.5346L89.1542 48.2446L87.6633 45.6247L86.1936 48.2801L85.2351 47.5701L87.2159 45.3691L84.2979 44.7301L84.6529 43.5799L87.4005 44.7869L87.0598 41.812H88.2667L87.9473 44.7869L90.6949 43.6012L91.05 44.7514L88.1176 45.3336Z" fill="black"/>
<path d="M95.5515 45.3336L97.5466 47.5346L96.5597 48.2801L95.0758 45.6602L93.6274 48.2801L92.6689 47.5701L94.6427 45.3691L91.7246 44.7301L92.0867 43.5799L94.8344 44.7869L94.4936 41.812H95.7006L95.3811 44.7869L98.1288 43.6012L98.4838 44.7514L95.5515 45.3336Z" fill="black"/>
<path d="M102.95 45.3336L104.945 47.5346L103.986 48.2446L102.502 45.6247L101.061 48.2801L100.11 47.5701L102.083 45.3691L99.1582 44.7301L99.5203 43.5799L102.268 44.7869L101.927 41.812H103.134L102.815 44.7869L105.562 43.6012L105.917 44.7514L102.95 45.3336Z" fill="black"/>
<path d="M110.412 45.3336L112.407 47.5346L111.469 48.2801L109.978 45.6602L108.495 48.2801L107.536 47.5701L109.51 45.3691L106.592 44.7301L106.947 43.5799L109.694 44.7869L109.339 41.812H110.539L110.22 44.7869L112.968 43.6012L113.33 44.7514L110.412 45.3336Z" fill="black"/>
<path d="M117.859 45.3336L119.854 47.5346L118.896 48.2446L117.405 45.6247L115.928 48.2801L114.963 47.5701L116.943 45.3691L114.025 44.7301L114.38 43.5799L117.128 44.7869L116.787 41.812H117.994L117.675 44.7869L120.422 43.6012L120.777 44.7514L117.859 45.3336Z" fill="black"/>
<path d="M125.279 45.3336L127.274 47.5346L126.309 48.2446L124.825 45.6247L123.355 48.2801L122.396 47.5701L124.37 45.3691L121.452 44.7301L121.814 43.5799L124.562 44.7869L124.25 41.812H125.457L125.137 44.7869L127.885 43.6012L128.24 44.7514L125.279 45.3336Z" fill="black"/>
<path d="M132.706 45.3336L134.701 47.5346L133.742 48.2446L132.258 45.6247L130.789 48.2801L129.83 47.5701L131.804 45.3691L128.886 44.7301L129.248 43.5799L131.996 44.7869L131.655 41.812H132.862L132.542 44.7869L135.29 43.6012L135.645 44.7514L132.706 45.3336Z" fill="black"/>
<path d="M140.139 45.3336L142.134 47.5346L141.176 48.2446L139.685 45.6247L138.222 48.2801L137.264 47.5701L139.237 45.3691L136.319 44.7301L136.674 43.5799L139.422 44.7869L139.088 41.812H140.288L139.969 44.7869L142.709 43.6012L143.071 44.7514L140.139 45.3336Z" fill="black"/>
</g>
<path opacity="0.3" d="M59.4341 167.162C59.2159 166.684 58.875 166.271 58.4461 165.967C58.0171 165.663 57.5154 165.477 56.9917 165.43H55.38V164.01C56.6245 162.442 57.2936 160.495 57.2757 158.493C57.2757 154.872 55.096 151.933 52.4051 151.933C49.7142 151.933 47.57 154.872 47.57 158.493C47.5551 160.423 48.1708 162.305 49.3237 163.854V165.43H47.1937C46.6638 165.471 46.1542 165.651 45.7157 165.952C45.2772 166.252 44.925 166.662 44.6945 167.141L41.7764 172.054H62.2741L59.4341 167.162Z" stroke="black" stroke-miterlimit="10"/>
<path opacity="0.3" d="M66.2503 169.272C69.4795 161.476 65.7774 152.538 57.9812 149.309C50.1851 146.079 41.2473 149.782 38.018 157.578C34.7887 165.374 38.4909 174.312 46.287 177.541C54.0832 180.77 63.021 177.068 66.2503 169.272Z" stroke="black" stroke-miterlimit="10"/>
<g opacity="0.2">
<path d="M166.374 229.862C148.347 219.843 134.503 203.7 127.348 184.356C120.194 165.012 120.202 143.746 127.37 124.407C134.539 105.069 148.395 88.9357 166.43 78.9294C184.464 68.9231 205.485 65.7046 225.688 69.8567L223.487 77.2407L248.024 71.3974L230.7 53.0723L228.57 60.1226C221.913 58.6975 215.123 57.9835 208.314 57.9926C155.128 57.9926 111.854 101.26 111.854 154.446C111.868 172.149 116.748 189.507 125.962 204.623C135.175 219.74 148.367 232.032 164.095 240.157L158.011 230.04L166.374 229.862Z" fill="black"/>
<path d="M243.927 64.7803L251.503 72.7962L242.202 75.0114C262.522 83.6674 278.752 99.7819 287.553 120.04C296.353 140.297 297.055 163.158 289.515 183.917C281.974 204.677 266.764 221.757 247.013 231.644C227.263 241.531 204.474 243.472 183.336 237.069L186.332 231.637L161.12 232.127L174.149 253.718L178.352 246.107C188.03 249.279 198.151 250.892 208.335 250.885C261.521 250.885 304.796 207.618 304.796 154.425C304.773 135.11 298.961 116.246 288.111 100.267C277.261 84.2873 261.871 71.9267 243.927 64.7803Z" fill="black"/>
</g>
<path d="M322.34 49.1533L306.081 46.0506V46.1074C305.272 47.7475 303.951 48.6563 302.723 48.422L302.013 48.2871C300.785 48.0599 299.883 46.718 299.741 44.8933V44.8365L283.482 41.7338C282.405 41.5269 281.299 41.5344 280.225 41.7558C279.151 41.9773 278.132 42.4083 277.225 43.0243C276.318 43.6403 275.542 44.4291 274.94 45.3456C274.339 46.262 273.924 47.2882 273.719 48.3652L252.618 155.369C252.381 156.618 252.65 157.909 253.365 158.96C254.08 160.01 255.183 160.734 256.431 160.971L302.304 169.726C302.922 169.844 303.557 169.839 304.173 169.712C304.789 169.585 305.374 169.337 305.894 168.984C306.414 168.631 306.86 168.178 307.205 167.652C307.55 167.127 307.788 166.538 307.906 165.92L328.993 58.93C329.201 57.851 329.193 56.7416 328.971 55.6655C328.749 54.5894 328.316 53.5677 327.698 52.6593C327.08 51.7509 326.288 50.9735 325.369 50.3718C324.45 49.7701 323.42 49.3561 322.34 49.1533Z" fill="#4D7A42" stroke="#263238" stroke-linecap="round" stroke-linejoin="round"/>
<path d="M328.538 61.3014L328.993 58.9158C329.199 57.8378 329.19 56.7299 328.966 55.6554C328.743 54.5809 328.31 53.561 327.692 52.6541C327.074 51.7473 326.283 50.9712 325.365 50.3705C324.447 49.7698 323.419 49.3561 322.34 49.1533L306.081 46.0506V46.1074C305.272 47.7475 303.951 48.6563 302.723 48.422L302.013 48.2871C300.785 48.0599 299.883 46.718 299.741 44.8933V44.8365L283.482 41.7338C282.405 41.5269 281.298 41.5344 280.225 41.7558C279.151 41.9773 278.132 42.4083 277.225 43.0243C276.318 43.6403 275.542 44.4291 274.94 45.3456C274.339 46.262 273.924 47.2882 273.719 48.3652L273.258 50.7579L328.538 61.3014Z" fill="white" stroke="#263238" stroke-linecap="round" stroke-linejoin="round"/>
<path d="M324.974 95.5659L326.955 85.1999L326.018 85.0224L331.932 57.5099C332.344 55.3353 331.877 53.0861 330.632 51.2558C329.388 49.4256 327.468 48.1639 325.294 47.7474L281.274 39.341C279.099 38.9272 276.849 39.3941 275.018 40.639C273.188 41.8839 271.926 43.8048 271.511 45.9795L249.814 156.093C249.607 157.17 249.614 158.277 249.836 159.35C250.057 160.424 250.488 161.444 251.104 162.35C251.72 163.257 252.509 164.034 253.426 164.635C254.342 165.237 255.368 165.652 256.445 165.856L300.465 174.262C301.545 174.474 302.655 174.469 303.733 174.25C304.811 174.031 305.835 173.601 306.746 172.984C307.657 172.368 308.438 171.578 309.042 170.659C309.647 169.741 310.065 168.711 310.27 167.631L322.34 104.242L323.278 104.427L324.449 98.2852L323.512 98.1077L324.03 95.3884L324.974 95.5659ZM308.794 161.284C308.376 163.457 307.112 165.377 305.28 166.62C303.449 167.863 301.199 168.329 299.024 167.915L260.137 160.495C257.964 160.079 256.045 158.817 254.801 156.987C253.558 155.156 253.092 152.907 253.506 150.733L273.712 48.3651C273.917 47.2881 274.332 46.262 274.933 45.3455C275.535 44.429 276.311 43.6402 277.218 43.0242C278.125 42.4082 279.144 41.9772 280.218 41.7557C281.292 41.5343 282.398 41.5268 283.475 41.7337L299.734 44.8364V44.8932C299.89 46.7179 300.778 48.0598 302.006 48.287L302.716 48.4219C303.937 48.6562 305.265 47.7119 306.074 46.1073V46.0505L322.34 49.1532C323.42 49.356 324.45 49.7701 325.369 50.3717C326.289 50.9734 327.08 51.7508 327.698 52.6592C328.316 53.5677 328.749 54.5893 328.971 55.6654C329.193 56.7415 329.201 57.8509 328.993 58.9299L308.794 161.284Z" fill="#707070" stroke="#263238" stroke-linecap="round" stroke-linejoin="round"/>
<path d="M323.64 48.6278L282.46 40.7681C280.156 40.3293 277.772 40.8231 275.832 42.1412C273.892 43.4592 272.555 45.4936 272.115 47.7971L251.071 154.659C250.852 155.8 250.861 156.973 251.096 158.11C251.331 159.248 251.788 160.328 252.441 161.288C253.094 162.249 253.93 163.072 254.901 163.709C255.872 164.347 256.959 164.787 258.1 165.004L299.28 172.857C300.42 173.075 301.593 173.066 302.731 172.831C303.868 172.596 304.948 172.139 305.909 171.486C306.869 170.833 307.692 169.997 308.33 169.026C308.967 168.056 309.407 166.969 309.624 165.828L330.669 58.9654C331.107 56.6625 330.613 54.2796 329.295 52.3409C327.977 50.4022 325.943 49.0666 323.64 48.6278ZM308.794 161.284C308.376 163.457 307.112 165.377 305.28 166.62C303.449 167.863 301.199 168.329 299.024 167.915L260.137 160.495C257.964 160.079 256.045 158.817 254.801 156.987C253.558 155.156 253.092 152.907 253.506 150.733L273.712 48.3651C273.917 47.2881 274.332 46.262 274.933 45.3455C275.535 44.429 276.311 43.6402 277.218 43.0242C278.125 42.4082 279.144 41.9772 280.218 41.7557C281.292 41.5343 282.398 41.5268 283.475 41.7337L299.734 44.8364V44.8932C299.89 46.7179 300.778 48.0598 302.006 48.287L302.716 48.4219C303.937 48.6562 305.265 47.7119 306.074 46.1073V46.0505L322.34 49.1532C323.42 49.356 324.45 49.7701 325.369 50.3717C326.289 50.9734 327.08 51.7508 327.698 52.6592C328.316 53.5677 328.749 54.5893 328.971 55.6654C329.193 56.7415 329.201 57.8509 328.993 58.9299L308.794 161.284Z" fill="#263238" stroke="#263238" stroke-linecap="round" stroke-linejoin="round"/>
<path d="M303.44 45.9509C303.47 45.7993 303.454 45.6423 303.394 45.4999C303.334 45.3575 303.233 45.236 303.105 45.1507C302.976 45.0655 302.825 45.0203 302.67 45.021C302.516 45.0217 302.365 45.0681 302.237 45.1545C302.109 45.2409 302.009 45.3632 301.951 45.5062C301.892 45.6491 301.877 45.8062 301.908 45.9576C301.939 46.1089 302.014 46.2478 302.124 46.3565C302.233 46.4653 302.373 46.5391 302.524 46.5686C302.625 46.5892 302.729 46.5895 302.83 46.5695C302.931 46.5494 303.027 46.5095 303.112 46.452C303.197 46.3945 303.27 46.3205 303.327 46.2345C303.383 46.1485 303.422 46.0521 303.44 45.9509Z" fill="#707070"/>
<path d="M279.548 44.4458C279.399 45.2268 278.469 45.3404 278.355 45.9297V45.9723L279.2 46.1356L279.151 46.3983L278.015 46.1498L278.057 45.9297C278.213 45.099 279.122 45.099 279.257 44.3748C279.307 44.1121 279.257 43.9488 279.037 43.9133C278.817 43.8778 278.703 44.0056 278.661 44.2328L278.618 44.46L278.348 44.4103V44.1973C278.426 43.8068 278.654 43.5796 279.058 43.6506C279.149 43.6571 279.238 43.6851 279.316 43.7324C279.394 43.7797 279.459 43.8449 279.507 43.9226C279.555 44.0003 279.584 44.0883 279.591 44.1793C279.598 44.2702 279.583 44.3616 279.548 44.4458Z" fill="#263238"/>
<path d="M280.961 44.7297V44.7936C280.95 44.9061 280.904 45.0121 280.828 45.0963C280.753 45.1806 280.653 45.2387 280.542 45.2622C280.638 45.3249 280.71 45.4171 280.749 45.5247C280.787 45.6324 280.789 45.7496 280.755 45.8586L280.72 46.0574C280.642 46.455 280.407 46.6751 280.01 46.6041C279.612 46.5331 279.477 46.2349 279.555 45.8373V45.6598L279.825 45.7095L279.783 45.9083C279.74 46.1426 279.783 46.2988 280.017 46.3343C280.251 46.3698 280.343 46.2562 280.393 45.9935L280.436 45.7947C280.478 45.5462 280.436 45.4042 280.18 45.3545H280.024L280.074 45.0989H280.244C280.289 45.1071 280.335 45.1056 280.379 45.0945C280.423 45.0835 280.464 45.0632 280.5 45.035C280.535 45.0068 280.565 44.9713 280.585 44.9309C280.606 44.8905 280.618 44.8461 280.62 44.8007V44.68C280.67 44.4173 280.62 44.2611 280.393 44.2256C280.166 44.1901 280.059 44.3108 280.017 44.5451V44.6729L279.747 44.6232V44.5025C279.818 44.112 280.052 43.8919 280.457 43.9629C280.862 44.0339 281.039 44.3179 280.961 44.7297Z" fill="#263238"/>
<path d="M281.487 45.0141L281.416 45.3762L281.139 45.3194L281.21 44.9644L281.487 45.0141ZM281.217 46.4341L281.146 46.7962L280.869 46.7394L280.94 46.3844L281.217 46.4341Z" fill="#263238"/>
<path d="M282.027 45.3617C282.075 45.2999 282.141 45.2536 282.215 45.2284C282.289 45.2032 282.369 45.2002 282.445 45.2197C282.779 45.2836 282.879 45.5534 282.808 45.9297L282.715 46.4338C282.637 46.8314 282.403 47.0515 282.005 46.9734C281.608 46.8953 281.48 46.6113 281.551 46.2137L281.586 46.0362L281.856 46.093L281.821 46.2847C281.771 46.5119 281.821 46.6752 282.048 46.7107C282.275 46.7462 282.382 46.6326 282.424 46.3983L282.516 45.8942C282.566 45.667 282.516 45.5037 282.289 45.4682C282.252 45.4588 282.213 45.4571 282.175 45.4632C282.137 45.4693 282.101 45.483 282.068 45.5036C282.036 45.5242 282.008 45.5512 281.986 45.5829C281.964 45.6147 281.949 45.6505 281.941 45.6883V45.7451L281.672 45.6954L282.012 44.2754L283.035 44.4671L282.985 44.7227L282.225 44.5807L282.027 45.3617Z" fill="#263238"/>
<path d="M284.405 45.3687V45.4397L284.135 45.39V45.3261C284.177 45.0918 284.135 44.9356 283.893 44.9001C283.652 44.8646 283.553 44.9782 283.503 45.2551L283.389 45.8302C283.437 45.7509 283.509 45.6893 283.595 45.6547C283.681 45.6202 283.776 45.6144 283.865 45.6385C284.192 45.7024 284.298 45.9651 284.227 46.3485L284.149 46.739C284.146 46.8243 284.124 46.908 284.085 46.9838C284.046 47.0597 283.99 47.1258 283.922 47.1775C283.854 47.2292 283.776 47.265 283.692 47.2825C283.608 47.3 283.522 47.2987 283.439 47.2786C283.354 47.2666 283.273 47.2358 283.201 47.1887C283.129 47.1415 283.069 47.079 283.024 47.0057C282.979 46.9324 282.951 46.8501 282.942 46.7647C282.933 46.6794 282.942 46.593 282.97 46.5118L283.226 45.1983C283.304 44.7865 283.538 44.5664 283.936 44.6445C284.017 44.6555 284.095 44.6839 284.164 44.7278C284.234 44.7717 284.292 44.83 284.337 44.8988C284.381 44.9676 284.411 45.0452 284.422 45.1263C284.434 45.2074 284.428 45.2901 284.405 45.3687ZM283.333 46.1497L283.254 46.5331C283.212 46.7674 283.254 46.9236 283.489 46.9662C283.723 47.0088 283.822 46.8881 283.872 46.6538L283.943 46.2633C283.986 46.0361 283.943 45.8728 283.709 45.8373C283.475 45.8018 283.375 45.9296 283.333 46.1497Z" fill="#263238"/>
<path d="M312.585 50.8713L311.853 50.7314L311.505 52.5517L312.237 52.6915L312.585 50.8713Z" fill="#263238"/>
<path d="M313.635 50.6778L312.902 50.5381L312.485 52.728L313.217 52.8677L313.635 50.6778Z" fill="#263238"/>
<path d="M314.654 50.5957L313.922 50.4561L313.455 52.904L314.187 53.0437L314.654 50.5957Z" fill="#263238"/>
<path d="M315.723 50.3374L314.99 50.1978L314.437 53.099L315.169 53.2387L315.723 50.3374Z" fill="#263238"/>
<path d="M324.194 54.9112L319.82 54.0805L320.324 51.4038L324.705 52.2416L324.194 54.9112ZM320.104 53.8817L323.995 54.5917L324.414 52.3978L320.523 51.6878L320.104 53.8817Z" fill="#263238"/>
<path d="M323.154 52.4506L320.846 52.0103L320.529 53.6701L322.838 54.1105L323.154 52.4506Z" fill="#263238"/>
<path d="M324.024 54.0675L323.475 53.9609L323.353 54.5872L323.903 54.6937L324.024 54.0675Z" fill="#263238"/>
<path d="M318.322 53.1929C318.293 53.1859 318.266 53.1712 318.244 53.1503C318.058 52.9485 317.813 52.8104 317.544 52.7556C317.275 52.7008 316.996 52.7321 316.746 52.845C316.727 52.8565 316.707 52.8642 316.685 52.8675C316.663 52.8709 316.641 52.8699 316.62 52.8646C316.599 52.8593 316.579 52.8498 316.562 52.8367C316.544 52.8236 316.53 52.8071 316.519 52.7882C316.507 52.7696 316.499 52.749 316.496 52.7274C316.493 52.7058 316.494 52.6838 316.499 52.6626C316.504 52.6414 316.514 52.6215 316.527 52.6041C316.54 52.5866 316.557 52.572 316.575 52.561C316.885 52.4078 317.236 52.3583 317.576 52.4197C317.916 52.481 318.227 52.65 318.464 52.9018C318.48 52.917 318.492 52.9352 318.501 52.9554C318.509 52.9755 318.514 52.9971 318.514 53.019C318.514 53.0408 318.509 53.0624 318.501 53.0825C318.492 53.1027 318.48 53.1209 318.464 53.1361C318.446 53.156 318.424 53.1715 318.4 53.1813C318.375 53.1912 318.348 53.1951 318.322 53.1929Z" fill="#263238"/>
<path d="M318.79 52.7034C318.764 52.71 318.737 52.71 318.712 52.7034C318.446 52.4188 318.098 52.2242 317.716 52.1466C317.334 52.069 316.938 52.1122 316.582 52.2703C316.563 52.2815 316.543 52.2889 316.521 52.2921C316.5 52.2953 316.478 52.2942 316.456 52.289C316.435 52.2837 316.416 52.2743 316.398 52.2614C316.381 52.2484 316.366 52.2322 316.355 52.2135C316.343 52.1949 316.336 52.1742 316.333 52.1527C316.33 52.1312 316.331 52.1093 316.336 52.0882C316.341 52.0671 316.351 52.0472 316.364 52.0297C316.377 52.0123 316.393 51.9975 316.411 51.9863C316.832 51.7869 317.304 51.7249 317.762 51.809C318.219 51.8931 318.638 52.1191 318.96 52.4549C318.976 52.4701 318.988 52.4883 318.997 52.5085C319.005 52.5286 319.01 52.5502 319.01 52.5721C319.01 52.5939 319.005 52.6155 318.997 52.6357C318.988 52.6558 318.976 52.674 318.96 52.6892C318.936 52.7079 318.908 52.7192 318.877 52.7217C318.847 52.7242 318.817 52.7179 318.79 52.7034Z" fill="#263238"/>
<path d="M319.181 52.1281C319.15 52.1197 319.121 52.1053 319.095 52.0856C318.754 51.7131 318.302 51.4598 317.807 51.3627C317.311 51.2656 316.797 51.3298 316.341 51.5459C316.302 51.5667 316.256 51.5716 316.214 51.5597C316.172 51.5478 316.136 51.52 316.113 51.4821C316.102 51.4635 316.094 51.4428 316.091 51.4212C316.087 51.3997 316.088 51.3776 316.094 51.3565C316.099 51.3353 316.109 51.3154 316.122 51.2979C316.135 51.2805 316.151 51.2658 316.17 51.2549C316.689 51.0093 317.272 50.9333 317.837 51.0378C318.401 51.1424 318.919 51.422 319.315 51.8371C319.331 51.8523 319.344 51.8705 319.352 51.8906C319.361 51.9107 319.365 51.9324 319.365 51.9542C319.365 51.9761 319.361 51.9977 319.352 52.0178C319.344 52.0379 319.331 52.0561 319.315 52.0713C319.299 52.0911 319.279 52.1066 319.255 52.1165C319.232 52.1264 319.206 52.1304 319.181 52.1281Z" fill="#263238"/>
<path d="M317.775 53.3708C317.766 53.4246 317.746 53.476 317.716 53.522C317.687 53.568 317.648 53.6077 317.603 53.6387C317.559 53.6698 317.508 53.6916 317.454 53.7029C317.401 53.7142 317.346 53.7147 317.292 53.7045C317.183 53.6838 317.086 53.6205 317.024 53.5286C316.961 53.4368 316.938 53.3238 316.959 53.2146C316.979 53.1054 317.042 53.0088 317.134 52.9463C317.226 52.8837 317.339 52.8602 317.448 52.8809C317.502 52.891 317.554 52.9119 317.599 52.9421C317.645 52.9724 317.684 53.0115 317.715 53.0571C317.745 53.1028 317.766 53.154 317.777 53.2079C317.787 53.2617 317.786 53.3171 317.775 53.3708Z" fill="#263238"/>
<path d="M314.167 90.8277L275.641 83.4785C273.584 83.0861 271.599 84.4355 271.207 86.4923L265.037 118.832C264.645 120.889 265.994 122.874 268.051 123.267L306.577 130.616C308.634 131.008 310.619 129.659 311.012 127.602L317.181 95.2624C317.573 93.2055 316.224 91.22 314.167 90.8277Z" fill="white" stroke="#263238" stroke-miterlimit="10"/>
<path d="M282.751 78.661L282.254 74.8696L282.9 74.9903L283.241 77.8871L284.661 75.324L285.25 75.4305L283.362 78.8101L282.985 80.8052L282.368 80.6916L282.751 78.661Z" fill="#263238"/>
<path d="M285.25 76.8292C285.263 76.6455 285.316 76.4668 285.404 76.3049C285.491 76.1429 285.612 76.0013 285.759 75.8894C285.905 75.7775 286.073 75.6977 286.252 75.6555C286.432 75.6132 286.618 75.6093 286.799 75.6441C286.98 75.6789 287.151 75.7515 287.302 75.8572C287.453 75.9629 287.58 76.0994 287.674 76.2575C287.768 76.4157 287.828 76.5921 287.85 76.775C287.871 76.958 287.854 77.1434 287.798 77.3191L287.252 80.1591C287.238 80.3428 287.185 80.5215 287.098 80.6835C287.01 80.8455 286.889 80.987 286.743 81.099C286.596 81.2109 286.428 81.2906 286.249 81.3329C286.069 81.3751 285.883 81.379 285.702 81.3443C285.521 81.3095 285.35 81.2369 285.199 81.1311C285.048 81.0254 284.922 80.889 284.827 80.7308C284.733 80.5726 284.673 80.3963 284.651 80.2133C284.63 80.0304 284.648 79.8449 284.703 79.6692L285.25 76.8292ZM285.306 79.8538C285.207 80.365 285.37 80.6987 285.81 80.7839C286.251 80.8691 286.52 80.6135 286.627 80.0739L287.188 77.1345C287.28 76.6304 287.131 76.2896 286.684 76.2044C286.236 76.1192 285.974 76.3819 285.867 76.9144L285.306 79.8538Z" fill="#263238"/>
<path d="M288.424 80.4498C288.332 80.9539 288.466 81.2877 288.921 81.38C289.375 81.4723 289.631 81.1954 289.723 80.67L290.533 76.41L291.115 76.5236L290.305 80.741C290.142 81.5859 289.645 82.0758 288.793 81.9054C287.941 81.735 287.657 81.1102 287.82 80.2653L288.623 76.0479L289.233 76.1614L288.424 80.4498Z" fill="#263238"/>
<path d="M292.968 76.9069C293.144 76.9159 293.315 76.9662 293.468 77.0538C293.621 77.1414 293.751 77.2638 293.848 77.4111C293.945 77.5584 294.006 77.7264 294.026 77.9015C294.045 78.0767 294.024 78.254 293.962 78.4192L293.877 78.8736C293.756 79.4842 293.472 79.825 292.968 79.8818C293.187 80.006 293.356 80.204 293.443 80.4407C293.53 80.6773 293.53 80.9371 293.444 81.174L293.28 82.0402C293.22 82.273 293.22 82.5173 293.28 82.7502L292.656 82.6366C292.598 82.4034 292.598 82.1598 292.656 81.9266L292.819 81.0533C292.94 80.4214 292.684 80.1658 292.166 80.0664L291.733 79.9883L291.278 82.3597L290.653 82.2461L291.718 76.6797L292.968 76.9069ZM292.308 79.5197C292.798 79.612 293.124 79.5197 293.238 78.902L293.337 78.3695C293.437 77.8725 293.337 77.5743 292.84 77.482L292.237 77.3684L291.846 79.4274L292.308 79.5197Z" fill="#263238"/>
<path d="M298.285 79.3211L298.193 79.8181L297.604 79.7045L297.703 79.172C297.802 78.675 297.66 78.3342 297.206 78.249C296.752 78.1638 296.496 78.4265 296.404 78.959L295.843 81.8984C295.743 82.4025 295.892 82.7434 296.34 82.8286C296.787 82.9138 297.05 82.6511 297.142 82.1186L297.284 81.4086L297.873 81.515L297.738 82.225C297.575 83.0628 297.078 83.5457 296.219 83.3823C295.36 83.219 295.076 82.5871 295.239 81.7422L295.786 78.9022C295.942 78.0644 296.446 77.5816 297.298 77.7449C297.473 77.7718 297.639 77.8359 297.787 77.9329C297.934 78.0299 298.059 78.1575 298.153 78.3071C298.246 78.4567 298.307 78.6247 298.329 78.7997C298.352 78.9747 298.337 79.1525 298.285 79.3211Z" fill="#263238"/>
<path d="M298.804 79.4134C298.823 79.233 298.878 79.0584 298.968 78.9006C299.057 78.7429 299.178 78.6055 299.324 78.4971C299.469 78.3888 299.635 78.3119 299.812 78.2714C299.989 78.2308 300.172 78.2275 300.35 78.2616C300.528 78.2958 300.697 78.3666 300.846 78.4696C300.996 78.5726 301.122 78.7056 301.217 78.86C301.312 79.0144 301.374 79.1869 301.398 79.3665C301.423 79.5462 301.41 79.729 301.36 79.9033L300.807 82.7433C300.784 82.9188 300.725 83.0878 300.635 83.2399C300.544 83.3921 300.424 83.5241 300.281 83.628C300.137 83.7318 299.974 83.8053 299.802 83.844C299.629 83.8826 299.45 83.8855 299.276 83.8526C299.102 83.8196 298.937 83.7515 298.79 83.6524C298.644 83.5533 298.519 83.4253 298.424 83.2762C298.328 83.1271 298.264 82.9602 298.236 82.7855C298.207 82.6108 298.215 82.4322 298.258 82.2605L298.804 79.4134ZM298.861 82.4451C298.769 82.9492 298.925 83.2829 299.372 83.3681C299.82 83.4533 300.082 83.2048 300.182 82.6581L300.743 79.7187C300.842 79.2146 300.693 78.8738 300.239 78.7886C299.784 78.7034 299.529 78.9661 299.422 79.4986L298.861 82.4451Z" fill="#263238"/>
<path d="M303.504 78.9237C303.686 78.9436 303.862 79.0048 304.017 79.1028C304.172 79.2007 304.303 79.3327 304.4 79.4888C304.496 79.6448 304.556 79.8209 304.574 80.0035C304.592 80.1861 304.569 80.3704 304.505 80.5425L303.973 83.3825C303.809 84.2274 303.312 84.6818 302.446 84.5114L301.14 84.2629L302.205 78.7036L303.504 78.9237ZM302.545 83.8937C302.993 83.9789 303.255 83.7375 303.355 83.2263L303.902 80.3863C303.994 79.8751 303.838 79.5556 303.383 79.4704L302.716 79.3426L301.871 83.7801L302.545 83.8937Z" fill="#263238"/>
<path d="M306.862 82.1186L306.756 82.6724L305.393 82.4097L305.016 84.3906L306.685 84.7101L306.578 85.271L304.292 84.8379L305.35 79.2715L307.643 79.7117L307.53 80.2726L305.861 79.9531L305.499 81.8559L306.862 82.1186Z" fill="#263238"/>
<path d="M278.477 101.196C278.682 100.95 278.953 100.766 279.258 100.666C279.563 100.565 279.89 100.552 280.202 100.628C281.551 100.884 281.963 101.992 281.672 103.468L281.281 105.52C280.976 107.125 280.01 108.027 278.406 107.721C276.801 107.416 276.276 106.223 276.56 104.619L276.695 103.909L277.788 104.114L277.639 104.895C277.461 105.84 277.738 106.486 278.576 106.642C279.414 106.798 279.918 106.308 280.095 105.364L280.486 103.326C280.671 102.382 280.387 101.736 279.549 101.58C279.397 101.539 279.238 101.53 279.082 101.554C278.926 101.577 278.777 101.633 278.643 101.717C278.51 101.801 278.395 101.911 278.307 102.042C278.218 102.172 278.158 102.319 278.129 102.474L278.079 102.716L276.986 102.51L278.406 96.7305L282.545 97.5186L282.346 98.5694L279.258 97.9801L278.477 101.196Z" fill="#263238"/>
<path d="M288.147 101.225V101.424L287.053 101.211L287.103 100.941C287.288 99.9964 287.004 99.3716 286.145 99.2083C285.286 99.045 284.725 99.5349 284.547 100.628L284.1 102.986C284.287 102.661 284.575 102.407 284.92 102.263C285.265 102.118 285.647 102.09 286.01 102.183C287.359 102.439 287.771 103.525 287.479 105.023L287.181 106.614C286.876 108.218 285.875 109.113 284.277 108.808C282.68 108.502 282.062 107.295 282.367 105.691L283.39 100.337C283.702 98.6758 284.654 97.7812 286.315 98.1007C287.976 98.4202 288.452 99.6201 288.147 101.225ZM283.787 104.469L283.489 106.039C283.305 106.983 283.589 107.629 284.441 107.792C285.293 107.956 285.797 107.459 285.974 106.514L286.272 104.938C286.457 103.994 286.159 103.348 285.321 103.191C284.483 103.035 284 103.525 283.787 104.469Z" fill="#263238"/>
<path d="M293.983 102.34L293.947 102.538L292.847 102.325L292.904 102.056C293.081 101.111 292.797 100.486 291.945 100.323C291.093 100.16 290.561 100.65 290.348 101.743L289.893 104.093C290.083 103.772 290.372 103.521 290.716 103.378C291.06 103.234 291.442 103.206 291.803 103.298C293.152 103.554 293.571 104.64 293.28 106.138L292.975 107.721C292.669 109.326 291.675 110.228 290.071 109.922C288.466 109.617 287.856 108.41 288.161 106.805L289.183 101.53C289.503 99.8687 290.447 98.9741 292.116 99.2936C293.784 99.6131 294.288 100.735 293.983 102.34ZM289.616 105.577L289.318 107.153C289.141 108.098 289.418 108.744 290.277 108.907C291.136 109.07 291.626 108.573 291.81 107.629L292.109 106.053C292.286 105.109 291.995 104.462 291.15 104.299C290.305 104.136 289.801 104.633 289.616 105.577Z" fill="#263238"/>
<path d="M299.812 103.468L298.79 108.822C298.47 110.483 297.526 111.392 295.843 111.073C294.161 110.753 293.671 109.582 293.976 107.984L294.019 107.785L295.112 107.991L295.055 108.268C294.878 109.212 295.176 109.844 296.014 110C296.851 110.157 297.434 109.681 297.625 108.58L298.073 106.23C297.884 106.55 297.596 106.799 297.252 106.94C296.909 107.081 296.529 107.106 296.17 107.011C294.821 106.756 294.402 105.684 294.693 104.171L294.998 102.567C295.304 100.962 296.283 100.075 297.902 100.38C299.521 100.685 300.117 101.864 299.812 103.468ZM296.163 102.709L295.865 104.285C295.687 105.229 295.978 105.875 296.823 106.039C297.668 106.202 298.172 105.705 298.35 104.761L298.655 103.184C298.839 102.226 298.555 101.594 297.696 101.431C296.837 101.267 296.347 101.75 296.163 102.709Z" fill="#263238"/>
<path d="M305.755 104.555L305.691 104.888C305.492 105.953 304.981 106.656 304.079 106.819C304.888 107.324 305.059 108.239 304.86 109.262L304.711 110.043C304.399 111.662 303.369 112.507 301.736 112.173C300.103 111.839 299.45 110.696 299.762 109.077L299.911 108.296C300.11 107.231 300.621 106.5 301.551 106.308C300.756 105.818 300.543 104.988 300.749 103.923L300.806 103.589C301.118 101.97 302.155 101.161 303.781 101.459C305.407 101.757 306.067 102.95 305.755 104.555ZM301.956 103.845L301.864 104.349C301.665 105.371 302.077 105.918 302.9 106.074C303.724 106.23 304.32 105.875 304.498 104.853L304.59 104.37C304.796 103.291 304.399 102.701 303.568 102.545C302.737 102.389 302.162 102.78 301.956 103.866V103.845ZM301.09 108.381L300.92 109.269C300.714 110.348 301.097 110.952 301.935 111.108C302.773 111.264 303.355 110.852 303.561 109.773L303.731 108.886C303.923 107.87 303.568 107.288 302.702 107.125C301.835 106.961 301.289 107.387 301.09 108.403V108.381Z" fill="#263238"/>
<path d="M267.933 132.422L304.185 139.337" stroke="#263238" stroke-miterlimit="10"/>
<path d="M266.584 139.494L302.829 146.409" stroke="#263238" stroke-miterlimit="10"/>
<path d="M326.714 105.776L335.482 104.427" stroke="#263238" stroke-miterlimit="10"/>
<path d="M325.365 115.893L330.087 117.242" stroke="#263238" stroke-miterlimit="10"/>
<path d="M322.667 124.662L331.435 130.732" stroke="#263238" stroke-miterlimit="10"/>
<path d="M242.657 122.617C243.112 122.617 243.55 122.436 243.872 122.114C244.194 121.792 244.375 121.354 244.375 120.899V106.699C244.375 106.243 244.194 105.806 243.872 105.484C243.55 105.162 243.112 104.981 242.657 104.981H242.586V99.4284C242.585 98.528 242.406 97.6367 242.061 96.8053C241.715 95.974 241.209 95.2189 240.572 94.5832C239.934 93.9476 239.177 93.4438 238.345 93.1008C237.512 92.7577 236.62 92.5821 235.72 92.584H85.9101C84.093 92.584 82.3503 93.3059 81.0654 94.5908C79.7804 95.8757 79.0586 97.6184 79.0586 99.4355V202.932C79.0605 204.748 79.7832 206.489 81.0679 207.772C82.3526 209.056 84.0942 209.777 85.9101 209.777H235.72C237.536 209.777 239.278 209.056 240.562 207.772C241.847 206.489 242.57 204.748 242.572 202.932V165.799H242.643C243.098 165.799 243.535 165.618 243.858 165.296C244.18 164.974 244.361 164.537 244.361 164.081V149.881C244.361 149.425 244.18 148.988 243.858 148.666C243.535 148.344 243.098 148.163 242.643 148.163H242.572V146.367H242.643C243.098 146.367 243.535 146.185 243.858 145.863C244.18 145.541 244.361 145.104 244.361 144.648V130.448C244.361 129.993 244.18 129.556 243.858 129.233C243.535 128.911 243.098 128.73 242.643 128.73H242.572V122.617H242.657Z" fill="#263238"/>
<path d="M236.479 97.1494H85.1855V205.211H236.479V97.1494Z" fill="#4D7A42" stroke="#263238" stroke-miterlimit="10"/>
<path d="M203.387 111.044H118.776V178.998H203.387V111.044Z" fill="#E3E3E3" stroke="#263238" stroke-miterlimit="10"/>
<path d="M150.612 160.169V160.595H149.575V162.107H150.846V162.533H149.1V158.273H150.846V158.699H149.575V160.155L150.612 160.169Z" fill="#B2B2B2"/>
<path d="M151.706 162.533H151.28V158.273H151.877L152.864 161.341V158.273H153.282V162.533H152.793L151.706 159.097V162.533Z" fill="#B2B2B2"/>
<path d="M154.383 162.533V158.714H153.595V158.288H155.632V158.714H154.851V162.533H154.383Z" fill="#B2B2B2"/>
<path d="M157.463 160.169V160.595H156.427V162.107H157.698V162.533H155.951V158.273H157.698V158.699H156.427V160.155L157.463 160.169Z" fill="#B2B2B2"/>
<path d="M159.083 158.288C159.75 158.288 160.034 158.621 160.034 159.253V159.601C160.034 160.07 159.871 160.361 159.502 160.474C159.892 160.595 160.041 160.908 160.041 161.362V162.022C160.024 162.197 160.053 162.374 160.127 162.533H159.644C159.576 162.372 159.549 162.196 159.566 162.022V161.355C159.566 160.872 159.339 160.723 158.948 160.723H158.614V162.533H158.139V158.273L159.083 158.288ZM158.962 160.29C159.339 160.29 159.566 160.169 159.566 159.708V159.296C159.566 158.92 159.424 158.714 159.076 158.714H158.614V160.29H158.962Z" fill="#B2B2B2"/>
<path d="M163.35 159.31V159.693H162.895V159.288C162.895 158.905 162.746 158.671 162.398 158.671C162.05 158.671 161.901 158.905 161.901 159.288V161.532C161.901 161.915 162.057 162.15 162.398 162.15C162.739 162.15 162.895 161.915 162.895 161.532V160.978H163.35V161.511C163.35 162.15 163.044 162.576 162.384 162.576C161.724 162.576 161.433 162.15 161.433 161.511V159.31C161.433 158.664 161.738 158.245 162.384 158.245C163.03 158.245 163.35 158.664 163.35 159.31Z" fill="#B2B2B2"/>
<path d="M163.74 159.31C163.74 158.664 164.06 158.245 164.713 158.245C164.851 158.236 164.99 158.258 165.119 158.309C165.248 158.361 165.363 158.441 165.457 158.543C165.551 158.645 165.621 158.767 165.662 158.9C165.703 159.032 165.713 159.172 165.693 159.31V161.511C165.714 161.648 165.704 161.789 165.665 161.922C165.625 162.055 165.556 162.178 165.463 162.281C165.37 162.385 165.255 162.466 165.126 162.519C164.998 162.573 164.859 162.597 164.72 162.59C164.067 162.59 163.747 162.164 163.747 161.525L163.74 159.31ZM164.209 161.532C164.209 161.922 164.372 162.15 164.713 162.15C165.054 162.15 165.217 161.922 165.217 161.532V159.288C165.217 158.905 165.061 158.671 164.713 158.671C164.365 158.671 164.209 158.905 164.209 159.288V161.532Z" fill="#B2B2B2"/>
<path d="M167.134 158.287C167.794 158.287 168.099 158.685 168.099 159.338V161.468C168.099 162.121 167.794 162.519 167.134 162.519H166.14V158.259L167.134 158.287ZM167.134 162.107C167.474 162.107 167.638 161.894 167.638 161.503V159.317C167.638 158.926 167.474 158.713 167.127 158.713H166.622V162.107H167.134Z" fill="#B2B2B2"/>
<path d="M170.052 160.169V160.595H169.016V162.107H170.294V162.533H168.54V158.273H170.294V158.699H169.016V160.155L170.052 160.169Z" fill="#B2B2B2"/>
<path d="M196.705 133.487H125.308V141.546H196.705V133.487Z" fill="white" stroke="#263238" stroke-miterlimit="10"/>
<path d="M196.705 146.267H125.308V154.326H196.705V146.267Z" fill="white" stroke="#263238" stroke-miterlimit="10"/>
<path d="M171.096 164.443H164.358V172.501H171.096V164.443Z" fill="white" stroke="#263238" stroke-miterlimit="10"/>
<path d="M162.512 164.443H155.774V172.501H162.512V164.443Z" fill="white" stroke="#263238" stroke-miterlimit="10"/>
<path d="M153.935 164.443H147.197V172.501H153.935V164.443Z" fill="white" stroke="#263238" stroke-miterlimit="10"/>
<path d="M145.358 164.443H138.926V172.501H145.358V164.443Z" fill="white" stroke="#263238" stroke-miterlimit="10"/>
<path d="M179.921 164.443H172.935V172.501H179.921V164.443Z" fill="white" stroke="#263238" stroke-miterlimit="10"/>
<path d="M164.486 120.267V118.719C164.439 117.542 163.939 116.429 163.09 115.613C162.241 114.797 161.109 114.341 159.931 114.341C158.753 114.341 157.621 114.797 156.772 115.613C155.923 116.429 155.423 117.542 155.376 118.719V120.267H155.291V128.83H164.571V120.267H164.486ZM160.226 124.974V126.522H159.324V124.96C159.072 124.858 158.863 124.671 158.734 124.432C158.604 124.193 158.562 123.917 158.614 123.65C158.666 123.383 158.809 123.143 159.019 122.97C159.229 122.797 159.492 122.703 159.764 122.703C160.036 122.703 160.299 122.797 160.509 122.97C160.719 123.143 160.862 123.383 160.914 123.65C160.966 123.917 160.924 124.193 160.794 124.432C160.665 124.671 160.456 124.858 160.204 124.96L160.226 124.974ZM162.774 120.267H157.13V118.719C157.208 118.025 157.539 117.384 158.059 116.919C158.58 116.453 159.254 116.196 159.952 116.196C160.65 116.196 161.324 116.453 161.845 116.919C162.366 117.384 162.696 118.025 162.774 118.719V120.267Z" fill="#263238"/>
<path d="M149.952 138.5C149.952 138.883 150.101 139.11 150.449 139.11C150.797 139.11 150.939 138.883 150.939 138.5V135.248H151.386V138.45C151.386 139.096 151.088 139.529 150.428 139.529C149.767 139.529 149.483 139.096 149.483 138.45V135.227H149.952V138.5Z" fill="#B2B2B2"/>
<path d="M153.693 136.27V136.384H153.239V136.242C153.239 135.865 153.097 135.638 152.756 135.638C152.415 135.638 152.273 135.865 152.273 136.242C152.273 137.193 153.693 137.285 153.693 138.478C153.693 139.124 153.381 139.543 152.728 139.543C152.075 139.543 151.776 139.124 151.776 138.478V138.237H152.224V138.507C152.224 138.883 152.38 139.11 152.721 139.11C153.061 139.11 153.218 138.883 153.218 138.507C153.218 137.555 151.798 137.463 151.798 136.27C151.798 135.61 152.096 135.205 152.735 135.205C153.374 135.205 153.693 135.61 153.693 136.27Z" fill="#B2B2B2"/>
<path d="M155.625 137.129V137.555H154.581V139.068H155.859V139.501H154.112V135.241H155.859V135.674H154.581V137.094L155.625 137.129Z" fill="#B2B2B2"/>
<path d="M157.243 135.248C157.911 135.248 158.188 135.589 158.188 136.221V136.568C158.188 137.037 158.024 137.328 157.662 137.442C158.053 137.555 158.195 137.875 158.195 138.329V138.99C158.182 139.164 158.211 139.34 158.28 139.501H157.804C157.734 139.338 157.704 139.16 157.719 138.982V138.315C157.719 137.832 157.499 137.683 157.101 137.683H156.768V139.501H156.292V135.241L157.243 135.248ZM157.123 137.25C157.499 137.25 157.719 137.129 157.719 136.668V136.263C157.719 135.88 157.584 135.681 157.229 135.681H156.768V137.25H157.123Z" fill="#B2B2B2"/>
<path d="M160.048 139.501H159.622V135.241H160.226L161.205 138.315V135.241H161.624V139.501H161.17L160.084 136.064L160.048 139.501Z" fill="#B2B2B2"/>
<path d="M162.59 138.642L162.427 139.501H161.986L162.803 135.241H163.513L164.322 139.501H163.854L163.683 138.642H162.59ZM162.654 138.237H163.598L163.122 135.78L162.654 138.237Z" fill="#B2B2B2"/>
<path d="M166.239 139.494H165.785L165.075 136.114V139.501H164.663V135.241H165.323L166.033 138.635L166.708 135.241H167.368V139.501H166.921V136.079L166.239 139.494Z" fill="#B2B2B2"/>
<path d="M169.357 137.129V137.555H168.32V139.068H169.598V139.501H167.852V135.241H169.598V135.674H168.32V137.094L169.357 137.129Z" fill="#B2B2B2"/>
<path d="M150.598 149.895L151.245 150.605L150.932 150.832L150.456 149.988L149.981 150.832L149.675 150.605L150.307 149.895L149.37 149.696L149.484 149.327L150.371 149.718L150.265 148.759H150.648L150.549 149.718L151.436 149.334L151.55 149.704L150.598 149.895Z" fill="#B2B2B2"/>
<path d="M152.998 149.895L153.644 150.605L153.332 150.832L152.856 149.988L152.38 150.832L152.068 150.605L152.707 149.895L151.77 149.696L151.883 149.327L152.771 149.718L152.657 148.759H153.048L152.941 149.718L153.829 149.334L153.949 149.704L152.998 149.895Z" fill="#B2B2B2"/>
<path d="M155.398 149.895L156.044 150.605L155.731 150.832L155.248 149.988L154.78 150.832L154.467 150.605L155.106 149.895L154.162 149.696L154.283 149.327L155.163 149.718L155.057 148.759H155.447L155.341 149.718L156.228 149.334L156.342 149.704L155.398 149.895Z" fill="#B2B2B2"/>
<path d="M157.798 149.895L158.437 150.605L158.132 150.832L157.649 149.988L157.173 150.832L156.868 150.605L157.507 149.895L156.562 149.696L156.676 149.327L157.564 149.718L157.457 148.759H157.841L157.741 149.718L158.629 149.334L158.742 149.704L157.798 149.895Z" fill="#B2B2B2"/>
<path d="M160.19 149.895L160.836 150.605L160.524 150.832L160.048 149.988L159.573 150.832L159.267 150.605L159.899 149.895L158.962 149.696L159.076 149.327L159.963 149.718L159.849 148.759H160.24L160.141 149.718L161.028 149.334L161.142 149.704L160.19 149.895Z" fill="#B2B2B2"/>
<path d="M162.59 149.895L163.236 150.605L162.924 150.832L162.448 149.988L161.972 150.832L161.66 150.605L162.299 149.895L161.354 149.696L161.475 149.327L162.363 149.718L162.249 148.759H162.64L162.533 149.718L163.421 149.334L163.541 149.704L162.59 149.895Z" fill="#B2B2B2"/>
<path d="M164.99 149.895L165.636 150.605L165.324 150.832L164.841 149.988L164.373 150.832L164.06 150.605L164.699 149.895L163.755 149.696L163.868 149.327L164.756 149.718L164.649 148.759H165.04L164.933 149.718L165.821 149.334L165.935 149.704L164.99 149.895Z" fill="#B2B2B2"/>
<path d="M167.39 149.895L168.029 150.605L167.723 150.832L167.241 149.988L166.765 150.832L166.46 150.605L167.099 149.895L166.154 149.696L166.268 149.327L167.155 149.718L167.049 148.759H167.432L167.333 149.718L168.22 149.334L168.334 149.704L167.39 149.895Z" fill="#B2B2B2"/>
<path d="M168.242 343.434C193.326 343.434 213.661 324.326 213.661 300.756C213.661 277.185 193.326 258.078 168.242 258.078C143.158 258.078 122.823 277.185 122.823 300.756C122.823 324.326 143.158 343.434 168.242 343.434Z" fill="#263238"/>
<path d="M167.283 341.212C192.367 341.212 212.702 322.104 212.702 298.534C212.702 274.963 192.367 255.855 167.283 255.855C142.199 255.855 121.864 274.963 121.864 298.534C121.864 322.104 142.199 341.212 167.283 341.212Z" fill="white" stroke="#263238" stroke-miterlimit="10"/>
<path d="M167.283 335.376C188.932 335.376 206.482 318.881 206.482 298.534C206.482 278.187 188.932 261.692 167.283 261.692C145.634 261.692 128.084 278.187 128.084 298.534C128.084 318.881 145.634 335.376 167.283 335.376Z" fill="white" stroke="#263238" stroke-miterlimit="10"/>
<path d="M178.146 273.733C162.412 273.733 149.653 289.758 149.653 309.532C149.653 322.312 154.971 333.473 162.959 339.813C164.279 339.927 165.614 339.991 166.963 339.991C183.506 339.991 197.926 331.527 205.63 318.96C206.289 315.871 206.618 312.719 206.61 309.56C206.61 289.758 193.879 273.733 178.146 273.733Z" fill="#263238"/>
<path d="M149.988 293.386H131.436V297.824H149.988V293.386Z" fill="white" stroke="#263238" stroke-miterlimit="10"/>
<path d="M173.829 321.956C189.459 321.956 202.13 310.052 202.13 295.367C202.13 280.682 189.459 268.777 173.829 268.777C158.199 268.777 145.528 280.682 145.528 295.367C145.528 310.052 158.199 321.956 173.829 321.956Z" fill="white" stroke="#263238" stroke-miterlimit="10"/>
<path d="M173.829 317.569C186.875 317.569 197.45 307.629 197.45 295.367C197.45 283.106 186.875 273.166 173.829 273.166C160.783 273.166 150.207 283.106 150.207 295.367C150.207 307.629 160.783 317.569 173.829 317.569Z" fill="#263238" stroke="#263238" stroke-miterlimit="10"/>
<path d="M163.932 275.004C163.781 274.633 163.605 274.272 163.406 273.925C160.992 269.729 161.276 264.397 163.101 259.441" stroke="#263238" stroke-miterlimit="10"/>
<path d="M164.308 283.83C164.308 283.83 165.572 279.03 163.932 275.004" stroke="white" stroke-miterlimit="10"/>
<path d="M172.736 273.925C170.329 269.729 170.606 264.397 172.437 259.441" stroke="#263238" stroke-miterlimit="10"/>
<path d="M173.637 283.829C173.637 283.829 175.142 278.114 172.735 273.925" stroke="white" stroke-miterlimit="10"/>
<path d="M182.371 274.486C182.278 274.294 182.179 274.11 182.073 273.925C179.666 269.729 179.943 264.397 181.767 259.441" stroke="#263238" stroke-miterlimit="10"/>
<path d="M182.974 283.829C182.974 283.829 184.351 278.611 182.37 274.486" stroke="white" stroke-miterlimit="10"/>
<path d="M272.74 255.77C272.74 255.77 272.03 255.813 270.673 255.955C269.424 251.695 265.661 239.099 263.19 232.589C260.194 224.679 256.09 213.497 253.378 208.86C250.666 204.224 250.921 201.498 245.738 197.138C240.555 192.779 235.919 194.682 235.919 194.682C235.919 194.682 235.102 191.409 229.919 189.776C224.736 188.143 217.651 191.409 217.651 191.409C217.651 191.409 216.557 189.499 211.374 190.045C209.847 190.232 208.393 190.807 207.15 191.714C205.908 192.621 204.918 193.831 204.274 195.228C204.274 195.228 193.624 173.928 189.549 172.317C185.473 170.705 181.363 174.773 183.003 178.593C184.643 182.413 196.912 203.685 198.545 208.591C200.178 213.497 203.728 221.683 203.728 221.683C203.728 221.683 191.998 213.227 188.455 212.41C184.913 211.594 179.73 211.047 176.726 214.32C173.723 217.593 180.816 218.41 186.546 223.593C192.275 228.776 201.548 240.768 205.907 248.407C210.267 256.047 219.546 257.41 223.657 261.77C226.533 264.844 230.629 269.125 232.802 271.397C232.067 272.142 231.381 272.934 230.75 273.769L239.746 295.857C239.746 295.857 241.656 292.861 249.295 286.861C256.935 280.862 280.656 273.499 280.656 273.499L272.74 255.77Z" fill="#263238" stroke="#263238" stroke-miterlimit="10"/>
<path d="M233.952 267.244C233.952 267.244 227.406 260.428 223.302 256.069C219.198 251.709 209.94 250.339 205.552 242.699C201.164 235.06 191.913 223.068 186.19 217.885C180.467 212.702 173.375 211.885 176.371 208.612C179.367 205.339 184.6 205.9 188.15 206.702C191.7 207.505 203.422 215.975 203.422 215.975C203.422 215.975 199.872 207.796 198.239 202.89C196.606 197.983 184.316 176.705 182.683 172.885C181.05 169.065 185.132 164.976 189.222 166.616C193.311 168.256 203.954 189.52 203.954 189.52C204.596 188.122 205.586 186.912 206.829 186.006C208.072 185.099 209.527 184.527 211.054 184.344C216.237 183.798 217.331 185.708 217.331 185.708C217.331 185.708 224.431 182.434 229.599 184.067C234.768 185.7 235.599 188.981 235.599 188.981C235.599 188.981 240.235 187.071 245.418 191.43C250.601 195.79 250.324 198.53 253.051 203.159C255.777 207.789 259.874 218.978 262.87 226.888C265.866 234.797 270.779 251.702 270.779 251.702L235.585 270.794L233.952 267.244Z" fill="white" stroke="#263238" stroke-miterlimit="10"/>
<path d="M203.954 189.521L213.497 203.706" stroke="#263238" stroke-miterlimit="10"/>
<path d="M217.316 185.708L226.042 199.34" stroke="#263238" stroke-miterlimit="10"/>
<path d="M235.585 188.98L241.584 199.616" stroke="#263238" stroke-miterlimit="10"/>
<path d="M207.61 228.173L208.86 231.794" stroke="#263238" stroke-miterlimit="10"/>
<path d="M203.407 215.975L206.744 225.659" stroke="#263238" stroke-miterlimit="10"/>
<path d="M218.68 206.979L220.859 209.975" stroke="#263238" stroke-miterlimit="10"/>
<path d="M228.769 203.976L231.225 207.249" stroke="#263238" stroke-miterlimit="10"/>
<path d="M242.131 202.343L243.764 207.526" stroke="#263238" stroke-miterlimit="10"/>
<path d="M230.401 268.067C230.401 268.067 236.678 259.341 249.493 254.975C256.897 252.395 264.594 250.747 272.405 250.069L280.314 267.819C280.314 267.819 256.586 275.153 248.947 281.16C241.307 287.166 239.404 290.163 239.404 290.163L230.401 268.067Z" fill="white" stroke="#263238" stroke-miterlimit="10"/>
<path d="M251.95 326.969C251.95 326.969 241.584 301.061 238.858 295.609C236.131 290.156 240.498 287.429 240.498 287.429C240.498 287.429 246.767 278.973 263.133 272.427C279.498 265.881 280.883 265.611 284.944 270.247C289.005 274.884 315.871 327.047 315.871 327.047" fill="white"/>
<path d="M251.95 326.969C251.95 326.969 241.584 301.061 238.858 295.609C236.131 290.156 240.498 287.429 240.498 287.429C240.498 287.429 246.767 278.973 263.133 272.427C279.498 265.881 280.883 265.611 284.944 270.247C289.005 274.884 315.871 327.047 315.871 327.047" stroke="#263238" stroke-miterlimit="10"/>
<path d="M81.7065 299.713C84.5216 294.382 88.8958 290.038 94.2451 287.259C103.07 282.758 108.807 280.82 117.256 272.484C125.705 264.149 139.628 256.708 145.365 255.686C151.102 254.663 153.012 252.185 150.541 249.374C148.07 246.562 141.311 246.399 135.312 248.429C129.312 250.46 123.746 252.945 123.746 252.945C126.792 246.953 128.815 239.732 131.811 233.718C133.941 229.458 137.427 222.401 139.501 218.098C140.85 215.294 144.868 210.622 143.051 207.555C141.233 204.487 136.952 206.525 134.772 209.45C131.307 214.108 114.359 239.661 114.359 239.661L124.023 219.213C128.914 208.854 131.243 203.912 130.555 205.382C131.975 202.357 134.758 198.282 133.061 194.824C132.677 194.015 132.082 193.324 131.339 192.822C130.597 192.321 129.733 192.028 128.839 191.975C127.945 191.921 127.052 192.108 126.255 192.517C125.458 192.926 124.785 193.541 124.307 194.299C121.949 198.133 103.937 232.22 103.937 232.22C103.937 232.22 115.211 202.968 116.653 199.603C118.414 195.499 117.363 191.913 114.778 191.935C111.001 191.935 109.219 196.145 107.742 198.985L108.566 197.785C105.016 202.492 102.666 208.669 99.7121 213.774C96.2805 219.748 92.721 225.643 89.0337 231.46C89.7437 225.432 92.179 219.781 95.1752 214.548C96.9857 211.396 104.519 203.65 103.227 199.844C102.119 196.564 93.8617 202.727 89.0266 209.45C86.4138 213.114 79.5481 223.111 77.6666 230.14C75.7851 237.169 62.5578 261.117 59.0291 267.77C55.5004 274.422 51.2617 286.23 51.2617 286.23L81.7065 299.713Z" fill="#263238" stroke="#263238" stroke-miterlimit="10"/>
<path d="M91.7812 293.28C91.7812 293.28 84.9794 284.958 71.9012 281.394C64.3528 279.278 56.5709 278.107 48.7339 277.908L41.9463 296.07C41.9463 296.07 66.0863 301.963 74.0738 307.48C82.0613 312.996 84.1558 315.872 84.1558 315.872L91.7812 293.28Z" fill="#263238" stroke="#263238" stroke-miterlimit="10"/>
<path d="M80.8116 296.56C83.6267 291.234 87.998 286.892 93.3431 284.114C102.168 279.605 107.912 277.667 116.354 269.339C124.796 261.01 138.726 253.562 144.47 252.533C150.214 251.503 152.117 249.04 149.639 246.221C147.161 243.402 140.409 243.253 134.41 245.284C128.41 247.314 122.829 249.792 122.829 249.792C125.875 243.8 127.899 236.586 130.895 230.566C133.025 226.306 136.518 219.255 138.584 214.946C139.933 212.141 143.952 207.469 142.134 204.409C140.317 201.349 136.043 203.373 133.863 206.305C130.398 210.962 113.45 236.508 113.45 236.508C116.664 229.692 119.883 222.879 123.106 216.067C127.998 205.708 130.334 200.767 129.638 202.229C131.058 199.212 133.849 195.165 132.152 191.679C131.767 190.869 131.172 190.178 130.43 189.676C129.687 189.174 128.823 188.881 127.928 188.827C127.033 188.772 126.141 188.959 125.342 189.367C124.544 189.775 123.87 190.389 123.39 191.146C121.033 194.987 103.02 229.075 103.02 229.075C103.02 229.075 114.295 199.815 115.737 196.457C117.497 192.346 116.447 188.768 113.862 188.789C110.085 188.789 108.303 192.992 106.826 195.839L107.65 194.64C104.1 199.34 101.75 205.524 98.7959 210.629C95.35 216.593 91.7811 222.486 88.0891 228.308C88.7991 222.28 91.2344 216.635 94.2306 211.403C96.0411 208.25 103.574 200.504 102.289 196.691C101.182 193.418 92.9171 199.574 88.0891 206.305C85.4692 209.968 78.6106 219.958 76.7291 226.994C74.8476 234.03 61.6203 257.964 58.0916 264.624C54.5629 271.284 50.3242 283.084 50.3242 283.084L80.8116 296.56Z" fill="white" stroke="#263238" stroke-miterlimit="10"/>
<path d="M103.064 229.082L99.8047 235.663" stroke="#263238" stroke-miterlimit="10"/>
<path d="M113.493 236.515L110.951 239.81" stroke="#263238" stroke-miterlimit="10"/>
<path d="M122.844 249.792L119.578 254.549" stroke="#263238" stroke-miterlimit="10"/>
<path d="M105.96 246.668L105.697 249.501" stroke="#263238" stroke-miterlimit="10"/>
<path d="M97.8232 241.507L97.8374 244.24" stroke="#263238" stroke-miterlimit="10"/>
<path d="M85.8535 235.805L86.5138 240.456" stroke="#263238" stroke-miterlimit="10"/>
<path d="M90.8796 290.134C90.8796 290.134 84.0778 281.813 70.9996 278.249C63.4577 276.137 55.683 274.968 47.8536 274.77L41.0518 292.946C41.0518 292.946 65.1918 298.832 73.1793 304.349C81.1668 309.865 83.2613 312.748 83.2613 312.748L90.8796 290.134Z" fill="white" stroke="#263238" stroke-miterlimit="10"/>
<path d="M80.0594 329.44C80.0594 329.44 81.7563 323.76 84.1419 318.144C86.5275 312.528 82.0119 310.079 82.0119 310.079C82.0119 310.079 75.2243 302.027 58.4896 296.503C41.7549 290.98 40.3775 290.788 36.579 295.666C32.7805 300.543 20.5898 329.88 20.5898 329.88" fill="white"/>
<path d="M80.0594 329.44C80.0594 329.44 81.7563 323.76 84.1419 318.144C86.5275 312.528 82.0119 310.079 82.0119 310.079C82.0119 310.079 75.2243 302.027 58.4896 296.503C41.7549 290.98 40.3775 290.788 36.579 295.666C32.7805 300.543 20.5898 329.88 20.5898 329.88" stroke="#263238" stroke-miterlimit="10"/>
</svg>
