<svg width="20" height="20" viewBox="0 0 20 20" fill="none" xmlns="http://www.w3.org/2000/svg">
<path d="M13.125 12.5C12.9592 12.5 12.8003 12.5658 12.6831 12.6831C12.5658 12.8003 12.5 12.9592 12.5 13.125C12.5 13.2908 12.5658 13.4497 12.6831 13.5669C12.8003 13.6842 12.9592 13.75 13.125 13.75H15.625C15.7908 13.75 15.9497 13.6842 16.0669 13.5669C16.1842 13.4497 16.25 13.2908 16.25 13.125C16.25 12.9592 16.1842 12.8003 16.0669 12.6831C15.9497 12.5658 15.7908 12.5 15.625 12.5H13.125ZM1.25 6.875C1.25 6.0462 1.57924 5.25134 2.16529 4.66529C2.75134 4.07924 3.5462 3.75 4.375 3.75H15.625C16.4538 3.75 17.2487 4.07924 17.8347 4.66529C18.4208 5.25134 18.75 6.0462 18.75 6.875V13.125C18.75 13.9538 18.4208 14.7487 17.8347 15.3347C17.2487 15.9208 16.4538 16.25 15.625 16.25H4.375C3.5462 16.25 2.75134 15.9208 2.16529 15.3347C1.57924 14.7487 1.25 13.9538 1.25 13.125V6.875ZM17.5 7.5V6.875C17.5 6.37772 17.3025 5.90081 16.9508 5.54917C16.5992 5.19754 16.1223 5 15.625 5H4.375C3.87772 5 3.40081 5.19754 3.04917 5.54917C2.69754 5.90081 2.5 6.37772 2.5 6.875V7.5H17.5ZM2.5 8.75V13.125C2.5 13.6223 2.69754 14.0992 3.04917 14.4508C3.40081 14.8025 3.87772 15 4.375 15H15.625C16.1223 15 16.5992 14.8025 16.9508 14.4508C17.3025 14.0992 17.5 13.6223 17.5 13.125V8.75H2.5Z" fill="#84BD00"/>
</svg>
