<svg width="14" height="18" viewBox="0 0 14 18" fill="none" xmlns="http://www.w3.org/2000/svg">
<path d="M6.99967 0.666504C2.55801 4.45817 0.333008 7.73317 0.333008 10.4998C0.333008 14.6498 3.49967 17.3332 6.99967 17.3332C10.4997 17.3332 13.6663 14.6498 13.6663 10.4998C13.6663 7.73317 11.4413 4.45817 6.99967 0.666504ZM3.52467 10.6665C3.83301 10.6665 4.08301 10.8832 4.14134 11.1832C4.48301 13.0332 6.04134 13.6665 7.17467 13.5748C7.53301 13.5582 7.83301 13.8415 7.83301 14.1998C7.83301 14.5332 7.56634 14.8082 7.23301 14.8248C5.45801 14.9332 3.38301 13.9165 2.90801 11.3915C2.89353 11.3022 2.89862 11.2107 2.92295 11.1236C2.94727 11.0364 2.99024 10.9555 3.04888 10.8866C3.10752 10.8176 3.18044 10.7622 3.26259 10.7242C3.34474 10.6862 3.43416 10.6665 3.52467 10.6665Z" fill="#4D7A42"/>
</svg>
