<svg width="17" height="17" viewBox="0 0 17 17" fill="none" xmlns="http://www.w3.org/2000/svg">
<path d="M8.50001 0C13.1946 0 17 3.80545 17 8.49999C17 13.1945 13.1946 17 8.50001 17C6.99787 17.0024 5.52217 16.6049 4.22451 15.8482L0.00341195 17L1.15261 12.7772C0.395341 11.4791 -0.00249762 10.0028 1.17982e-05 8.49999C1.17982e-05 3.80545 3.80546 0 8.50001 0ZM5.60321 4.505L5.43321 4.5118C5.32315 4.5185 5.21559 4.54741 5.11701 4.5968C5.0248 4.64901 4.94063 4.71429 4.86711 4.7906C4.76511 4.88665 4.70731 4.96995 4.64526 5.0507C4.33086 5.45946 4.16159 5.96131 4.16416 6.477C4.16586 6.8935 4.27466 7.29894 4.44466 7.67804C4.79231 8.44474 5.36436 9.25649 6.11916 10.0087C6.30106 10.1898 6.47956 10.3717 6.67166 10.5408C7.60954 11.3666 8.72717 11.9621 9.93565 12.2799L10.4185 12.3539C10.5757 12.3624 10.733 12.3505 10.8911 12.3428C11.1386 12.3301 11.3803 12.263 11.5991 12.1465C11.7104 12.0892 11.819 12.0268 11.9247 11.9595C11.9247 11.9595 11.9612 11.9357 12.0309 11.883C12.1457 11.798 12.2162 11.7376 12.3114 11.6382C12.382 11.5651 12.4432 11.4792 12.4899 11.3815C12.5562 11.2429 12.6225 10.9786 12.6497 10.7584C12.6701 10.5901 12.6642 10.4983 12.6616 10.4414C12.6582 10.3504 12.5826 10.2561 12.5001 10.2161L12.0054 9.99429C12.0054 9.99429 11.2659 9.67214 10.8137 9.46644C10.7664 9.44578 10.7157 9.43397 10.6641 9.43159C10.6059 9.42562 10.5472 9.43216 10.4918 9.45078C10.4363 9.4694 10.3856 9.49967 10.3428 9.53954C10.3386 9.53784 10.2816 9.58629 9.66706 10.3309C9.63178 10.3783 9.5832 10.4141 9.52749 10.4338C9.47178 10.4535 9.41147 10.4561 9.35425 10.4414C9.29888 10.4265 9.24463 10.4078 9.19191 10.3853C9.0865 10.3411 9.04996 10.3241 8.97771 10.2935C8.48986 10.0806 8.03819 9.79297 7.63896 9.44094C7.53186 9.34744 7.43241 9.24544 7.33041 9.14684C6.99601 8.82659 6.70457 8.4643 6.46341 8.06905L6.41326 7.98829C6.37724 7.93403 6.34811 7.8755 6.32656 7.81404C6.29426 7.68909 6.37841 7.5888 6.37841 7.5888C6.37841 7.5888 6.58496 7.36269 6.68101 7.24029C6.77451 7.12129 6.85356 7.0057 6.90456 6.92325C7.00486 6.76175 7.03631 6.596 6.98361 6.46765C6.74561 5.88625 6.49911 5.3074 6.24581 4.7328C6.19566 4.6189 6.04691 4.5373 5.91176 4.52115C5.86586 4.51605 5.81996 4.51095 5.77406 4.50755C5.65991 4.50188 5.54552 4.50301 5.43151 4.51095L5.60236 4.50415L5.60321 4.505Z" fill="#4D7A42"/>
</svg>
